<?xml version="1.0" standalone="no"?>
<!DOCTYPE svg PUBLIC "-//W3C//DTD SVG 1.1//EN" "http://www.w3.org/Graphics/SVG/1.1/DTD/svg11.dtd" >
<svg xmlns="http://www.w3.org/2000/svg">
<metadata></metadata>
<defs>
<font id="allianz_seriflight" horiz-adv-x="1020" >
<font-face units-per-em="2048" ascent="1577" descent="-471" />
<missing-glyph horiz-adv-x="410" />
<glyph horiz-adv-x="1024" />
<glyph horiz-adv-x="1024" />
<glyph unicode="&#xd;" horiz-adv-x="1024" />
<glyph unicode=" "  horiz-adv-x="410" />
<glyph unicode="&#x09;" horiz-adv-x="410" />
<glyph unicode="&#xa0;" horiz-adv-x="410" />
<glyph unicode="!" horiz-adv-x="532" d="M168 86q0 51 26 80t74 29t74.5 -27t26.5 -80q0 -51 -26.5 -79.5t-74.5 -28.5t-74 26.5t-26 79.5zM180 1341q0 23 3.5 42t13 32t27 20t44.5 7q54 0 71 -26.5t17 -74.5q0 -7 -0.5 -19.5t-1.5 -26t-1.5 -26.5t-0.5 -20l-49 -925h-70l-49 925q0 7 -0.5 20t-1.5 26.5t-1.5 26 t-0.5 19.5z" />
<glyph unicode="&#x22;" horiz-adv-x="537" d="M72 1360q0 14 3 28.5t11.5 26.5t23 19.5t37.5 7.5q45 0 61.5 -22.5t16.5 -57.5q0 -10 -2 -28t-5 -40t-6.5 -46.5t-6.5 -47.5l-29 -203h-53l-31 195q-4 23 -7.5 46.5t-6.5 45.5t-4.5 41.5t-1.5 34.5zM311 1360q0 14 3.5 28.5t12 26.5t23 19.5t37.5 7.5q45 0 61.5 -22.5 t16.5 -57.5q0 -10 -2 -28t-5 -40t-7 -46.5t-7 -47.5l-28 -203h-54l-30 195q-4 23 -7.5 46.5t-6.5 45.5t-5 41.5t-2 34.5z" />
<glyph unicode="#" horiz-adv-x="1204" d="M0 408l23 108h237l78 412h-240l21 108h239l76 404h123l-78 -404h365l76 404h122l-77 -404h239l-20 -108h-240l-78 -412h240l-21 -108h-239l-76 -408h-121l76 408h-365l-75 -408h-121l76 408h-240zM381 516h364l78 412h-364z" />
<glyph unicode="$" d="M82 338h49l12 -59q12 -59 34.5 -101t60 -68.5t93 -38.5t134.5 -12v605l-82 51q-47 29 -94 64t-85 81t-61.5 106t-23.5 138q0 58 17 115.5t57.5 104t107 78t164.5 38.5v188h86v-188q70 -3 125 -17.5t93 -30.5q45 -19 79 -42q-1 -16 -2 -37q-1 -18 -1.5 -44t-0.5 -59 q0 -32 0.5 -54.5t1.5 -36.5q1 -17 2 -27h-49l-11 59q-10 58 -30.5 97t-50.5 63.5t-69 36t-87 14.5v-565l72 -45q43 -28 90.5 -60.5t87 -77.5t65 -105.5t25.5 -143.5q0 -166 -89 -261t-251 -116v-205h-86v199h-10q-91 0 -157.5 13t-111.5 30q-52 18 -88 43v20q0 47 -2.5 92 t-5.5 80q-4 41 -8 78zM252 1130q0 -60 16 -102.5t43 -74.5t63.5 -58t78.5 -53l12 -8v528q-44 -5 -82.5 -21.5t-67.5 -45t-46 -69.5t-17 -96zM551 68q37 7 73.5 23t65.5 46t47.5 75t18.5 110q0 66 -18 112t-45.5 79t-62 57t-67.5 46l-12 9v-557z" />
<glyph unicode="%" horiz-adv-x="1241" d="M20 1110q0 72 22.5 133t64.5 105.5t101.5 69t133.5 24.5q70 0 127.5 -22.5t97.5 -64t62 -99.5t22 -130t-22.5 -132.5t-64.5 -105t-101.5 -69t-132.5 -24.5q-71 0 -128 22.5t-97.5 63.5t-62.5 99.5t-22 129.5zM31 0l1038 1419h119l-1034 -1419h-123zM147 1116 q0 -52 11 -96t34 -75.5t57.5 -49.5t82.5 -18q49 0 85 18t60 50.5t35.5 77t11.5 97.5q0 52 -11 96.5t-33.5 76t-57 49.5t-82.5 18q-49 0 -85.5 -18.5t-60.5 -51t-35.5 -77t-11.5 -97.5zM590 299q0 72 22.5 133t64.5 105.5t101 69t133 24.5q71 0 128 -22.5t97.5 -64 t62.5 -99.5t22 -130t-22.5 -132.5t-64.5 -105t-101.5 -69t-133.5 -24.5q-71 0 -128 22.5t-97 63.5t-62 99.5t-22 129.5zM717 305q0 -52 11 -96t33.5 -75.5t57 -49.5t82.5 -18q49 0 85.5 18t60.5 50.5t35.5 77t11.5 97.5q0 52 -11 96.5t-34 76t-57.5 49.5t-82.5 18 q-49 0 -85 -18.5t-60 -51t-35.5 -77t-11.5 -97.5z" />
<glyph unicode="&#x26;" horiz-adv-x="1380" d="M102 369q0 58 12.5 105t33 85.5t47 67.5t54.5 51q65 51 148 78l-43 51q-21 24 -48.5 57.5t-52.5 76t-42.5 94t-17.5 112.5q0 85 26 144.5t70.5 97t102 54.5t120.5 17q76 0 130 -16.5t91 -43t58.5 -59.5t32.5 -66t14.5 -63.5t3.5 -50.5q0 -59 -12 -106.5t-31.5 -85.5 t-45 -67t-51.5 -51q-62 -51 -139 -77l443 -524q27 32 49 83q18 43 33.5 110.5t15.5 164.5q0 48 -4 85t-16 63.5t-34 43t-57 23.5l-41 8v41q25 -3 55 -5q26 -2 60 -3.5t74 -1.5q55 0 94.5 1.5t65.5 3.5q30 2 49 5v-41l-45 -10q-34 -8 -53 -25.5t-28.5 -43t-13 -57.5t-6.5 -68 q-8 -105 -29.5 -180t-46.5 -126t-48.5 -79.5t-35.5 -38.5l37 -43q25 -29 44 -49.5t35 -33.5t31 -20t32 -10l51 -10v-41q-16 1 -41 3q-21 1 -53 2t-76 1q-17 0 -29.5 -0.5t-21.5 -0.5q-11 -1 -19 -1l-90 109q-45 -36 -103 -63q-50 -23 -120.5 -42.5t-161.5 -19.5 q-40 0 -89.5 5t-100 20t-99 41.5t-86 69.5t-60 104t-22.5 145zM260 403q0 -65 17.5 -126t56.5 -108t103 -75t157 -28q78 0 136 14.5t96 31.5q45 20 75 46l-473 561q-47 -29 -84 -73q-16 -19 -31 -43.5t-27 -54.5t-19 -66t-7 -79zM319 1192q0 -42 10.5 -80t29 -74t44 -70.5 t54.5 -68.5l75 -90q48 20 86 64q16 19 31.5 44.5t28 59t20 76.5t7.5 96q0 58 -10.5 103t-33.5 76.5t-59.5 48t-87.5 16.5q-103 0 -149 -53.5t-46 -147.5z" />
<glyph unicode="'" horiz-adv-x="297" d="M72 1360q0 14 3 28.5t11.5 26.5t23 19.5t37.5 7.5q45 0 61.5 -22.5t16.5 -57.5q0 -10 -2 -28t-5 -40t-6.5 -46.5t-6.5 -47.5l-29 -203h-53l-31 195q-4 23 -7.5 46.5t-6.5 45.5t-4.5 41.5t-1.5 34.5z" />
<glyph unicode="(" horiz-adv-x="762" d="M102 553q0 141 25.5 272.5t73.5 251.5t116 226t152 196q22 22 40.5 40t41.5 38h139q-114 -106 -199 -219.5t-141.5 -239.5t-84 -266t-27.5 -299t27.5 -299t84 -266t141.5 -239.5t199 -219.5h-139q-23 20 -41.5 38t-40.5 40q-84 90 -152 196t-116 226t-73.5 251.5 t-25.5 272.5z" />
<glyph unicode=")" horiz-adv-x="762" d="M72 -471q114 106 199 219.5t141.5 239.5t84 266t27.5 299t-27.5 299t-84 266t-141.5 239.5t-199 219.5h139q23 -20 41.5 -38t40.5 -40q84 -90 152 -196t115.5 -226t73 -251.5t25.5 -272.5t-25.5 -272.5t-73 -251.5t-115.5 -226t-152 -196q-22 -22 -40.5 -40t-41.5 -38 h-139z" />
<glyph unicode="*" horiz-adv-x="762" d="M51 1024l289 113l-289 112l74 123l233 -182l-49 299h150l-51 -299l235 182l72 -123l-287 -110l287 -115l-72 -125l-235 186l51 -301h-150l49 301l-233 -186z" />
<glyph unicode="+" horiz-adv-x="1311" d="M47 655v121h543v570h131v-570h543v-121h-543v-571h-131v571h-543z" />
<glyph unicode="," horiz-adv-x="420" d="M113 88q0 51 29 82t77 31q27 0 47.5 -11.5t35 -31t21.5 -45.5t7 -56q0 -48 -13.5 -96t-38 -92.5t-58 -83t-73.5 -68.5l-24 27q50 60 66 121t16 117q-40 6 -66 33t-26 73z" />
<glyph unicode="-" horiz-adv-x="666" d="M84 479v129h498v-129h-498z" />
<glyph unicode="." horiz-adv-x="420" d="M111 92q0 51 29 83t77 32q47 0 78 -31t31 -82q0 -52 -28.5 -85.5t-78.5 -33.5q-49 0 -78.5 30.5t-29.5 86.5z" />
<glyph unicode="/" horiz-adv-x="713" d="M0 -362l518 1939h123l-520 -1939h-121z" />
<glyph unicode="0" d="M82 694q0 198 29 340t85.5 232.5t139.5 133t190 42.5q103 0 180.5 -41t129 -127t77 -221t25.5 -322q0 -198 -29 -339.5t-85.5 -232t-139.5 -133t-190 -42.5q-103 0 -180.5 41t-129 127t-77 220.5t-25.5 321.5zM233 702q0 -136 9 -237t26.5 -173t41.5 -117.5t54 -71.5 t64.5 -36t73.5 -10q61 0 113.5 29t90 103.5t59 203.5t21.5 330q0 137 -9 238t-26 172.5t-41 117t-54 71.5t-65 36t-73 10q-62 0 -114 -29t-90 -103.5t-59.5 -203.5t-21.5 -330z" />
<glyph unicode="1" d="M213 1243v47q24 6 62 18q32 11 82 28t120 44q26 10 49 20.5t40 19.5q20 11 38 20v-1293q0 -24 3.5 -39.5t11.5 -25t21.5 -15.5t33.5 -10l112 -20v-41q-38 2 -78 4q-35 2 -78 3t-87 1q-42 0 -90 -1t-90 -3q-48 -2 -97 -4v39l94 20q28 6 47.5 15.5t31.5 24.5t17 37t5 54 v1049q0 19 -11 28t-28 9q-40 0 -89 -9t-120 -20z" />
<glyph unicode="2" d="M76 0v90q61 57 126 120q55 54 121.5 123.5t129.5 141.5q54 63 101 127.5t81.5 133.5t54 144.5t19.5 161.5q0 59 -6.5 117t-32.5 103.5t-77 73.5t-140 28q-59 0 -105.5 -9.5t-81 -34t-57 -66t-33.5 -105.5l-10 -59h-49q1 10 2 27q1 14 1.5 36.5t0.5 54.5q0 33 -0.5 59 t-1.5 44q-1 21 -2 37q35 26 84 46q42 17 104.5 31.5t147.5 14.5q124 0 204 -32t126 -85.5t63.5 -123.5t17.5 -146q0 -95 -28.5 -179t-77 -162.5t-113 -153t-135.5 -150.5q-77 -82 -154.5 -157t-140.5 -134h348q50 0 89 3.5t68 15.5t49 36t32 66l18 65h45q-4 -43 -7 -90 q-3 -40 -5 -89t-2 -97v-27h-774z" />
<glyph unicode="3" d="M45 170l27 29q32 -35 83 -61q44 -23 112 -41.5t165 -18.5q64 0 121 16.5t99 55t66.5 101.5t24.5 155q0 72 -15.5 123t-42.5 85t-62 53.5t-74 29t-80 12t-78 2.5v69q29 2 64.5 6.5t71 16t69 32t60 55.5t42 86.5t15.5 123.5q0 134 -59 200t-171 66q-46 0 -90 -7.5t-81 -31 t-64 -65.5t-39 -111l-10 -59h-49q1 10 2 27q1 14 1.5 36.5t0.5 54.5q0 33 -0.5 59t-1.5 44q-1 21 -2 37q38 26 89 46q44 17 106.5 31.5t143.5 14.5q77 0 134.5 -14.5t99 -39t69 -57.5t43.5 -69.5t22.5 -74.5t6.5 -73q0 -62 -13.5 -110.5t-36 -85.5t-50.5 -63t-58 -44 q-70 -42 -157 -53q30 -2 67.5 -8t76 -21t75 -40.5t65 -66.5t45.5 -98.5t17 -136.5q0 -108 -36.5 -184.5t-97.5 -125t-140 -71t-164 -22.5q-60 0 -110 8t-90.5 21t-71.5 29.5t-55 34.5q-55 40 -85 93z" />
<glyph unicode="4" d="M41 344v90l627 991h137v-968h168v-113h-168v-203q0 -47 14.5 -65t54.5 -25l78 -14v-41q-29 2 -62 4q-29 2 -67 3t-82 1q-42 0 -81.5 -1t-71.5 -3q-37 -2 -70 -4v39l55 12q33 8 52 19.5t28 27.5t11 36t2 44v170h-625zM152 457h514v841q-7 -16 -18 -37l-25 -45t-37 -63 l-369 -600q-13 -20 -24.5 -37.5t-20.5 -30.5q-11 -15 -20 -28z" />
<glyph unicode="5" d="M63 170l27 29q31 -35 80 -61q42 -23 107 -41.5t159 -18.5q58 0 115 17.5t102 60.5t73 115.5t28 183.5q0 69 -16 130.5t-52.5 108t-96 74t-145.5 27.5q-71 0 -122.5 -11t-85.5 -24q-40 -16 -66 -35v696h692v-121h-600v-452q24 10 57 19q28 8 69 14t95 6q114 0 194.5 -34 t131 -93t73.5 -137.5t23 -167.5q0 -96 -26 -181.5t-82 -150t-143 -102t-208 -37.5q-54 0 -99 8t-82.5 21t-67 29.5t-51.5 34.5q-53 40 -83 93z" />
<glyph unicode="6" d="M94 651q0 165 21 287.5t57 210.5t85 144t105 89t115.5 45.5t118.5 12.5q49 0 90 -8t74.5 -21.5t59.5 -30.5t46 -35q47 -41 74 -94l-29 -26q-23 32 -63 58q-34 22 -90 40t-140 18q-113 0 -185 -46t-113.5 -130.5t-57.5 -203.5t-16 -265q29 44 74 78q38 29 97.5 53.5 t143.5 24.5q83 0 143 -20t102 -53.5t68 -77t40 -90t19 -92.5t5 -85q0 -88 -22 -169.5t-71 -143.5t-128.5 -99.5t-194.5 -37.5q-116 0 -197.5 40.5t-132.5 123.5t-74.5 208t-23.5 295zM246 621q0 -159 13.5 -267.5t45.5 -175.5t85.5 -96t133.5 -29q75 0 125 28t80.5 76 t43.5 111t13 133q0 36 -2.5 77t-11 80.5t-26 75.5t-46.5 63.5t-72 44t-104 16.5q-80 0 -133 -20.5t-85 -44.5q-38 -28 -60 -64v-8z" />
<glyph unicode="7" d="M109 1118q3 44 7 91q2 40 4.5 89t2.5 97v26h778v-86q0 -108 -25.5 -203t-82.5 -192l-162 -276q-46 -79 -71 -150t-36.5 -144t-13.5 -153.5t-2 -179.5v-37h-148v63q0 66 2.5 121t9.5 105.5t20 98.5t35 99.5t53 109t75 126.5l135 213q69 109 95 200t26 156v13h-401 q-50 0 -89 -3.5t-68.5 -16t-49 -36.5t-31.5 -65l-18 -66h-45z" />
<glyph unicode="8" d="M100 328q0 63 13.5 113.5t35.5 90t50 70t58 52.5q69 51 157 75l-39 25q-28 18 -69 44.5t-79.5 68t-66 99.5t-27.5 138q0 75 23 137t70 106.5t119.5 69.5t170.5 25q89 0 159 -21t118 -61.5t73 -100t25 -135.5q0 -56 -12 -101t-32 -81t-45.5 -63.5t-51.5 -48.5 q-62 -48 -140 -72l74 -45q44 -27 86.5 -60t76.5 -75.5t54.5 -96.5t20.5 -123q0 -89 -27 -158.5t-79.5 -117.5t-129 -73t-176.5 -25q-89 0 -154 16t-110.5 42.5t-74 61t-44.5 73t-21.5 77.5t-5.5 74zM238 340q0 -48 10.5 -98.5t40 -92t82.5 -68t139 -26.5q82 0 135 25 t83.5 63.5t42 84.5t11.5 87q0 49 -9 90.5t-32 78.5t-62 72.5t-99 72.5l-121 73q-63 -27 -111 -75q-21 -21 -40.5 -48.5t-35 -63t-25 -79t-9.5 -96.5zM266 1145q0 -36 5 -71t23 -70t54 -71t98 -75l121 -74q53 28 95 74q18 19 35 44.5t30.5 57t22 69t8.5 81.5q0 59 -12 101 t-32.5 71t-46 46.5t-53 26.5t-53.5 12t-47 3q-57 0 -98 -13.5t-68.5 -34t-43.5 -46.5t-24.5 -51t-11 -46.5t-2.5 -33.5z" />
<glyph unicode="9" d="M80 172l29 27q22 -33 62 -59q34 -22 90 -40t140 -18q113 0 185.5 46t114 130.5t57.5 203.5t16 265q-29 -44 -74 -78q-38 -29 -98 -53.5t-143 -24.5t-143 20t-102 53.5t-68 77t-40 90t-19 92.5t-5 85q0 88 21.5 170t71 144t128.5 99.5t195 37.5t197.5 -40.5t132.5 -123.5 t74.5 -208.5t23.5 -295.5q0 -165 -21 -287.5t-57.5 -210t-85.5 -144t-104.5 -89t-115.5 -45t-118 -12.5q-49 0 -90 8t-74.5 21.5t-59.5 30t-46 34.5q-47 41 -74 94zM233 1022q0 -36 2.5 -76.5t11.5 -80t26 -75.5t46.5 -63.5t72.5 -44t104 -16.5q79 0 132.5 20t85.5 44 q38 28 60 65v8q0 159 -13.5 267.5t-45.5 175t-85.5 95.5t-133.5 29q-75 0 -125 -28t-81 -76t-44 -111t-13 -133z" />
<glyph unicode=":" horiz-adv-x="420" d="M111 92q0 51 29 83t77 32q47 0 78 -31t31 -82q0 -52 -28.5 -85.5t-78.5 -33.5q-49 0 -78.5 30.5t-29.5 86.5zM111 903q0 51 29 83t77 32q47 0 78 -31t31 -82q0 -52 -28.5 -85.5t-78.5 -33.5q-49 0 -78.5 30.5t-29.5 86.5z" />
<glyph unicode=";" horiz-adv-x="410" d="M111 88q0 51 29 82t77 31q27 0 47.5 -11.5t35 -31t21.5 -45.5t7 -56q0 -48 -13.5 -96t-38 -92.5t-58 -83t-73.5 -68.5l-24 27q50 60 66 121t16 117q-40 6 -66 33t-26 73zM123 903q0 51 29 83t77 32q47 0 78 -31t31 -82q0 -52 -28.5 -85.5t-78.5 -33.5q-49 0 -78.5 30.5 t-29.5 86.5z" />
<glyph unicode="&#x3c;" horiz-adv-x="1456" d="M47 680v76l1362 598v-133l-1165 -500l1165 -498v-139z" />
<glyph unicode="=" horiz-adv-x="1311" d="M47 395v123h1217v-123h-1217zM47 907v123h1217v-123h-1217z" />
<glyph unicode="&#x3e;" horiz-adv-x="1456" d="M49 84v139l1165 498l-1165 500v133l1362 -598v-76z" />
<glyph unicode="?" horiz-adv-x="879" d="M72 1092q1 10 2 27q1 14 1.5 36.5t0.5 54.5q0 33 -0.5 59t-1.5 44q-1 21 -2 37q32 26 80 46q41 17 101 31.5t142 14.5q117 0 194.5 -30t124 -78t66 -108.5t19.5 -121.5q0 -97 -30 -170t-75 -131.5t-97 -107t-97 -98t-75 -104t-30 -124.5v-45h-86v67q0 65 24.5 118.5 t62 101.5t80.5 95t80.5 100.5t62 117t24.5 145.5q0 30 -2.5 64t-11 67t-25 63t-44 53t-68 36.5t-97.5 13.5q-63 0 -108.5 -13t-77 -40t-50.5 -67.5t-28 -94.5l-10 -59h-49zM254 86q0 51 26 80t74 29t74.5 -27t26.5 -80q0 -51 -26.5 -79.5t-74.5 -28.5t-74 26.5t-26 79.5z " />
<glyph unicode="@" horiz-adv-x="1929" d="M102 457q0 144 30.5 271t88 233.5t140 190t186 142t226.5 89t261 30.5q168 0 314.5 -46t255 -137.5t171 -227.5t62.5 -316q0 -147 -40 -272.5t-123 -218t-210 -145t-301 -52.5q-16 0 -31 0.5t-27 1.5l-28 2l56 311q-16 -36 -35 -73q-17 -32 -41 -69.5t-56 -72.5 q-35 -38 -66 -60t-58.5 -33.5t-52 -15t-46.5 -3.5q-46 0 -89.5 15t-77 54t-54 106.5t-20.5 172.5q0 80 11.5 164t35.5 163.5t61.5 150t90.5 123t121.5 83.5t154.5 31q66 0 109.5 -13t69.5 -29q31 -18 48 -42l139 96l-159 -977q126 -1 217 43t149 122t85.5 186.5t27.5 236.5 q0 151 -43.5 270.5t-129 203t-214 127.5t-297.5 44q-85 0 -175.5 -17.5t-175.5 -57.5t-161 -105.5t-133 -160.5t-90 -223t-33 -294q0 -188 49.5 -332t147 -241.5t243 -148t336.5 -50.5q106 0 185.5 17t133.5 37q63 24 109 54l29 -39q-51 -48 -126 -86q-32 -16 -72 -31.5 t-89 -27.5t-106.5 -19.5t-124.5 -7.5q-200 0 -359 57t-270 168t-170.5 274t-59.5 374zM678 336q0 -77 11.5 -125.5t31.5 -76.5t45.5 -38t54.5 -10q25 0 47.5 5.5t44.5 19t45.5 35.5t51.5 55q24 29 47.5 63t42.5 70t32.5 72.5t18.5 70.5l68 420q-14 19 -39 35q-21 13 -56 24 t-88 11q-79 0 -136 -33.5t-97 -88t-64.5 -123t-38 -138.5t-18 -135.5t-4.5 -112.5z" />
<glyph unicode="A" horiz-adv-x="1200" d="M-43 -4v41q32 7 59 19t45 44q11 19 18 36.5t15 39.5l453 1270h108l435 -1272q8 -22 15.5 -42.5t16.5 -37.5q13 -21 38.5 -34.5t62.5 -22.5v-41q-23 2 -51 4q-24 2 -57.5 3t-74.5 1q-50 0 -87.5 -1t-63.5 -3q-31 -2 -53 -4v41q10 1 24 3.5t28 6t26.5 8.5t19.5 11 q9 9 14.5 19t5.5 32q0 11 -3.5 27.5t-8.5 33t-10 31.5l-8 24l-113 334h-477l-121 -346q-4 -10 -8.5 -24t-8.5 -29t-7 -29.5t-3 -25.5q0 -27 13 -41q14 -17 43.5 -23t60.5 -12v-41q-23 2 -50 4q-23 2 -54.5 3t-69.5 1q-43 0 -74.5 -1t-53.5 -3q-26 -2 -44 -4zM358 643h426 l-131 385q-24 70 -39 118t-24 77q-11 34 -15 55q-7 -25 -17 -57q-8 -27 -21 -65.5t-29 -84.5z" />
<glyph unicode="B" horiz-adv-x="1122" d="M66 -4v39l55 12q33 8 51.5 19.5t27.5 27.5t11 36t2 44v1106q0 24 -3.5 39.5t-11.5 25.5t-21.5 15.5t-33.5 9.5l-77 14v41q21 -2 50 -4q25 -2 62 -3t88 -1q36 0 61 0.5t48 1.5t49.5 1.5t64.5 0.5q82 0 137.5 -5t93 -13.5t61.5 -19t42 -21.5q69 -40 104.5 -110.5 t35.5 -166.5q0 -58 -13 -103t-34.5 -79.5t-49 -59.5t-55.5 -42q-67 -40 -152 -53q101 -3 180 -41q34 -16 66.5 -41.5t58 -63.5t41 -89.5t15.5 -119.5q0 -117 -50 -207t-149 -137q-23 -11 -52 -20.5t-68 -16t-90 -10.5t-117 -4q-32 0 -60 0.5t-54 1.5t-52.5 1.5t-55.5 0.5 q-40 0 -77 -1t-66 -2q-33 -2 -63 -3zM356 166q0 -54 15 -75t55 -21h98q37 0 77.5 4t79 16t73 34t60.5 58t41 87.5t15 123.5q0 73 -17 124.5t-46 86.5t-66.5 55t-78 30t-81.5 13t-77 3h-148v-539zM356 774h129q31 0 67 3.5t72.5 14t70.5 30.5t60 53.5t42 83t16 118.5 q0 88 -25.5 142t-68.5 83t-100 38.5t-121 9.5h-142v-576z" />
<glyph unicode="C" horiz-adv-x="1233" d="M98 688q0 131 24 250.5t77 210.5q85 151 226 222t327 71q96 0 166 -14.5t118 -31.5q55 -20 94 -46q-1 -16 -2 -37q-1 -18 -1.5 -44t-0.5 -59q0 -32 0.5 -54.5t1.5 -36.5q1 -17 2 -27h-49l-10 59q-6 37 -20 74.5t-47.5 68.5t-93.5 50.5t-158 19.5q-122 0 -215.5 -46 t-157 -130.5t-96.5 -204t-33 -266.5q0 -75 8.5 -153t29 -151t55 -137.5t87 -112.5t125 -76t168.5 -28q84 0 144 12t101 38.5t65 68.5t36 101l12 59h49q-4 -37 -8 -78q-3 -35 -5.5 -80t-2.5 -92v-20q-40 -25 -97 -43q-49 -17 -122 -30t-172 -13q-168 0 -286.5 53t-193.5 147 t-110 223.5t-35 282.5z" />
<glyph unicode="D" horiz-adv-x="1350" d="M66 -4v39l55 12q33 8 51.5 19.5t27.5 27.5t11 36t2 44v1106q0 24 -3.5 39.5t-11.5 25.5t-21.5 15.5t-33.5 9.5l-77 14v41q21 -2 50 -4q25 -2 62 -3t88 -1q36 0 64 0.5t54.5 1.5t55 1.5t66.5 0.5q91 0 161 -3.5t126.5 -12.5t103 -26t90.5 -44q134 -83 199 -238t65 -364 q0 -120 -18 -222.5t-56.5 -186.5t-98 -147.5t-142.5 -104.5q-42 -22 -87.5 -36t-98.5 -22.5t-115.5 -12t-138.5 -3.5q-63 0 -119 2t-115 2q-40 0 -75.5 -1t-62.5 -2q-32 -2 -58 -3zM358 170q0 -54 15 -75t55 -21h78q61 0 111 3.5t92 11t77.5 19.5t67.5 29q60 33 106 87.5 t77 128t47 164.5t16 196q0 216 -61.5 363t-180.5 212q-28 15 -58 26t-68 18t-87 10.5t-115 3.5h-172v-1176z" />
<glyph unicode="E" horiz-adv-x="1055" d="M66 -4v39l55 12q33 8 51.5 19.5t27.5 27.5t11 36t2 44v1106q0 24 -3.5 39.5t-11.5 25.5t-21.5 15.5t-33.5 9.5l-77 14v41q21 -2 50 -3q49 -3 150 -3h652v-82q0 -35 1 -76.5t5 -76.5h-52l-8 57q-4 25 -13 45.5t-29 34.5t-54 21.5t-88 7.5h-322v-582h238q54 0 90 5.5 t58.5 18t33.5 32.5t15 48l8 56h51q-2 -27 -3 -59q-2 -27 -2.5 -62.5t-0.5 -73.5q0 -91 3 -142q1 -30 3 -52h-51l-8 55q-4 28 -15 48t-33.5 32.5t-58.5 18t-90 5.5h-238v-532q0 -54 15 -75t55 -21h223q50 0 89 3.5t68 16.5t49 38t32 67l18 69h45q-4 -36 -7 -76 q-3 -35 -5 -79.5t-2 -92.5v-16h-666q-40 0 -77 -0.5t-66 -1.5q-33 -1 -63 -2z" />
<glyph unicode="F" horiz-adv-x="1006" d="M66 -4v39l55 12q33 8 51.5 19.5t27.5 27.5t11 36t2 44v1106q0 24 -3.5 39.5t-11.5 25.5t-21.5 15.5t-33.5 9.5l-77 14v41q21 -2 50 -3q49 -3 150 -3h652v-82q0 -35 1 -76.5t5 -76.5h-52l-8 57q-4 25 -13 45.5t-29 34.5t-54 21.5t-88 7.5h-322v-582h238q54 0 90 5.5 t58.5 18t33.5 32.5t15 48l8 56h51q-2 -27 -3 -59q-2 -27 -2.5 -62.5t-0.5 -73.5q0 -91 3 -142q1 -30 3 -52h-51l-8 55q-4 28 -15 48t-33.5 32.5t-58.5 18t-90 5.5h-238v-526q0 -36 6 -57.5t20.5 -34t39.5 -19t63 -12.5l80 -12v-41q-37 2 -77 4q-35 2 -77.5 3t-86.5 1 q-42 0 -88 -1t-84 -3q-45 -2 -88 -4z" />
<glyph unicode="G" horiz-adv-x="1364" d="M98 688q0 131 25.5 250.5t81.5 210.5q91 151 234.5 222t338.5 71q99 0 171 -14.5t120 -31.5q55 -20 94 -46q-1 -16 -2 -37q-1 -18 -1.5 -44t-0.5 -59q0 -32 0.5 -54.5t1.5 -36.5q1 -17 2 -27h-49l-10 57q-4 19 -9 42.5t-17.5 47t-34 46.5t-57 40.5t-87.5 28t-125 10.5 q-128 0 -226 -46t-164 -130.5t-100 -204t-34 -266.5q0 -78 8.5 -157t29 -152t56.5 -136.5t90.5 -111t130.5 -74.5t178 -27q70 0 121 6t83 14q38 9 63 21v385q0 24 -3.5 39.5t-11.5 25.5t-21.5 15.5t-33.5 9.5l-78 15v41q29 -2 62 -4q29 -2 66.5 -3t82.5 -1q42 0 83 1t74 3 q39 2 73 4v-39l-56 -12q-33 -8 -51.5 -19.5t-27.5 -27.5t-11 -36t-2 -44v-381q-42 -26 -101 -45q-51 -17 -126 -31t-178 -14q-176 0 -300 53t-202 147t-114 223.5t-36 282.5z" />
<glyph unicode="H" horiz-adv-x="1393" d="M66 -4v39l55 12q33 8 51.5 19.5t27.5 27.5t11 36t2 44v1106q0 24 -3.5 39.5t-11.5 25.5t-21.5 15.5t-33.5 9.5l-77 14v41q28 -2 61 -4q29 -2 67 -3t82 -1q42 0 83 1t74 3q39 2 73 4v-39l-55 -12q-33 -8 -52 -19.5t-28 -27t-11 -35.5t-2 -45v-473h676v506q0 24 -3.5 39.5 t-11.5 25.5t-21 15.5t-33 9.5l-78 14v41q29 -2 62 -4q29 -2 66.5 -3t82.5 -1q42 0 82.5 1t73.5 3q38 2 73 4v-39l-55 -12q-33 -8 -51.5 -19.5t-27.5 -27t-11 -35.5t-2 -45v-1106q0 -47 14.5 -65t54.5 -25l78 -14v-41q-29 2 -62 4q-29 2 -67 3t-82 1q-42 0 -83 -1t-73 -3 q-39 -2 -73 -4v39l55 12q33 8 51.5 19.5t27.5 27.5t11 36t2 44v516h-676v-549q0 -47 15 -65t55 -25l78 -14v-41q-29 2 -62 4q-29 2 -67 3t-82 1q-42 0 -83 -1t-73 -3q-38 -2 -73 -4z" />
<glyph unicode="I" horiz-adv-x="571" d="M66 -4v39l55 12q33 8 51.5 19.5t27.5 27.5t11 36t2 44v1106q0 24 -3.5 39.5t-11.5 25.5t-21.5 15.5t-33.5 9.5l-77 14v41q28 -2 61 -4q29 -2 67 -3t82 -1q42 0 83 1t74 3q39 2 73 4v-39l-55 -12q-33 -8 -52 -19.5t-28 -27t-11 -35.5t-2 -45v-1106q0 -47 15 -65t55 -25 l78 -14v-41q-29 2 -62 4q-29 2 -67 3t-82 1q-42 0 -83 -1t-73 -3q-38 -2 -73 -4z" />
<glyph unicode="J" horiz-adv-x="569" d="M-92 92q0 10 2.5 24t10 27t22 22t39.5 9q24 0 39.5 -6t23.5 -17t11 -25.5t3 -31.5q0 -31 21.5 -42t50.5 -11q31 0 50.5 10.5t30 30.5t14 49.5t3.5 67.5v1081q0 24 -3.5 39.5t-11.5 25.5t-21 15.5t-33 9.5l-78 14v41q29 -2 62 -4q29 -2 66.5 -3t82.5 -1q42 0 82.5 1 t73.5 3q38 2 73 4v-39l-55 -12q-33 -8 -51.5 -19.5t-27.5 -27t-11 -35.5t-2 -45v-971q0 -30 -2 -63.5t-10.5 -65.5t-25.5 -62t-47.5 -52t-76 -35.5t-111.5 -13.5q-32 0 -66.5 4t-63 15.5t-46.5 32.5t-18 56z" />
<glyph unicode="K" horiz-adv-x="1104" d="M66 -4v39l55 12q33 8 51.5 19.5t27.5 27.5t11 36t2 44v1106q0 24 -3.5 39.5t-11.5 25.5t-21.5 15.5t-33.5 9.5l-77 14v41q28 -2 61 -4q29 -2 67 -3t82 -1q42 0 83 1t74 3q39 2 73 4v-39l-55 -12q-33 -8 -52 -19.5t-28 -27t-11 -35.5t-2 -45v-510l447 492q20 21 31.5 36 t17.5 26t8 18.5t2 15.5q0 23 -14 37q-11 11 -30.5 15t-35.5 7v41q19 -2 48 -4q25 -2 63.5 -3t93.5 -1q48 0 81.5 1t54.5 3q25 2 40 4v-41l-45 -10q-9 -2 -25 -7.5t-37 -17.5t-47 -32t-55 -51l-467 -500l469 -600q24 -30 43.5 -51t36.5 -35.5t33 -22t33 -10.5l51 -10v-41 q-13 1 -35 3q-19 1 -49 2t-74 1q-17 0 -32.5 -0.5t-28.5 -0.5q-15 -1 -29 -1l-549 715v-574q0 -47 15 -65t55 -25l78 -14v-41q-29 2 -62 4q-29 2 -67 3t-82 1q-42 0 -83 -1t-73 -3q-38 -2 -73 -4z" />
<glyph unicode="L" horiz-adv-x="993" d="M66 -4v39l55 12q33 8 51.5 19.5t27.5 27.5t11 36t2 44v1108q0 23 -3.5 38t-12 25t-22 15.5t-32.5 9.5l-77 14v41q36 -2 76 -4q34 -2 76 -3t87 -1q52 0 99.5 1t83.5 3q42 2 79 4v-41l-82 -12q-38 -5 -62.5 -11.5t-38.5 -19t-20 -34.5t-6 -58v-1083q0 -54 15 -75t55 -21 h203q50 0 89 3.5t68 16.5t49 38t31 67l19 69h45q-4 -36 -7 -76q-3 -35 -5 -79.5t-2 -92.5v-16h-646q-40 0 -77 -0.5t-66 -1.5q-33 -1 -63 -2z" />
<glyph unicode="M" horiz-adv-x="1602" d="M66 -4v39l55 12q33 8 51.5 19.5t27.5 27.5t11 36t2 44v1106q0 24 -3.5 39.5t-11.5 25.5t-21.5 15.5t-33.5 9.5l-77 14v41q21 -2 48 -4q23 -2 57 -3t79 -1q63 0 95 3q18 1 32 3l389 -1097q23 -71 31 -102q4 -18 6 -31q4 17 10 38q5 18 13 43t20 56l401 1093q11 -1 29 -2 q14 -1 36.5 -1.5t53.5 -0.5q83 0 127 3q26 1 43 3v-39l-55 -12q-33 -8 -51.5 -19.5t-27.5 -27t-11 -35.5t-2 -45v-1106q0 -47 14.5 -65t54.5 -25l78 -14v-41q-29 2 -62 4q-29 2 -67 3t-82 1q-42 0 -82 -1t-72 -3q-37 -2 -71 -4v39l55 12q33 8 51.5 19.5t27.5 27.5t11 36 t2 44v1055q-4 -25 -11 -55q-6 -26 -15 -59t-23 -71l-385 -1044h-76l-366 1038q-14 39 -24.5 74.5t-18.5 61.5q-9 31 -15 57v-1090q0 -47 15 -65t55 -25l78 -14v-41q-23 2 -52 4q-25 2 -60 3t-79 1q-42 0 -78.5 -1t-64.5 -3q-33 -2 -61 -4z" />
<glyph unicode="N" horiz-adv-x="1358" d="M66 -4v39l55 12q33 8 51.5 19.5t27.5 27.5t11 36t2 44v1106q0 24 -3.5 39.5t-11.5 25.5t-21.5 15.5t-33.5 9.5l-77 14v41q22 -2 50 -4q24 -2 58.5 -3t79.5 -1q62 0 89 3q16 1 26 3l602 -993q23 -39 41.5 -72t31.5 -57q15 -28 25 -51v1030q0 24 -3.5 39.5t-11.5 25.5 t-21.5 15.5t-33.5 9.5l-77 14v41q22 -2 51 -4q25 -2 59.5 -3t79.5 -1q42 0 79 1t65 3q33 2 61 4v-39l-55 -12q-33 -8 -51.5 -19.5t-28 -27t-11.5 -35.5t-2 -45v-1251h-98l-649 1071q-30 49 -51 86.5t-34 62.5q-15 29 -24 50v-1125q0 -47 15 -65t55 -25l78 -14v-41 q-23 2 -52 4q-25 2 -60 3t-79 1q-42 0 -78.5 -1t-64.5 -3q-33 -2 -61 -4z" />
<glyph unicode="O" horiz-adv-x="1343" d="M98 680q0 185 39 327.5t113 239t180 146t240 49.5q136 0 243 -46t181 -135t112.5 -219.5t38.5 -298.5q0 -185 -39 -327t-113 -238.5t-180 -146t-239 -49.5q-137 0 -244 46t-181 134.5t-112.5 219t-38.5 298.5zM250 705q0 -176 30.5 -299t86 -200t134 -112t173.5 -35 q35 0 79.5 7t91 30t91.5 66.5t80 117t56.5 181t21.5 258.5q0 176 -30.5 298.5t-86 199.5t-134 112t-173.5 35q-35 0 -79.5 -7t-91.5 -30t-91.5 -66t-79.5 -116.5t-56.5 -181t-21.5 -258.5z" />
<glyph unicode="P" horiz-adv-x="1024" d="M66 -4v39l55 12q33 8 51.5 19.5t27.5 27.5t11 36t2 44v1106q0 24 -3.5 39.5t-11.5 25.5t-21.5 15.5t-33.5 9.5l-77 14v41q21 -2 50 -4q25 -2 62 -3t88 -1q36 0 65 0.5t56.5 1.5t57 1.5t67.5 0.5q54 0 98.5 -3t82 -9.5t68.5 -17t60 -25.5q41 -21 71.5 -55t50.5 -76.5 t30 -93t10 -105.5q0 -102 -25.5 -173.5t-66.5 -119.5t-91.5 -75.5t-100.5 -42t-93.5 -18t-70.5 -3.5q-42 0 -74.5 2t-55.5 5q-27 3 -49 7v-446q0 -36 6 -57.5t20.5 -34t39.5 -19t63 -12.5l80 -12v-41q-37 2 -79 4q-36 2 -83.5 3t-99.5 1q-42 0 -84 -1t-76 -3q-40 -2 -77 -4z M356 684q18 -3 41 -5q20 -2 46.5 -3.5t58.5 -1.5q73 0 134.5 16t105 55.5t68 106.5t24.5 168q0 103 -27 167.5t-73 100.5t-106 49t-126 13h-146v-666z" />
<glyph unicode="Q" horiz-adv-x="1343" d="M98 680q0 185 39 327.5t113 239t180 146t240 49.5q136 0 243 -46t181 -135t112.5 -219.5t38.5 -298.5q0 -172 -34 -306t-97.5 -229.5t-155.5 -150.5t-208 -69q29 -19 70.5 -44t90.5 -47t103.5 -37.5t109.5 -15.5q42 0 74 7t53 16q25 11 43 24l23 -30q-23 -35 -59 -62 q-31 -23 -80 -42t-119 -19q-78 0 -152.5 27t-140.5 66t-120.5 83t-92.5 78q-109 19 -194 73t-143 141t-88 206t-30 268zM250 705q0 -176 30.5 -299t86 -200t134 -112t173.5 -35q35 0 79.5 7t91 30t91.5 66.5t80 117t56.5 181t21.5 258.5q0 176 -30.5 298.5t-86 199.5 t-134 112t-173.5 35q-35 0 -79.5 -7t-91.5 -30t-91.5 -66t-79.5 -116.5t-56.5 -181t-21.5 -258.5z" />
<glyph unicode="R" horiz-adv-x="1110" d="M66 -4v39l55 12q33 8 51.5 19.5t27.5 27.5t11 36t2 44v1106q0 24 -3.5 39.5t-11.5 25.5t-21.5 15.5t-33.5 9.5l-77 14v41q21 -2 50 -4q25 -2 62 -3t88 -1q36 0 61.5 0.5t48.5 1.5t49 1.5t64 0.5q55 0 100 -2.5t83 -8.5t70 -16.5t61 -25.5q81 -43 120.5 -118.5 t39.5 -180.5q0 -110 -37 -185t-97 -121.5t-134.5 -66.5t-149.5 -20l393 -510q46 -60 78.5 -86.5t66.5 -32.5l52 -10v-41q-13 1 -35 3q-19 1 -49 2t-74 1q-17 0 -32.5 -0.5t-28.5 -0.5q-15 -1 -29 -1l-531 702v-561q0 -47 15 -65t55 -25l78 -14v-41q-29 2 -62 4q-29 2 -67 3 t-82 1q-41 0 -81.5 -1t-72.5 -3q-38 -2 -73 -4zM356 733h136q58 0 115.5 12t103 47t74 98.5t28.5 166.5q0 99 -26 157t-70.5 88.5t-104 39t-125.5 8.5h-131v-617z" />
<glyph unicode="S" horiz-adv-x="999" d="M92 338h49l13 -59q12 -59 34 -101t59.5 -68.5t93 -38.5t134.5 -12q40 0 90.5 9.5t95 37.5t75 79.5t30.5 136.5q0 66 -17.5 111t-45 77.5t-62 55.5t-68.5 44l-180 115q-47 30 -94 63.5t-85 77.5t-61.5 102t-23.5 136q0 62 19.5 122.5t65.5 108.5t122 77.5t190 29.5 q78 0 139.5 -14.5t104.5 -31.5q50 -20 88 -46q-1 -16 -2 -37q-1 -18 -1.5 -44t-0.5 -59q0 -32 0.5 -54.5t1.5 -36.5q1 -17 2 -27h-49l-10 59q-11 64 -35 105t-59.5 65t-82 33.5t-102.5 9.5q-51 0 -97.5 -13.5t-82 -42t-57 -73t-21.5 -105.5q0 -60 16 -100.5t43 -70.5 t63.5 -54t78.5 -51l170 -109q44 -27 91.5 -59t86.5 -75.5t64.5 -103t25.5 -142.5q0 -94 -29.5 -165.5t-85.5 -120t-137 -73t-184 -24.5q-91 0 -157 13t-111 30q-52 18 -88 43v20q0 47 -3 92t-6 80q-4 41 -8 78z" />
<glyph unicode="T" horiz-adv-x="1087" d="M20 1161q1 10 2 27q1 14 2 37t1 55q0 33 -1 58.5t-2 43.5q-1 21 -2 37h1047q-1 -16 -2 -37q-1 -18 -1.5 -43.5t-0.5 -58.5q0 -32 0.5 -55t1.5 -37q1 -17 2 -27h-49l-10 60q-6 32 -14 56.5t-27 40.5t-51.5 24t-86.5 8h-213v-1178q0 -36 5 -58t18 -34.5t35 -19t57 -11.5 l76 -12v-41q-39 2 -80 4q-35 2 -79.5 3t-88.5 1q-42 0 -90 -1t-90 -3l-98 -4v39l92 18q33 7 52.5 18t29.5 26t13 35t3 44v1174h-213q-54 0 -86.5 -8t-51 -24t-27 -40.5t-13.5 -56.5l-10 -60h-50z" />
<glyph unicode="U" horiz-adv-x="1372" d="M53 1384v41q29 -2 62 -4q29 -2 66.5 -3t82.5 -1q42 0 83 1t74 3q39 2 73 4v-39l-56 -12q-33 -8 -51.5 -19.5t-27.5 -27t-11 -35.5t-2 -45v-772q0 -48 2.5 -97.5t13 -95.5t32.5 -87t60.5 -71t97 -47.5t142.5 -17.5q90 0 151.5 18t101.5 49t61.5 72.5t31.5 89.5t11.5 99 t1.5 102v791q0 24 -3.5 39.5t-11.5 25.5t-21.5 15.5t-33.5 9.5l-78 14v41q26 -2 58 -4q27 -2 63.5 -3t81.5 -1q42 0 79 1t66 3q33 2 62 4v-39l-55 -12q-33 -8 -52 -19.5t-28 -27t-11 -35.5t-2 -45v-639q0 -86 -1.5 -154.5t-10 -125.5t-26.5 -104.5t-50 -90.5 q-62 -83 -158 -117t-229 -34q-138 0 -235 30.5t-160 106.5q-32 37 -51 83t-29 101t-13 119t-3 139v719q0 24 -3.5 39.5t-11.5 25.5t-21.5 15.5t-33.5 9.5z" />
<glyph unicode="V" horiz-adv-x="1190" d="M-23 1384v41q23 -2 52 -4q25 -2 58 -3t75 -1q49 0 87.5 1t64.5 3q31 2 53 4v-41q-11 -2 -25 -4t-28 -5.5t-26.5 -8t-19.5 -10.5q-9 -10 -14.5 -20t-5.5 -31q0 -12 3.5 -28t8.5 -33t10.5 -32t8.5 -24l278 -819q24 -70 36 -110.5t17 -62.5q6 -26 6 -34q8 26 19 59 q9 28 21.5 66.5t29.5 85.5l289 827q4 10 8.5 24t8.5 29t6.5 29.5t2.5 26.5q0 24 -12 41q-14 17 -43.5 22.5t-60.5 11.5v41q22 -2 50 -4q23 -2 55.5 -3t70.5 -1q42 0 74 1t53 3q25 2 43 4v-41q-16 -4 -31 -8t-28.5 -11t-25 -17.5t-20.5 -26.5q-11 -19 -17.5 -36.5 t-14.5 -39.5l-447 -1251h-108l-428 1253q-8 22 -16 42.5t-17 37.5q-13 22 -38 35t-63 22z" />
<glyph unicode="W" horiz-adv-x="1851" d="M-12 1384v41q22 -2 50 -4q24 -2 57 -3t75 -1q49 0 86 1t62 3q29 2 49 4v-41q-11 -2 -25 -4t-28 -5.5t-26.5 -8t-19.5 -10.5q-9 -10 -14.5 -20t-5.5 -31q0 -10 3 -26t7 -33.5t8.5 -33t7.5 -24.5l234 -778q20 -71 31 -117t16 -74q5 -33 6 -51q5 22 13 53q7 26 16.5 63.5 t23.5 88.5l295 1046h88l273 -985q20 -72 31.5 -122.5t17.5 -82.5q7 -38 10 -61q5 23 13 54q7 26 16.5 62.5t23.5 84.5l248 831q3 10 7 24t7.5 29t6 29.5t2.5 26.5q0 25 -13 41q-14 17 -43.5 22.5t-60.5 11.5v41q22 -2 50 -4q23 -2 55.5 -3t70.5 -1q42 0 74 1t53 3q25 2 43 4 v-41q-16 -4 -31 -8t-28 -11t-24.5 -17.5t-20.5 -26.5q-6 -9 -9.5 -17l-7 -16t-7 -18t-7.5 -25l-387 -1251h-109l-274 1001q-15 53 -23.5 88.5t-13.5 58.5q-5 26 -8 42q-3 -16 -9 -42q-5 -22 -14.5 -57t-23.5 -86l-287 -1005h-109l-370 1253q-5 16 -8.5 27.5t-7 20.5 t-7.5 16.5t-8 15.5q-12 22 -37.5 35t-62.5 22z" />
<glyph unicode="X" horiz-adv-x="1182" d="M-25 -4v41q47 8 71 22.5t36 26.5q11 11 21 22.5t21.5 27.5t26 37.5t35.5 53.5l330 508l-297 457q-21 31 -35.5 53.5t-25.5 39t-21 28t-20 22.5q-6 6 -14.5 13t-20.5 13.5t-29.5 12t-42.5 10.5v41q24 -2 54 -4q26 -2 62 -3t81 -1t83.5 1t67.5 3q33 2 62 4v-41q-5 0 -16 -1 t-23.5 -4t-25 -7.5t-19.5 -11.5q-11 -11 -15 -21.5t-4 -21.5q0 -25 15 -49t37 -58l239 -366l232 366q21 34 33 58t12 47q0 11 -3 21.5t-14 21.5q-8 7 -20 12t-25 8t-24 4t-17 2v41q27 -2 59 -4q26 -2 60.5 -3t69.5 -1q45 0 78 1t56 3q26 2 44 4v-41q-47 -8 -70.5 -22 t-36.5 -27q-11 -11 -20.5 -22.5t-21.5 -27t-26.5 -38t-35.5 -53.5l-279 -430l351 -535q21 -32 35 -54t25.5 -38t21 -28t20.5 -23q6 -6 14 -12.5t20.5 -13.5t30 -13t42.5 -10v-41q-24 2 -54 4q-26 2 -62 3t-81 1t-83.5 -1t-67.5 -3q-33 -2 -62 -4v41q5 0 16 1t23.5 4 t24.5 7.5t20 11.5q11 11 14.5 21.5t3.5 21.5q0 25 -14.5 49t-36.5 58l-291 444l-282 -444q-22 -34 -33.5 -58t-11.5 -47q0 -11 2.5 -21.5t13.5 -21.5q8 -8 20.5 -12.5t25 -7.5t24 -4t16.5 -2v-41q-28 2 -59 4q-26 2 -60 3t-69 1q-45 0 -78.5 -1t-56.5 -3q-26 -2 -46 -4z" />
<glyph unicode="Y" horiz-adv-x="1104" d="M-12 1384v41q24 -2 54 -4q26 -2 61.5 -3t80.5 -1t82.5 1t65.5 3q33 2 59 4v-41q-5 0 -16 -1t-23.5 -4t-24.5 -7.5t-20 -11.5q-11 -11 -14.5 -21.5t-3.5 -21.5q0 -12 2 -23t6.5 -22t11 -24l15.5 -31l262 -523l262 516q15 32 26 56t11 49q0 11 -3 21.5t-14 21.5 q-8 7 -20 12t-25 8t-24 4t-17 2v41q27 -2 57 -4q26 -2 59 -3t69 -1q45 0 76.5 1t51.5 3q24 2 40 4v-41q-47 -8 -71 -22t-36 -27q-22 -21 -41 -54.5t-39 -74.5l-315 -602v-432q0 -36 5 -58t17.5 -34.5t35 -19t57.5 -11.5l75 -12v-41q-41 2 -85 4q-38 2 -83.5 3t-89.5 1 q-42 0 -88.5 -1t-86.5 -3q-47 -2 -93 -4v39l92 18q33 7 52.5 18t29.5 26t13 35t3 44v412l-335 661q-8 15 -14 26t-12 21t-13.5 19t-18.5 20q-12 13 -34.5 26.5t-71.5 22.5z" />
<glyph unicode="Z" horiz-adv-x="1112" d="M51 0v55l828 1295h-514q-54 0 -86.5 -8t-51.5 -24t-27 -40.5t-14 -56.5l-10 -60h-49q1 10 2 27q1 14 1.5 37t0.5 55t-0.5 57.5t-1.5 43.5q-1 21 -2 38h924v-59l-830 -1290h527q50 0 89 3.5t68 16.5t48.5 38t31.5 67l19 69h45q-4 -36 -8 -76q-3 -35 -5 -79.5t-2 -92.5v-16 h-983z" />
<glyph unicode="[" horiz-adv-x="651" d="M164 -471v2048h323v-84h-196v-1880h196v-84h-323z" />
<glyph unicode="\" horiz-adv-x="711" d="M76 1577h117l518 -1939h-115z" />
<glyph unicode="]" horiz-adv-x="651" d="M164 -387h196v1880h-196v84h323v-2048h-323v84z" />
<glyph unicode="^" horiz-adv-x="1141" d="M82 479l450 1073h72l455 -1073h-139l-353 867l-348 -867h-137z" />
<glyph unicode="_" horiz-adv-x="1024" d="M0 -162h1024v-80h-1024v80z" />
<glyph unicode="`" horiz-adv-x="651" d="M102 1393q0 16 5.5 31t15.5 27t23.5 19t29.5 7q25 0 45.5 -11t38.5 -28l289 -252l-17 -29l-364 160q-29 12 -47.5 31t-18.5 45z" />
<glyph unicode="a" horiz-adv-x="1042" d="M111 260q0 74 20 125t54 85t78.5 52.5t95 28.5t103 13.5t101.5 6.5l129 9v206q0 36 -2.5 70t-17.5 62q-17 29 -53 49t-101 20q-48 0 -80 -9.5t-51.5 -27t-28 -41.5t-8.5 -53q0 -40 -16 -68t-62 -28q-43 0 -61 20.5t-18 59.5q0 59 31 99t78.5 64.5t105 35t110.5 10.5 q96 0 156 -21t94 -55q23 -23 36 -51t20 -58t8.5 -62t1.5 -63v-526q0 -65 14 -96t61 -31q18 0 32 3t23 7q11 4 19 10l18 -26q-19 -27 -45 -48q-23 -18 -55 -33t-74 -15q-47 0 -73 16t-38.5 40.5t-15 54t-2.5 57.5q-22 -47 -61 -84q-17 -16 -38.5 -31t-48.5 -27t-60 -19 t-72 -7q-68 0 -117.5 14.5t-83.5 38t-55 53.5t-32 60.5t-15 59t-4 50.5zM260 272q0 -25 6.5 -59t28.5 -64.5t62 -51.5t108 -21q46 0 87.5 13t72.5 39t49 64.5t18 88.5v239l-123 -10q-54 -5 -109 -13t-99.5 -31.5t-72.5 -69t-28 -124.5z" />
<glyph unicode="b" horiz-adv-x="1124" d="M51 1477v36l35 7q69 12 116.5 22.5t78.5 18.5q36 10 59 18v-698q26 47 66 84q17 16 39.5 31t50 27t61 19t72.5 7q107 0 182.5 -41.5t123 -111t69.5 -160.5t22 -191q0 -122 -22.5 -211.5t-59.5 -152t-85 -101t-98.5 -60t-100.5 -29t-91 -7.5q-67 0 -116.5 15t-81.5 34 q-38 21 -64 49l-65 -88h-43v1343q0 30 -4 51t-16 36t-34 25.5t-59 18.5zM340 139q15 -21 43 -37q24 -14 64.5 -25t103.5 -11q76 0 136.5 30t102.5 87t64.5 140.5t22.5 190.5q0 117 -20.5 200t-58.5 136.5t-94 78.5t-126 25q-38 0 -80 -11.5t-77 -37t-58 -65.5t-23 -97v-604z " />
<glyph unicode="c" horiz-adv-x="944" d="M98 504q0 127 30 228t86.5 171.5t138.5 108t186 37.5q85 0 147 -16t102 -44t59 -64.5t19 -76.5q0 -47 -21.5 -67.5t-62.5 -20.5q-24 0 -38.5 8.5t-22 22t-10 30.5t-2.5 35q0 37 -12 62t-34 39t-53 20t-69 6q-64 0 -110.5 -22.5t-79 -58.5t-52 -82t-30.5 -93t-15 -91 t-4 -77q0 -46 2 -99t11.5 -105.5t28.5 -101t53 -85.5t84.5 -59.5t123.5 -22.5q76 0 131 17.5t90 38.5q41 25 68 57l28 -27q-31 -53 -80 -94q-21 -18 -48 -34.5t-60.5 -30t-73.5 -21.5t-88 -8q-117 0 -198 40.5t-130.5 111t-71.5 165.5t-22 203z" />
<glyph unicode="d" horiz-adv-x="1130" d="M98 487q0 122 22.5 211.5t59.5 152t85 101.5t98.5 60.5t100.5 29t91 7.5q62 0 105 -12.5t71 -27.5q33 -18 53 -40v368q0 30 -3.5 51t-15.5 36t-34 25.5t-59 18.5l-35 9v36l35 7q69 12 116.5 22.5t78.5 18.5q36 10 59 18v-1397q0 -29 3.5 -49.5t14.5 -35t32.5 -23.5 t57.5 -13l37 -4v-37l-94 -6q-65 -4 -102 -8t-55 -7q-22 -4 -27 -7v168q-27 -49 -68 -88q-35 -33 -92 -60.5t-137 -27.5q-108 0 -183.5 41t-123 110.5t-69.5 160.5t-22 191zM248 518q0 -117 20 -200t58.5 -136.5t94 -78.5t126.5 -25q37 0 79 11.5t77 37t58 65.5t23 97v604 q-15 20 -43 37q-24 14 -64.5 25.5t-103.5 11.5q-76 0 -136 -30t-102 -87.5t-64.5 -141t-22.5 -190.5z" />
<glyph unicode="e" horiz-adv-x="977" d="M98 504q0 71 10.5 139t32 128.5t55 111.5t80 88t106.5 57.5t134 20.5q77 0 146.5 -22t122 -78t83.5 -151t31 -241h-651v-26q0 -39 2 -80q3 -55 13.5 -107.5t31 -99t55.5 -82t86.5 -56t124.5 -20.5q78 0 134 17.5t91 38.5q41 25 68 57l29 -27q-32 -53 -81 -94 q-21 -18 -48 -34.5t-60.5 -30t-74 -21.5t-87.5 -8q-118 0 -200.5 39.5t-134.5 109t-75.5 165t-23.5 206.5zM250 627h495q0 58 -5.5 120.5t-28.5 114t-71 84.5t-132 33q-76 0 -125.5 -29.5t-78.5 -78.5t-41 -112.5t-13 -131.5z" />
<glyph unicode="f" horiz-adv-x="600" d="M74 -4v39l55 12q27 6 44.5 15t28 23t15 35.5t4.5 53.5v780h-129v72h129v209q0 32 2 70t11.5 76t28 73.5t51.5 62.5t82 43.5t120 16.5q40 0 76 -6t63.5 -20t43.5 -36.5t16 -54.5q0 -43 -23.5 -62.5t-54.5 -19.5q-25 0 -40 7.5t-23 19.5t-10.5 27t-2.5 30q0 20 -8.5 31.5 t-20.5 17.5t-25 7.5t-22 1.5q-44 0 -69 -17t-37 -45t-14.5 -63t-2.5 -72v-297h230v-72h-230v-811q0 -40 15.5 -61t58.5 -29l99 -16v-41q-34 2 -72 4q-32 2 -74 3t-86 1q-42 0 -83 -1t-73 -3q-39 -2 -73 -4z" />
<glyph unicode="g" horiz-adv-x="1022" d="M49 -211q0 38 9.5 68.5t25.5 54.5t36 41.5t41 29.5q49 29 113 40q-27 7 -47 25q-18 15 -32.5 41t-14.5 71q0 56 23 93t52 59q33 26 75 38q-58 16 -103 56q-19 17 -37.5 41t-32.5 56.5t-23 74t-9 94.5q0 85 23 154.5t69 119t114.5 76.5t160.5 27q40 0 65.5 -4t48 -8.5 t48 -8.5t65.5 -4h229v-82h-205q34 -21 60 -56q23 -30 42 -79.5t19 -122.5q0 -87 -25 -156t-73 -116t-118 -72t-159 -25q-23 0 -43.5 2t-35.5 5q-18 4 -33 8q-21 -11 -38 -28q-14 -15 -26 -38t-12 -57q0 -35 12.5 -55t31 -29.5t40 -11.5t39.5 -2h252q26 0 58 -2t64 -9 t62 -21.5t53.5 -39.5t37.5 -62.5t14 -91.5q0 -99 -44 -166.5t-115 -109.5t-161 -60t-182 -18q-38 0 -84 3.5t-92 13.5t-89 28t-76 47t-53 70t-20 98zM182 -188q0 -36 9.5 -73.5t40.5 -67.5t90.5 -49t160.5 -19q90 0 156.5 19t110 51.5t65 76t21.5 92.5q0 53 -16 83t-42.5 45 t-59 18.5t-65.5 3.5h-262q-99 0 -154 -48.5t-55 -131.5zM270 678q0 -59 11.5 -113.5t38 -95.5t69.5 -65.5t105 -24.5q65 0 108.5 25.5t69.5 68.5t36.5 98.5t10.5 114.5t-11.5 113t-38 95.5t-69 66t-104.5 24.5q-65 0 -108.5 -26t-69.5 -68.5t-37 -98t-11 -114.5z" />
<glyph unicode="h" horiz-adv-x="1180" d="M61 -4v39l56 12q27 6 44.5 15t28 23t15 35.5t4.5 53.5v1163q0 30 -3.5 51t-15.5 36t-34.5 25.5t-59.5 18.5l-35 9v36l35 7q73 13 122 23.5t78 18.5q34 9 54 17v-690q26 45 69 80q37 30 95.5 55t144.5 25q81 0 136.5 -21t91 -55t54.5 -77.5t27.5 -87.5t9.5 -85.5t1 -71.5 v-512q0 -37 10 -58.5t45 -27.5l92 -16v-41q-28 2 -61 4q-29 2 -66 3t-81 1q-42 0 -81.5 -1t-71.5 -3q-37 -2 -69 -4v39l47 12q27 7 45 16t29.5 23t16 35t4.5 53v481q0 46 -4 99t-26.5 98t-72.5 74.5t-141 29.5q-34 0 -76 -8.5t-79.5 -32.5t-63 -66t-25.5 -108v-602 q0 -37 8.5 -58.5t42.5 -27.5l86 -16v-41q-24 2 -54 4q-26 2 -62 3t-80 1q-42 0 -83 -1t-74 -3q-39 -2 -73 -4z" />
<glyph unicode="i" horiz-adv-x="571" d="M74 -4v39l55 12q27 6 44.5 15t28 23t15 35.5t4.5 53.5v635q0 30 -3.5 52.5t-15.5 38t-34 26t-59 16.5l-35 6v37l37 6q69 11 116.5 21.5t77.5 18.5q35 9 57 16v-908q0 -37 9.5 -58.5t44.5 -27.5l92 -16v-41q-27 2 -60 4q-28 2 -65.5 3t-81.5 1q-42 0 -82.5 -1t-72.5 -3 q-38 -2 -72 -4zM197 1399q0 45 25 71.5t69 26.5q40 0 67 -25t27 -67q0 -45 -25.5 -71.5t-68.5 -26.5q-40 0 -67 25t-27 67z" />
<glyph unicode="j" horiz-adv-x="557" d="M-92 -362q0 10 2.5 23.5t10 26.5t22 22t39.5 9q24 0 39.5 -6t23.5 -16.5t11 -25t3 -31.5q0 -31 21.5 -42.5t50.5 -11.5q31 0 51 10.5t31.5 31t15.5 49.5t4 67v1065q0 30 -3.5 52.5t-15.5 38t-34 26t-59 16.5l-35 6v37l37 6q69 11 116.5 21.5t77.5 18.5q35 9 58 16v-1225 q0 -30 -2 -63.5t-10.5 -66t-25.5 -62t-47.5 -52t-76 -36t-111.5 -13.5q-32 0 -66.5 4t-63 15.5t-46.5 33t-18 56.5zM209 1399q0 45 25.5 71.5t68.5 26.5q40 0 67 -25t27 -67q0 -45 -25.5 -71.5t-68.5 -26.5q-40 0 -67 25t-27 67z" />
<glyph unicode="k" horiz-adv-x="991" d="M61 -4v39l56 12q27 6 44.5 15t28 23t15 35.5t4.5 53.5v1163q0 30 -3.5 51t-15.5 36t-34.5 25.5t-59.5 18.5l-35 9v36l35 7q69 12 117 22.5t79 18.5q36 10 58 18v-1020l287 281q21 21 33 35.5t18 25.5t7 19t1 16q0 23 -14 37q-11 11 -30.5 15t-35.5 7v41q18 -2 47 -4 q25 -2 63 -3t93 -1q48 0 81.5 1t54.5 3q25 2 40 4v-41l-45 -10q-18 -5 -59.5 -27.5t-104.5 -80.5l-307 -289l330 -422q24 -30 43 -51t36 -35.5t33 -22t33 -10.5l52 -10v-41l-42 3q-21 1 -52.5 2t-75.5 1q-17 0 -30 -0.5t-24 -0.5q-12 -1 -22 -1l-410 537v-398q0 -37 9 -58.5 t44 -27.5l93 -16v-41q-27 2 -60 4q-28 2 -65.5 3t-81.5 1q-42 0 -83 -1t-73 -3q-38 -2 -72 -4z" />
<glyph unicode="l" horiz-adv-x="555" d="M61 -4v39l56 12q27 6 44.5 15t28 23t15 35.5t4.5 53.5v1163q0 30 -3.5 51t-15.5 36t-34.5 25.5t-59.5 18.5l-35 9v36l35 7q69 12 117 22.5t79 18.5q36 10 58 18v-1440q0 -37 9 -58.5t44 -27.5l93 -16v-41q-27 2 -60 4q-28 2 -65.5 3t-81.5 1q-42 0 -83 -1t-73 -3 q-38 -2 -72 -4z" />
<glyph unicode="m" horiz-adv-x="1812" d="M74 -4v39l55 12q27 6 44.5 15t28 23t15 35.5t4.5 53.5v633q0 30 -3.5 52.5t-15.5 39t-34 27t-59 16.5l-35 6v37l37 6q69 11 115 21.5t75 18.5q33 9 53 16v-170q25 48 69 86q18 16 42.5 31.5t55.5 27.5t68.5 19.5t82.5 7.5q48 0 86 -8t67 -21.5t50.5 -30t36.5 -34.5 q35 -41 49 -93q28 53 74 94q19 18 44.5 35t57.5 30.5t70.5 21.5t84.5 8q81 0 136.5 -21t91 -55t54.5 -77.5t27.5 -87.5t9.5 -85.5t1 -71.5v-514q0 -37 10 -58.5t45 -27.5l92 -16v-41q-28 2 -61 4q-29 2 -66.5 3t-81.5 1q-42 0 -81 -1t-69 -3q-36 -2 -67 -4v39l43 12 q27 8 45 17t29 23t15.5 34.5t4.5 52.5v488q0 30 -1 63.5t-8 66.5t-21.5 63t-41 53t-68 36.5t-101.5 13.5q-33 0 -75 -9t-79 -32.5t-62.5 -65t-25.5 -106.5v-606q0 -37 8.5 -58.5t42.5 -27.5l82 -16v-41q-22 2 -51 4q-25 2 -60 3t-79 1q-42 0 -81.5 -1t-70.5 -3 q-36 -2 -69 -4v39l43 12q27 8 45 17t29 23t15.5 34.5t4.5 52.5v485q0 30 -1 64t-8 67t-21.5 63t-41.5 53t-68.5 36.5t-101.5 13.5q-33 0 -75 -9t-79 -33t-62.5 -65.5t-25.5 -105.5v-604q0 -37 9 -58.5t43 -27.5l82 -16v-41q-23 2 -52 4q-25 2 -60 3t-79 1q-42 0 -83 -1 t-74 -3q-39 -2 -74 -4z" />
<glyph unicode="n" horiz-adv-x="1192" d="M74 -4v39l55 12q27 6 44.5 15t28 23t15 35.5t4.5 53.5v635q0 30 -3.5 52.5t-15.5 38t-34 26t-59 16.5l-35 6v37l37 6q69 11 115 21.5t75 18.5q33 9 53 16v-173q24 48 67 87q18 16 42.5 32t55.5 28.5t69 20t84 7.5q81 0 136.5 -21t91 -55t54 -77.5t27 -87.5t9.5 -85.5 t1 -71.5v-512q0 -37 10 -58.5t46 -27.5l92 -16v-41q-28 2 -61 4q-29 2 -66.5 3t-81.5 1q-42 0 -81.5 -1t-70.5 -3q-36 -2 -69 -4v39l47 12q27 7 45 16t29 23t15.5 35t4.5 53v481q0 46 -4 99t-26.5 98t-72.5 74.5t-141 29.5q-34 0 -76 -8.5t-79.5 -32.5t-63 -66t-25.5 -108 v-602q0 -37 9 -58.5t43 -27.5l86 -16v-41q-24 2 -55 4q-26 2 -62 3t-80 1q-42 0 -83 -1t-73 -3q-39 -2 -73 -4z" />
<glyph unicode="o" horiz-adv-x="1073" d="M98 502q0 120 27 220t83 173t141 113.5t202 40.5q97 0 175.5 -32.5t134 -98t85 -162.5t29.5 -226q0 -120 -27 -220t-82.5 -172.5t-141 -113t-202.5 -40.5q-98 0 -176 32.5t-133.5 97.5t-85 162t-29.5 226zM248 516q0 -226 70.5 -342.5t218.5 -116.5q151 0 219.5 117.5 t68.5 341.5q0 227 -70 343t-218 116q-152 0 -220.5 -117.5t-68.5 -341.5z" />
<glyph unicode="p" horiz-adv-x="1141" d="M68 -432l55 12q27 6 44.5 15t28 23.5t15 35.5t4.5 53v1102q0 30 -3.5 52.5t-15.5 38t-34.5 26t-59.5 16.5l-34 6v37l36 6q69 11 115.5 21.5t75.5 18.5q33 9 53 16v-177q26 49 67 89q18 17 40.5 33t51 29t63 20.5t75.5 7.5q108 0 183.5 -41.5t123 -111t69 -160.5 t21.5 -191q0 -122 -22.5 -211.5t-59.5 -152t-84.5 -101t-98.5 -60t-100.5 -29t-90.5 -7.5q-62 0 -105.5 12t-71.5 27q-33 18 -53 40v-387q0 -40 15.5 -61t58.5 -29l98 -16v-41q-34 2 -72 4q-32 2 -73.5 3t-85.5 1q-42 0 -83 -1t-73 -3q-38 -2 -73 -4v39zM356 139 q15 -21 43 -37q24 -14 64.5 -25t103.5 -11q76 0 136.5 30t102.5 87t64.5 140.5t22.5 190.5q0 117 -20.5 200t-58.5 136.5t-94 78.5t-126 25q-38 0 -79.5 -11.5t-77 -37t-58.5 -65.5t-23 -97v-604z" />
<glyph unicode="q" horiz-adv-x="1130" d="M98 487q0 122 22.5 211.5t59.5 152t85 101.5t98.5 60.5t100.5 29t91 7.5q67 0 116.5 -15.5t81.5 -34.5q38 -22 64 -49l66 88h43v-1366q0 -37 10 -58.5t45 -27.5l92 -16v-41q-28 2 -61 4q-29 2 -66.5 3t-81.5 1q-42 0 -82.5 -1t-72.5 -3q-38 -2 -72 -4v39l55 12 q27 6 44.5 15t28 23.5t15 35.5t4.5 53v443q-26 -47 -66 -83q-35 -32 -89.5 -57.5t-132.5 -25.5q-108 0 -183.5 41t-123 110.5t-69.5 160.5t-22 191zM248 518q0 -117 20 -200t58.5 -136.5t94 -78.5t126.5 -25q37 0 79 11.5t77 37t58 65.5t23 97v604q-15 20 -43 37 q-24 14 -64.5 25.5t-103.5 11.5q-76 0 -136 -30t-102 -87.5t-64.5 -141t-22.5 -190.5z" />
<glyph unicode="r" horiz-adv-x="756" d="M74 -4v39l55 12q27 6 44.5 15t28 23t15 35.5t4.5 53.5v635q0 30 -3.5 52.5t-15.5 38t-34 26t-59 16.5l-35 6v37l37 6q69 11 115 21.5t75 18.5q33 9 53 16v-189q20 53 54 95q15 18 34 35t43.5 30.5t54.5 22t66 8.5q43 0 72 -11t46 -28.5t24.5 -39.5t7.5 -44q0 -44 -22 -65 t-56 -21q-11 0 -22.5 2t-21 9t-17 20t-9.5 34q-3 26 -23.5 34.5t-54.5 8.5t-64.5 -17.5t-53.5 -49.5t-36.5 -78t-13.5 -103v-557q0 -40 15.5 -61t58.5 -29l99 -16v-41q-34 2 -72 4q-32 2 -74 3t-86 1q-42 0 -83 -1t-73 -3q-39 -2 -73 -4z" />
<glyph unicode="s" horiz-adv-x="885" d="M117 295h45q3 -12 6.5 -24t6.5 -22q4 -11 7 -22q26 -86 81.5 -132t156.5 -46q97 0 150 43.5t53 136.5q0 42 -10.5 71.5t-28.5 50.5t-42.5 37.5t-52.5 33.5l-139 84q-32 19 -67 41.5t-64.5 54t-49 75t-19.5 105.5q0 49 14 97t49.5 85.5t97 61t156.5 23.5q66 0 114 -12 t80 -26q38 -17 64 -38q-1 -16 -2 -34q-1 -15 -1.5 -34t-0.5 -39q0 -23 0.5 -41t1.5 -31q1 -15 2 -26h-49l-10 53q-16 78 -66 121t-147 43q-39 0 -71.5 -10.5t-56 -31.5t-36.5 -53t-13 -75q0 -42 12.5 -72t34 -52.5t50.5 -40t61 -36.5l133 -77q38 -23 71.5 -48t59 -57.5 t40 -73.5t14.5 -96q0 -56 -15.5 -106.5t-53.5 -88.5t-102 -60.5t-161 -22.5q-76 0 -130.5 10.5t-89.5 24.5q-41 16 -69 36v17q0 42 -2.5 81.5t-4.5 71.5q-4 37 -7 70z" />
<glyph unicode="t" horiz-adv-x="676" d="M53 954v39l23 6q46 12 79 34t56.5 54.5t39.5 76.5t28 100l6 28h57v-266h309v-72h-309v-684q0 -29 3 -63t18 -63t47 -48.5t90 -19.5q32 0 58.5 7t45.5 16q22 11 39 24l21 -29q-18 -30 -50 -53q-27 -20 -72 -36.5t-114 -16.5q-81 0 -126.5 25.5t-68 65.5t-27.5 90t-5 99 v686h-148z" />
<glyph unicode="u" horiz-adv-x="1180" d="M53 948v37l37 6q69 11 117 21.5t78 18.5q35 9 57 16v-674q0 -56 5.5 -109t29.5 -94t73 -66.5t136 -25.5q34 0 76 9t79 32.5t62.5 65.5t25.5 108v514q0 30 -3.5 52.5t-15 38.5t-34 26.5t-59.5 17.5l-35 6v37l37 6q69 11 116.5 21.5t77.5 18.5q35 9 58 16v-865 q0 -29 3.5 -49.5t14.5 -35t32.5 -23.5t57.5 -13l37 -4v-37l-94 -6q-65 -4 -102 -8t-55 -7q-22 -4 -27 -7v170q-24 -50 -66 -89q-18 -17 -42.5 -33t-55.5 -28.5t-69.5 -20t-84.5 -7.5q-78 0 -131.5 18.5t-89 49.5t-55.5 70.5t-29.5 81.5t-11.5 83t-2 75v447q0 30 -4 52.5 t-16 38t-34 26t-59 16.5z" />
<glyph unicode="v" horiz-adv-x="922" d="M-2 995v41q19 -2 45 -4q22 -2 53.5 -3t73.5 -1q49 0 82.5 1t54.5 3q25 2 39 4v-41q-22 -3 -45 -9.5t-37 -18.5q-9 -10 -14.5 -20t-5.5 -32q0 -11 3.5 -27.5t8.5 -33t10 -31.5l8 -24l136 -387q24 -71 39.5 -118.5t23.5 -76.5q10 -34 14 -55q7 25 17 57q8 27 21 65t30 85 l160 442q4 10 8.5 24t8.5 29t6.5 29.5t2.5 26.5q0 24 -12 41q-8 10 -23 16.5t-29 10.5q-18 4 -36 7v41q17 -2 40 -4q20 -2 49 -3t67 -1q42 0 71 1t48 3q22 2 36 4v-41q-16 -4 -29.5 -8t-24.5 -10.5t-21 -16.5t-19 -26q-11 -19 -18 -38.5t-15 -39.5l-321 -862h-88l-305 864 q-8 22 -16 42.5t-17 37.5q-6 11 -12.5 19t-15 14.5t-21 12t-31.5 11.5z" />
<glyph unicode="w" horiz-adv-x="1456" d="M10 995v41q17 -2 43 -4q21 -2 52.5 -3t72.5 -1q49 0 82.5 1t54.5 3q25 2 39 4v-41q-21 -3 -44.5 -9.5t-37.5 -18.5q-9 -10 -14.5 -20t-5.5 -32q0 -11 3 -27t7 -32.5t9 -31.5t8 -25l112 -389q20 -72 32.5 -120t18.5 -77q7 -34 9 -53q6 20 15 51q8 26 20 66t30 94l217 661 h58l202 -633q24 -75 37.5 -121.5t21.5 -72.5q8 -31 11 -45q4 20 12 50q7 26 17 65.5t26 93.5l125 432q3 10 7.5 26t9 32.5t7.5 32.5t3 28q0 25 -13 41q-8 10 -23 16.5t-29 10.5q-18 4 -36 7v41q16 -2 40 -4q20 -2 49 -3t67 -1q42 0 71 1t47 3q21 2 34 4v-41 q-29 -6 -52.5 -17.5t-42.5 -43.5q-11 -19 -16.5 -37.5t-11.5 -40.5l-269 -862h-96l-227 708q-7 19 -11.5 37t-8.5 32q-4 17 -7 32q-3 -14 -7 -31q-4 -14 -8.5 -32t-10.5 -38l-232 -708h-100l-248 835q-3 11 -7.5 25.5t-10 29.5t-11 29t-10.5 23q-12 22 -29 36t-51 23z" />
<glyph unicode="x" horiz-adv-x="1028" d="M29 -4v41q35 9 54 23t32 26q10 11 20.5 23t22.5 28t28 37.5t37 52.5l213 305l-192 271q-22 31 -37 53t-27 38.5t-22 28.5t-21 23q-12 13 -31.5 26.5t-54.5 22.5v41q18 -2 44 -4q22 -2 54.5 -3t77.5 -1t80.5 1t61.5 3q30 2 53 4v-41q-14 -2 -27 -6q-11 -3 -22.5 -7.5 t-18.5 -10.5q-11 -11 -14.5 -21.5t-3.5 -21.5q0 -25 15 -50t38 -57l135 -192l129 192q23 34 37.5 58t14.5 49q0 11 -4 21.5t-15 21.5q-7 6 -18.5 10.5t-22.5 7.5q-13 4 -27 6v41q20 -2 45 -4q21 -2 50.5 -3t64.5 -1q45 0 75 1t49 3q22 2 34 4v-41q-35 -9 -54.5 -22.5 t-31.5 -26.5q-11 -11 -21 -22.5t-22.5 -27.5t-28 -38t-37.5 -53l-168 -242l236 -334q21 -31 37 -53l28 -38.5t22.5 -28.5t21.5 -23q12 -12 31 -26t55 -23v-41q-18 2 -44 4q-22 2 -55 3t-78 1t-80.5 -1t-61.5 -3q-30 -2 -54 -4v41q14 2 27 6q11 3 22 7.5t18 10.5 q11 11 15 21.5t4 21.5q0 25 -15 50t-38 57l-181 254l-170 -254q-23 -34 -37 -58t-14 -49q0 -11 4 -21.5t15 -21.5q7 -6 18 -10.5t22 -7.5q12 -4 27 -6v-41q-19 2 -45 4q-22 2 -52 3t-65 1q-45 0 -75 -1t-48 -3q-22 -2 -34 -4z" />
<glyph unicode="y" horiz-adv-x="922" d="M-111 -360q0 10 2.5 23.5t10 26.5t22.5 22t39 9q25 0 40 -6t23.5 -16.5t11.5 -24.5t3 -30q0 -31 21.5 -41.5t50.5 -10.5q51 0 89.5 22.5t69.5 64.5t57.5 103t55.5 138l33 88l-307 850q-8 22 -16 42.5t-17 37.5q-6 11 -12.5 19t-15 14.5t-21 12t-31.5 11.5v41q19 -2 45 -4 q22 -2 53.5 -3t73.5 -1q49 0 82.5 1t54.5 3q25 2 39 4v-41q-22 -3 -45 -9.5t-37 -18.5q-9 -10 -14.5 -20t-5.5 -32q0 -11 3.5 -27.5t8.5 -33t10 -31.5l8 -24l136 -377q25 -70 41 -118.5t24 -78.5q10 -35 14 -57q7 25 17 57q8 27 21 65t30 85l158 436q4 10 8.5 24t8.5 29 t6.5 29.5t2.5 26.5q0 24 -12 41q-8 10 -23 16.5t-29 10.5q-18 4 -36 7v41q17 -2 40 -4q20 -2 49 -3t67 -1q42 0 71 1t48 3q22 2 36 4v-41q-16 -4 -29.5 -8t-24.5 -10.5t-21 -16.5t-19 -26q-11 -19 -18 -38.5t-15 -39.5l-381 -1024q-29 -78 -61.5 -135t-74.5 -95t-96.5 -56.5 t-127.5 -18.5q-32 0 -66.5 4t-63 16t-47 34.5t-18.5 58.5z" />
<glyph unicode="z" horiz-adv-x="946" d="M84 0v51l588 905h-275q-47 0 -82.5 -3t-60 -13.5t-39.5 -31.5t-20 -58l-9 -53h-51q3 35 4 75t2 75v79h695v-43l-584 -913h287q50 0 89 3.5t68 15.5t48.5 36t31.5 65l19 66h45q-4 -33 -8 -72q-3 -33 -5 -76.5t-2 -91.5v-16h-741z" />
<glyph unicode="{" horiz-adv-x="758" d="M68 526v54h20q47 0 82 22t58.5 61t35.5 93.5t12 120.5v432q0 54 5.5 98t29.5 82q23 37 69.5 62.5t129.5 25.5q37 0 72.5 -11t52.5 -24l-17 -43q-12 6 -32 12.5t-47 6.5q-48 0 -74 -18.5t-39 -46.5t-15.5 -59.5t-2.5 -56.5v-460q0 -43 -5 -92t-27 -94.5t-66.5 -82.5 t-123.5 -55q79 -18 123.5 -55t66.5 -82.5t27 -94.5t5 -92v-460q0 -26 2.5 -57t15.5 -59t39 -46.5t74 -18.5q27 0 47 6.5t32 12.5l17 -43q-17 -13 -52 -24t-73 -11q-83 0 -129.5 25.5t-69.5 62.5q-24 38 -29.5 82t-5.5 98v426q0 67 -11 122.5t-34.5 95.5t-59 62.5t-83.5 22.5 h-20z" />
<glyph unicode="|" horiz-adv-x="539" d="M217 -471v2048h105v-2048h-105z" />
<glyph unicode="}" horiz-adv-x="758" d="M123 -436l16 43q13 -6 32.5 -12.5t47.5 -6.5q48 0 74 18.5t39 46.5t15.5 59t2.5 57v460q0 43 5 92t26.5 94.5t66 82.5t123.5 55q-79 18 -123.5 55t-66 82.5t-26.5 94.5t-5 92v460q0 25 -2.5 56.5t-15.5 59.5t-39 46.5t-74 18.5q-28 0 -47.5 -6.5t-32.5 -12.5l-16 43 q16 13 51.5 24t73.5 11q83 0 129 -25.5t69 -62.5q25 -38 30 -82t5 -98v-432q0 -66 12 -120.5t35.5 -93.5t59 -61t82.5 -22h20v-54h-20q-48 0 -84 -22.5t-59 -62.5t-34.5 -95.5t-11.5 -122.5v-426q0 -54 -5 -98t-30 -82q-23 -37 -69 -62.5t-129 -25.5q-37 0 -72.5 11 t-52.5 24z" />
<glyph unicode="~" horiz-adv-x="1430" d="M53 506q4 44 13 87q8 37 20.5 79.5t32.5 79.5q45 80 108 113.5t148 33.5q36 0 72.5 -6.5t73 -17t72 -24t69.5 -26.5l161 -61q49 -18 84 -29.5t61 -18t47 -9t42 -2.5q54 0 97 17t77 54q23 26 40.5 54t29.5 52q14 28 24 56l53 -18q-5 -36 -15 -75q-8 -33 -21 -72.5 t-31 -76.5q-21 -41 -48 -69.5t-59 -45.5t-69.5 -24.5t-79.5 -7.5q-36 0 -73 6.5t-73 17t-71.5 24t-69.5 26.5l-160 61q-49 19 -85 30.5t-63 18t-48.5 8.5t-42.5 2q-56 0 -93 -16.5t-69 -54.5q-23 -28 -41 -60t-30 -60q-14 -33 -25 -65z" />
<glyph d="M-14 502l16 82h141q-2 24 -3 50t-1 54q0 64 6 129h-131l17 82h123q9 68 24.5 128.5t40.5 113.5q68 148 182.5 224.5t288.5 76.5q81 0 142.5 -16t102 -43t61 -62t20.5 -72q0 -40 -21 -63t-61 -23q-24 0 -39.5 8t-24.5 20t-12.5 27t-3.5 29q0 30 -7.5 53.5t-26 39t-51 24 t-83.5 8.5q-88 0 -154 -34t-112.5 -96t-75.5 -149t-43 -194h539l-17 -82h-530q-2 -25 -3 -49.5t-1 -50.5q0 -69 6 -133h481l-16 -82h-457q10 -84 36 -164.5t71 -144.5t110.5 -103t155.5 -39q98 0 137 31.5t39 91.5q0 13 4 28t13 28t25 21.5t40 8.5q40 0 60 -21t20 -67 q0 -41 -23 -75.5t-67 -60t-107 -40t-143 -14.5q-127 0 -219 38.5t-155 107.5t-99 164.5t-49 209.5h-166z" />
<glyph unicode="&#xa1;" horiz-adv-x="532" d="M164 1341q0 51 26 80t74 29t74.5 -27t26.5 -80q0 -51 -26.5 -79.5t-74.5 -28.5t-74 27t-26 79zM176 88q0 7 0.5 19.5t1.5 26.5t1.5 26.5t0.5 19.5l49 926h70l49 -926q0 -7 0.5 -19.5t1.5 -26.5t1.5 -26.5t0.5 -19.5q0 -23 -3.5 -41.5t-13 -31.5t-26.5 -20t-45 -7 q-53 0 -70.5 26.5t-17.5 73.5z" />
<glyph unicode="&#xa2;" d="M131 707q0 118 26 214t76 165.5t121.5 111t163.5 51.5v193h86v-191q76 -3 131.5 -20.5t92 -44.5t54 -62t17.5 -73q0 -47 -22 -67.5t-62 -20.5q-24 0 -39 8.5t-22.5 22t-10 30.5t-2.5 35q0 67 -37 94.5t-100 30.5v-895q71 2 122 20t84 38q39 24 64 54l29 -26 q-27 -45 -69 -84q-36 -33 -92.5 -63.5t-137.5 -39.5v-204h-86v202q-108 6 -181.5 49t-119.5 113t-66 162t-20 197zM283 762q0 -43 2 -91t9 -96.5t22 -94.5t41 -83.5t65.5 -64.5t95.5 -37v885q-52 -10 -89.5 -36t-63.5 -62.5t-42 -79.5t-25 -86.5t-12 -83.5t-3 -70z" />
<glyph unicode="&#xa3;" d="M-102 10q0 26 18 49t48 41t68.5 30t80.5 17q15 25 27 52.5t21.5 60.5t18 74.5t15.5 95.5l34 266h-172v82h183l22 174q5 41 12 93t22.5 106.5t43.5 107t75.5 93t119 65.5t174.5 25q67 0 119 -11.5t87 -25.5q41 -17 72 -37q-1 -16 -1 -37q-1 -18 -1 -43.5v-58.5v-55t1 -37 q0 -17 1 -27h-49l-6 59q-4 37 -15 72t-37 62.5t-70.5 44t-115.5 16.5q-54 0 -93.5 -13.5t-67.5 -36.5t-46.5 -53t-30 -63.5t-18 -68t-10.5 -66.5l-37 -285h354v-82h-364l-21 -159q-6 -51 -15 -94.5t-22.5 -82t-32 -73t-44.5 -66.5q-38 -46 -64 -66t-32 -26q13 7 33.5 13.5 t44.5 11.5t48.5 8.5t47.5 3.5q32 0 61 -4t61 -10l226 -46q26 -5 53 -8.5t49 -3.5q32 0 58 5t48.5 18t43 33.5t43.5 52.5l37 -27q-25 -48 -47.5 -83.5t-53.5 -63.5q-22 -20 -45 -32.5t-45 -19t-43.5 -8.5t-40.5 -2q-42 0 -89 8t-89 17l-313 71q-23 5 -53.5 11t-55.5 6 q-29 -31 -54.5 -52t-48 -34t-43 -19t-40.5 -6q-25 0 -35 13t-10 28z" />
<glyph unicode="&#xa4;" horiz-adv-x="1243" d="M139 338l140 133q-29 38 -47.5 70t-29.5 63t-15.5 63.5t-4.5 71.5q0 37 4.5 69t16 63.5t30 64.5t46.5 72l-140 133l72 67l137 -131q39 26 71 44t63.5 28.5t64.5 15t74 4.5q40 0 73.5 -4.5t65 -15.5t64.5 -29t71 -45l135 133l72 -67l-137 -133q27 -39 45.5 -71.5t30 -64 t16 -63.5t4.5 -70q0 -39 -4.5 -71.5t-15.5 -63.5t-29.5 -63t-46.5 -70l137 -133l-72 -70l-135 129q-38 -26 -71 -43t-64.5 -27.5t-65 -15t-73.5 -4.5t-73.5 4.5t-65 15t-63.5 28t-71 44.5l-137 -131zM311 739q0 -68 24.5 -125.5t66.5 -99.5t99 -66t122 -24q63 0 119 24 t98.5 66t67 99.5t24.5 125.5q0 70 -24.5 128t-67 99t-98.5 64t-119 23q-65 0 -122 -23.5t-99 -65t-66.5 -99t-24.5 -126.5z" />
<glyph unicode="&#xa5;" horiz-adv-x="1104" d="M-12 1384v41q24 -2 54 -4q26 -2 61.5 -3t80.5 -1t82.5 1t65.5 3q33 2 59 4v-41q-5 0 -16 -1t-23.5 -4t-24.5 -7.5t-20 -11.5q-11 -11 -14.5 -21.5t-3.5 -21.5q0 -12 2 -23t6.5 -22t11 -24l15.5 -31l262 -523l262 516q15 32 26 56t11 49q0 11 -3 21.5t-14 21.5 q-8 7 -20 12t-25 8t-24 4t-17 2v41q27 -2 57 -4q26 -2 59 -3t69 -1q45 0 76.5 1t51.5 3q24 2 40 4v-41q-47 -8 -71 -22t-36 -27q-22 -21 -41 -54.5t-39 -74.5l-280 -536h288v-82h-323v-162h323v-82h-323v-172q0 -36 5 -58t17.5 -34.5t35 -19t57.5 -11.5l75 -12v-41 q-41 2 -85 4q-38 2 -83.5 3t-89.5 1q-42 0 -88.5 -1t-86.5 -3q-47 -2 -93 -4v39l92 18q33 7 52.5 18t29.5 26t13 35t3 44v168h-325v82h325v162h-325v82h284l-294 579q-8 15 -14 26t-12 21t-13.5 19t-18.5 20q-12 13 -34.5 26.5t-71.5 22.5z" />
<glyph unicode="&#xa6;" horiz-adv-x="1085" d="M475 332h121v-694h-121v694zM475 715v725h121v-725h-121z" />
<glyph unicode="&#xa7;" horiz-adv-x="1133" d="M174 612q0 50 13 92.5t34 78.5t48 64.5t55 51.5q66 53 151 86l-43 29q-29 19 -56.5 45.5t-48.5 60.5t-33.5 74t-12.5 86q0 54 17.5 107.5t58 95.5t106 68t160.5 26q66 0 117 -12t87 -26q42 -17 74 -38q-1 -16 -2 -34q-1 -15 -1.5 -34t-0.5 -38q0 -23 0.5 -41.5t1.5 -31.5 q1 -15 2 -26h-49l-10 54q-16 77 -74.5 120t-151.5 43q-41 0 -78 -10.5t-65 -34.5t-44.5 -62t-16.5 -93q0 -69 36.5 -120t98.5 -91l215 -144q30 -20 64.5 -48.5t63.5 -67t48.5 -88t19.5 -111.5q0 -50 -13 -92.5t-34.5 -78t-48.5 -64.5t-55 -51q-66 -53 -150 -87l43 -28 q29 -20 56.5 -46.5t48.5 -60.5t34 -74t13 -86q0 -54 -17.5 -107.5t-58 -95.5t-106 -68t-160.5 -26q-66 0 -117.5 12t-87.5 26q-42 17 -74 38q1 16 2 34q1 15 2 34t1 39q0 23 -1 41t-2 31q-1 15 -2 26h50l10 -53q15 -78 73.5 -121t151.5 -43q42 0 79 10.5t65 34.5t44.5 62 t16.5 94q0 69 -36.5 119.5t-98.5 91.5l-215 143q-30 20 -64.5 48.5t-64 67t-49 88t-19.5 111.5zM313 641q0 -36 6.5 -67t23 -59t43.5 -55t69 -54l153 -103q58 30 105 75q20 19 39 43t34 53.5t24 64t9 75.5q0 36 -6.5 67t-22.5 59.5t-43.5 55t-68.5 54.5l-154 102 q-59 -30 -106 -75q-20 -19 -39 -43.5t-33.5 -53.5t-23.5 -64t-9 -75z" />
<glyph unicode="&#xa8;" horiz-adv-x="707" d="M102 1337q0 41 24 64.5t64 23.5q36 0 60 -22.5t24 -63.5q0 -40 -23.5 -64t-64.5 -24q-35 0 -59.5 23t-24.5 63zM432 1337q0 41 24 64.5t64 23.5q35 0 59.5 -22.5t24.5 -63.5q0 -40 -24 -64t-64 -24q-35 0 -59.5 23t-24.5 63z" />
<glyph unicode="&#xa9;" horiz-adv-x="1776" d="M86 645q0 179 59.5 329t166.5 258.5t255.5 169t327.5 60.5q180 0 325 -60t247.5 -167t158 -255t55.5 -325q0 -178 -58 -329t-162.5 -261.5t-250.5 -172.5t-323 -62q-118 0 -223.5 27.5t-194.5 78.5t-160 124t-120.5 163.5t-76 197t-26.5 224.5zM201 645q0 -155 49 -287.5 t139 -230.5t216.5 -153.5t281.5 -55.5q156 0 282 56t215 154.5t137 233.5t48 293q0 153 -47 284t-134 227.5t-212 151t-281 54.5q-159 0 -287.5 -55t-218.5 -152.5t-139 -230.5t-49 -289zM430 637q0 96 19 172.5t57 142.5q63 111 171.5 164t244.5 53q70 0 123.5 -10.5 t89.5 -22.5q42 -14 73 -32q-1 -15 -1 -33q-1 -15 -1 -35.5v-44.5v-40.5t1 -27.5q0 -12 1 -20h-45l-8 45q-5 27 -15 54.5t-35 50t-68.5 37t-114.5 14.5q-87 0 -152.5 -32.5t-109 -92t-65.5 -143t-22 -185.5q0 -51 6 -105t20.5 -105.5t39 -97t61 -79.5t86.5 -54t117 -20 q61 0 103.5 9t72 28.5t47 49.5t27.5 73l10 45h45q-3 -30 -6 -63q-2 -28 -4 -62t-2 -69v-15q-32 -18 -75 -32q-37 -12 -90 -21.5t-122 -9.5q-125 0 -215.5 40.5t-149 110.5t-86.5 163.5t-28 199.5z" />
<glyph unicode="&#xaa;" horiz-adv-x="795" d="M41 811q0 89 36 139t91 74.5t120 31.5t124 11l94 6v152q0 28 -2 54.5t-15 49.5q-7 12 -16 22t-22 17.5t-31 11.5t-43 4q-77 0 -106 -29t-29 -75q0 -32 -14.5 -55t-51.5 -23q-35 0 -51 16.5t-16 47.5q0 51 26 85t65.5 54.5t87 28.5t89.5 8q83 0 133 -17t76 -45 q18 -18 29 -40t16 -46t6.5 -49.5t1.5 -50.5v-420q0 -52 11.5 -77t49.5 -25q14 0 25 2.5t19 5.5q9 4 14 8l16 -20q-19 -22 -42 -39q-20 -15 -47 -27t-60 -12q-38 0 -60.5 11t-34.5 29t-16 40t-4 45q-16 -36 -45 -63q-25 -23 -67.5 -42.5t-108.5 -19.5q-83 0 -132 24.5 t-75 59.5t-33.5 73t-7.5 64zM174 821q0 -21 5.5 -46.5t22.5 -48.5t48.5 -38.5t83.5 -15.5q37 0 68.5 10.5t54.5 31.5t36 51.5t13 70.5v180l-88 -8q-43 -4 -86.5 -11t-78.5 -26t-57 -54t-22 -96z" />
<glyph unicode="&#xab;" horiz-adv-x="889" d="M100 516q0 19 13 39t34 49l238 320h59l-176 -400l176 -413h-63l-242 327q-17 23 -28 41.5t-11 36.5zM459 516q0 19 12.5 39t34.5 49l237 320h60l-176 -400l176 -413h-64l-241 327q-17 23 -28 41.5t-11 36.5z" />
<glyph unicode="&#xac;" horiz-adv-x="1311" d="M47 721v121h1217v-461h-123v340h-1094z" />
<glyph unicode="&#xad;" horiz-adv-x="666" d="M84 479v129h498v-129h-498z" />
<glyph unicode="&#xae;" horiz-adv-x="1784" d="M86 645q0 179 60 329t167.5 258.5t257 169t328.5 60.5q180 0 326 -60t249.5 -167t159.5 -255t56 -325q0 -178 -58.5 -329t-164.5 -261.5t-252.5 -172.5t-323.5 -62t-325 61t-254.5 169.5t-166 258t-59.5 326.5zM205 645q0 -155 49 -287.5t139 -230.5t216.5 -153.5 t281.5 -55.5q156 0 282 56t215 154.5t137 233.5t48 293q0 153 -47 284t-134 227.5t-212 151t-281 54.5q-159 0 -287.5 -55t-218.5 -152.5t-139 -230.5t-49 -289zM516 147v33l39 8q24 6 37 14.5t19.5 20t8 26t1.5 32.5v778q0 34 -10.5 45.5t-39.5 17.5l-55 11v41q20 -2 46 -4 q22 -2 52 -2.5t66 -0.5q25 0 45.5 0.5t40 0.5t40.5 0.5t48 0.5q78 0 130.5 -7.5t92.5 -28.5q59 -31 87 -87.5t28 -132.5q0 -78 -29 -131.5t-74 -86.5t-100.5 -47.5t-109.5 -14.5l280 -359q34 -43 57 -62t48 -24l36 -6v-35q-15 1 -35 2q-17 1 -41.5 2t-56.5 1q-11 0 -23 -0.5 t-21 -0.5q-11 -1 -21 -1l-359 479v-373q0 -34 11.5 -45.5t40.5 -17.5l55 -11v-35q-21 1 -45 2q-21 1 -48 2t-59 1q-29 0 -60.5 -1t-58.5 -2q-32 -1 -63 -2zM743 682h88q42 0 83.5 8t74.5 32t53.5 68t20.5 115q0 68 -18.5 108.5t-50.5 61.5t-74.5 27t-90.5 6h-86v-426z" />
<glyph unicode="&#xaf;" horiz-adv-x="614" d="M0 1241v111h573v-111h-573z" />
<glyph unicode="&#xb0;" horiz-adv-x="778" d="M72 1229q0 66 24.5 124t67.5 100.5t100.5 67.5t122.5 25q67 0 125 -25t101.5 -67.5t68.5 -100.5t25 -124t-25 -124t-68.5 -101t-101.5 -68t-125 -25q-65 0 -122.5 25t-100.5 68t-67.5 101t-24.5 124zM176 1229q0 -45 16 -85t44 -70t67 -48t84 -18t84.5 18t68.5 48 t45.5 70t16.5 85q0 47 -16.5 87t-45.5 69.5t-68.5 46t-84.5 16.5t-84 -16.5t-67 -46t-44 -69.5t-16 -87z" />
<glyph unicode="&#xb1;" horiz-adv-x="1311" d="M47 0v121h1217v-121h-1217zM47 827v121h543v559h131v-559h543v-121h-543v-561h-131v561h-543z" />
<glyph unicode="&#xb2;" horiz-adv-x="721" d="M86 596v78q29 27 62 60q28 28 63.5 65.5t73.5 81.5q32 37 60.5 75.5t49.5 80t33 87t12 97.5q0 30 -5 61t-20.5 56.5t-43.5 42t-74 16.5q-66 0 -103.5 -30.5t-50.5 -102.5l-6 -35h-41q0 12 1 27q0 13 0.5 29t0.5 36t-0.5 36.5t-0.5 27.5q-1 13 -1 24q26 14 61 25 q29 10 72 18t97 8q75 0 123.5 -19t76 -51.5t38.5 -74.5t11 -88q0 -57 -17.5 -106.5t-47 -95t-68.5 -89.5t-82 -90q-23 -25 -43 -45.5t-39 -39.5t-37.5 -36t-37.5 -35h176q30 0 54 2t41.5 9.5t29.5 21.5t18 39l10 41h37q-2 -34 -4 -67q-2 -29 -3 -62t-1 -62v-16h-475z" />
<glyph unicode="&#xb3;" horiz-adv-x="721" d="M53 696l25 29q21 -19 47 -33q23 -13 55.5 -23t75.5 -10q42 0 77 10t60 32t39 55.5t14 81.5q0 55 -18.5 90.5t-47 55.5t-61.5 28t-61 8v53q21 0 50.5 7t56.5 26t46 53.5t19 89.5q0 75 -35 111.5t-100 36.5q-28 0 -53 -6.5t-45 -21t-33.5 -39t-18.5 -60.5l-4 -33h-39 q0 10 1 23q0 11 0.5 26t0.5 35t-0.5 35.5t-0.5 26.5q-1 12 -1 22q24 15 57 27q28 11 66.5 19.5t87.5 8.5q71 0 118 -18t75 -46.5t39.5 -63t11.5 -68.5q0 -36 -9 -64.5t-23 -50.5t-32 -38t-37 -27q-44 -26 -100 -35q27 -2 65 -11t73 -32.5t59.5 -65.5t24.5 -109 q0 -65 -23.5 -111.5t-63 -76.5t-90.5 -44.5t-106 -14.5q-70 0 -116.5 17.5t-74.5 38.5q-33 25 -51 56z" />
<glyph unicode="&#xb4;" horiz-adv-x="651" d="M102 1186l289 252q19 17 39 28t45 11q16 0 29.5 -7t23.5 -19t15.5 -27t5.5 -31q0 -26 -18.5 -45t-47.5 -31l-364 -160z" />
<glyph unicode="&#xb5;" horiz-adv-x="1253" d="M76 -371q22 11 43 26q17 13 36 32t31 45q12 24 18 55t9 62.5t3.5 62.5t0.5 55v725q0 53 -1 90.5t-3.5 63.5t-7.5 43t-12 29q-13 20 -29 29.5t-30 14.5q-17 5 -34 5v34q18 -1 43 0q21 1 52 4t71 11q29 5 48 10t30 10q13 5 21 11l8 -5q-3 -18 -6 -67q-2 -43 -3.5 -124 t-1.5 -220v-175.5t11 -168.5q14 -106 87.5 -160.5t190.5 -54.5q46 0 88.5 10t75.5 23q39 15 72 34v553q0 53 -0.5 90.5t-2.5 63.5t-6.5 43t-13.5 29q-13 19 -28.5 29t-29.5 15q-17 5 -34 5v34q11 -1 29 1q16 2 42.5 4.5t67.5 9.5q29 4 50.5 9t36.5 10q18 5 30 12l6 -5 q-1 -27 -2 -81q-1 -47 -1.5 -126.5t-0.5 -205.5v-387q0 -24 1.5 -50t9.5 -47t25.5 -35t49.5 -14q23 0 35 7q6 4 10 8l21 -21q-17 -30 -41 -53q-20 -20 -50.5 -36.5t-72.5 -16.5q-29 0 -52 10t-39 26.5t-25 39t-9 46.5v9q-16 -16 -45.5 -38.5t-69 -43t-88 -35t-102.5 -14.5 q-66 0 -112 15.5t-75 35.5q-34 22 -55 51v-418q-31 -5 -58.5 -11.5t-58.5 -12.5q-23 -5 -47.5 -12t-44.5 -15q-24 -9 -47 -18z" />
<glyph unicode="&#xb6;" horiz-adv-x="840" d="M61 1030q0 94 32 164.5t93 118.5t149.5 73.5t201.5 28.5q34 2 70.5 1t70.5 1q18 1 34.5 2t28.5 2q14 1 27 2v-39l-55 -12q-29 -6 -47 -15.5t-28 -22.5t-13.5 -29.5t-3.5 -36.5v-1364q0 -45 -7.5 -93t-35 -88t-81.5 -66t-147 -26q-32 0 -67 4t-63.5 16t-47 33t-18.5 56 q0 10 2.5 24t10 27t22 22t38.5 9q25 0 40 -6t23.5 -17t11.5 -25.5t3 -31.5q0 -31 22.5 -42t57.5 -11q32 0 53 11t33 31t16.5 49.5t4.5 67.5v807h-33q-88 0 -161 27.5t-125.5 77t-82 118.5t-29.5 152z" />
<glyph unicode="&#xb7;" horiz-adv-x="420" d="M86 616q0 60 34.5 97t90.5 37q54 0 90.5 -36t36.5 -96q0 -61 -34 -99t-91 -38t-92 35t-35 100z" />
<glyph unicode="&#xb8;" horiz-adv-x="514" d="M162 -385q26 4 50.5 13t44 23t31 33.5t11.5 45.5q0 34 -12.5 53.5t-28.5 36.5q-20 21 -37.5 43t-17.5 59q0 22 7 39t21 39h58q-8 -11 -13.5 -23.5t-5.5 -23.5q0 -25 19 -39.5t45 -34.5q14 -11 29 -23t27 -27.5t20 -35.5t8 -45q0 -54 -31.5 -89.5t-85.5 -55.5 q-32 -13 -67.5 -19t-63.5 -8z" />
<glyph unicode="&#xb9;" horiz-adv-x="598" d="M111 1309v41q16 4 41 12q20 7 51 17.5t73 27.5q15 6 36 15t40 17q22 10 45 21v-758q0 -29 8.5 -39.5t32.5 -15.5l78 -12v-39q-37 1 -73 3q-31 1 -65.5 2t-60.5 1t-56 -1t-57 -2q-32 -2 -63 -3v39l66 12q34 6 47.5 23t13.5 55v580q0 11 -6.5 16.5t-17.5 5.5 q-23 0 -56.5 -5t-76.5 -13z" />
<glyph unicode="&#xba;" horiz-adv-x="848" d="M74 1004q0 96 21.5 176.5t66 138.5t112.5 90.5t162 32.5q78 0 140.5 -26t106.5 -78t67.5 -129.5t23.5 -180.5q0 -96 -21.5 -176.5t-66 -138.5t-112.5 -90.5t-162 -32.5q-78 0 -140.5 26t-106.5 78t-67.5 129.5t-23.5 180.5zM215 1016q0 -81 13 -146t39 -110.5t65 -69.5 t92 -24q54 0 93.5 24.5t65 70t38 110t12.5 145.5t-13 146t-39 110.5t-65 69.5t-92 24q-54 0 -93.5 -24.5t-65 -70t-38 -110t-12.5 -145.5z" />
<glyph unicode="&#xbb;" horiz-adv-x="895" d="M92 121l176 399l-176 414h64l241 -328q17 -23 28 -41t11 -37q0 -18 -12.5 -38.5t-34.5 -49.5l-237 -319h-60zM451 121l176 399l-176 414h63l242 -328q17 -23 28 -41t11 -37q0 -18 -13 -38.5t-34 -49.5l-238 -319h-59z" />
<glyph unicode="&#xbc;" horiz-adv-x="1489" d="M72 1309v41q16 4 41 12q21 7 52 17.5t73 27.5q15 6 35.5 15t39.5 17q22 10 45 21v-758q0 -29 8.5 -39.5t32.5 -15.5l78 -12v-39q-37 1 -73 3q-31 1 -65 2t-60 1t-56.5 -1t-57.5 -2q-32 -2 -63 -3v39l66 12q34 6 47.5 23t13.5 55v580q0 11 -6.5 16.5t-17.5 5.5 q-23 0 -56.5 -5t-76.5 -13zM178 0l1047 1440h104l-1042 -1440h-109zM764 223v70l360 561h146v-547h106v-84h-106v-127q0 -28 9 -39t32 -14l61 -8v-37q-31 1 -63 2q-27 1 -58.5 1.5t-58.5 0.5q-25 0 -53.5 -0.5t-52.5 -1.5l-56 -2v35l53 8q42 6 53 26.5t11 49.5v106h-383z M852 307h295v463q-6 -13 -15 -29q-8 -14 -18 -32.5t-24 -38.5l-199 -305q-8 -13 -15 -23t-12 -18q-6 -9 -12 -17z" />
<glyph unicode="&#xbd;" horiz-adv-x="1489" d="M51 1309v41q16 4 41 12q21 7 52 17.5t73 27.5q15 6 36 15t40 17q22 10 45 21v-758q0 -29 8 -39.5t33 -15.5l78 -12v-39q-37 1 -73 3q-31 1 -65.5 2t-60.5 1t-57 -1t-57 -2q-32 -2 -62 -3v39l65 12q35 6 48.5 23t13.5 55v580q0 22 -25 22q-23 0 -56 -5t-77 -13zM109 0 l1046 1440h105l-1043 -1440h-108zM895 16v78q29 27 62 60q28 28 63.5 65.5t73.5 81.5q32 37 60.5 76t49.5 80.5t33 87t12 96.5q0 30 -5 61t-20.5 56.5t-43.5 42t-74 16.5q-66 0 -103.5 -30.5t-50.5 -102.5l-6 -35h-41q0 12 1 27q0 13 0.5 29t0.5 36t-0.5 36.5t-0.5 27.5 q-1 13 -1 24q26 15 61 26q29 10 72 18t97 8q75 0 123.5 -19.5t76 -51.5t38.5 -74.5t11 -88.5q0 -57 -17.5 -106t-47 -95t-68.5 -90t-82 -90q-23 -24 -43 -45t-39 -39.5t-37.5 -35.5t-37.5 -35h176q30 0 54 2t41.5 9t29.5 21.5t18 38.5l10 41h37q-2 -34 -4 -67 q-2 -29 -3 -61.5t-1 -61.5v-17h-475z" />
<glyph unicode="&#xbe;" horiz-adv-x="1489" d="M47 696l25 29q21 -19 47 -33q23 -13 55.5 -23t75.5 -10q42 0 77 10t60 32t39 55.5t14 81.5q0 55 -18.5 90.5t-47 55.5t-61.5 28t-61 8v53q21 0 50.5 7t56.5 26t46 53.5t19 89.5q0 75 -35 111.5t-100 36.5q-28 0 -53 -6.5t-45 -21t-33.5 -39t-18.5 -60.5l-4 -33h-39 q0 10 1 23q0 11 0.5 26t0.5 35t-0.5 35.5t-0.5 26.5q-1 12 -1 22q24 15 57 27q28 11 66.5 19.5t87.5 8.5q71 0 118 -18t75 -46.5t39.5 -63t11.5 -68.5q0 -36 -9 -64.5t-23 -50.5t-32 -38t-37 -27q-44 -26 -100 -35q27 -2 65 -11t72.5 -32.5t59 -65.5t24.5 -109 q0 -65 -23.5 -111.5t-62.5 -76.5t-90 -44.5t-106 -14.5q-71 0 -117 17.5t-74 38.5q-33 25 -51 56zM223 0l1047 1440h104l-1042 -1440h-109zM803 223v70l360 561h146v-547h106v-84h-106v-127q0 -28 9 -39t32 -14l61 -8v-37q-31 1 -63 2q-27 1 -58.5 1.5t-58.5 0.5 q-25 0 -53.5 -0.5t-52.5 -1.5l-56 -2v35l53 8q42 6 53 26.5t11 49.5v106h-383zM891 307h295v463q-6 -13 -15 -29q-8 -14 -18.5 -32.5t-24.5 -38.5l-198 -305q-8 -13 -15 -23t-12 -18q-6 -9 -12 -17z" />
<glyph unicode="&#xbf;" horiz-adv-x="879" d="M80 326q0 97 30 170t74.5 131t97 107t97 98t74.5 104t30 125v45h86v-68q0 -66 -24.5 -119t-61.5 -101t-80.5 -95t-80.5 -100.5t-61.5 -117.5t-24.5 -145q0 -45 6.5 -97t31.5 -96.5t74.5 -74t134.5 -29.5q63 0 109 13t77.5 40t50.5 67.5t28 95.5l10 59h49q-1 -10 -2 -27 q-1 -14 -1.5 -37t-0.5 -55q0 -33 0.5 -59t1.5 -44q1 -21 2 -36q-33 -26 -81 -46q-41 -17 -101.5 -31.5t-141.5 -14.5q-78 0 -138 14t-104.5 38t-75.5 56.5t-49.5 70t-27 78t-8.5 81.5zM424 1341q0 51 26 80t74 29t74.5 -27t26.5 -80q0 -51 -26.5 -79.5t-74.5 -28.5t-74 27 t-26 79z" />
<glyph unicode="&#xc0;" horiz-adv-x="1200" d="M-43 -4v41q32 7 59 19t45 44q11 19 18 36.5t15 39.5l453 1270h108l435 -1272q8 -22 15.5 -42.5t16.5 -37.5q13 -21 38.5 -34.5t62.5 -22.5v-41q-23 2 -51 4q-24 2 -57.5 3t-74.5 1q-50 0 -87.5 -1t-63.5 -3q-31 -2 -53 -4v41q10 1 24 3.5t28 6t26.5 8.5t19.5 11 q9 9 14.5 19t5.5 32q0 11 -3.5 27.5t-8.5 33t-10 31.5l-8 24l-113 334h-477l-121 -346q-4 -10 -8.5 -24t-8.5 -29t-7 -29.5t-3 -25.5q0 -27 13 -41q14 -17 43.5 -23t60.5 -12v-41q-23 2 -50 4q-23 2 -54.5 3t-69.5 1q-43 0 -74.5 -1t-53.5 -3q-26 -2 -44 -4zM358 643h426 l-131 385q-24 70 -39 118t-24 77q-11 34 -15 55q-7 -25 -17 -57q-8 -27 -21 -65.5t-29 -84.5zM366 1731q0 16 5.5 31t15.5 27t23.5 19t29.5 7q25 0 45.5 -11t38.5 -28l289 -252l-16 -29l-365 160q-29 12 -47.5 31t-18.5 45z" />
<glyph unicode="&#xc1;" horiz-adv-x="1200" d="M-43 -4v41q32 7 59 19t45 44q11 19 18 36.5t15 39.5l453 1270h108l435 -1272q8 -22 15.5 -42.5t16.5 -37.5q13 -21 38.5 -34.5t62.5 -22.5v-41q-23 2 -51 4q-24 2 -57.5 3t-74.5 1q-50 0 -87.5 -1t-63.5 -3q-31 -2 -53 -4v41q10 1 24 3.5t28 6t26.5 8.5t19.5 11 q9 9 14.5 19t5.5 32q0 11 -3.5 27.5t-8.5 33t-10 31.5l-8 24l-113 334h-477l-121 -346q-4 -10 -8.5 -24t-8.5 -29t-7 -29.5t-3 -25.5q0 -27 13 -41q14 -17 43.5 -23t60.5 -12v-41q-23 2 -50 4q-23 2 -54.5 3t-69.5 1q-43 0 -74.5 -1t-53.5 -3q-26 -2 -44 -4zM358 643h426 l-131 385q-24 70 -39 118t-24 77q-11 34 -15 55q-7 -25 -17 -57q-8 -27 -21 -65.5t-29 -84.5zM367 1524l288 252q19 17 39.5 28t44.5 11q16 0 29.5 -7t23.5 -19t15.5 -27t5.5 -31q0 -26 -18 -45t-47 -31l-365 -160z" />
<glyph unicode="&#xc2;" horiz-adv-x="1200" d="M-43 -4v41q32 7 59 19t45 44q11 19 18 36.5t15 39.5l453 1270h108l435 -1272q8 -22 15.5 -42.5t16.5 -37.5q13 -21 38.5 -34.5t62.5 -22.5v-41q-23 2 -51 4q-24 2 -57.5 3t-74.5 1q-50 0 -87.5 -1t-63.5 -3q-31 -2 -53 -4v41q10 1 24 3.5t28 6t26.5 8.5t19.5 11 q9 9 14.5 19t5.5 32q0 11 -3.5 27.5t-8.5 33t-10 31.5l-8 24l-113 334h-477l-121 -346q-4 -10 -8.5 -24t-8.5 -29t-7 -29.5t-3 -25.5q0 -27 13 -41q14 -17 43.5 -23t60.5 -12v-41q-23 2 -50 4q-23 2 -54.5 3t-69.5 1q-43 0 -74.5 -1t-53.5 -3q-26 -2 -44 -4zM289 1520 l268 313q9 11 19 19t24 8q12 0 22 -8t19 -19l266 -313l-22 -25l-287 197l-287 -197zM358 643h426l-131 385q-24 70 -39 118t-24 77q-11 34 -15 55q-7 -25 -17 -57q-8 -27 -21 -65.5t-29 -84.5z" />
<glyph unicode="&#xc3;" horiz-adv-x="1200" d="M-43 -4v41q32 7 59 19t45 44q11 19 18 36.5t15 39.5l453 1270h108l435 -1272q8 -22 15.5 -42.5t16.5 -37.5q13 -21 38.5 -34.5t62.5 -22.5v-41q-23 2 -51 4q-24 2 -57.5 3t-74.5 1q-50 0 -87.5 -1t-63.5 -3q-31 -2 -53 -4v41q10 1 24 3.5t28 6t26.5 8.5t19.5 11 q9 9 14.5 19t5.5 32q0 11 -3.5 27.5t-8.5 33t-10 31.5l-8 24l-113 334h-477l-121 -346q-4 -10 -8.5 -24t-8.5 -29t-7 -29.5t-3 -25.5q0 -27 13 -41q14 -17 43.5 -23t60.5 -12v-41q-23 2 -50 4q-23 2 -54.5 3t-69.5 1q-43 0 -74.5 -1t-53.5 -3q-26 -2 -44 -4zM327 1573 q24 60 51.5 92.5t52 47.5t43 17.5t23.5 2.5q12 0 22.5 -1t22.5 -4t27 -8t35 -14l61 -27q28 -12 51.5 -19t44.5 -7q29 0 56 15.5t53 53.5l22 -14q-24 -60 -51 -92.5t-52 -47.5t-43 -17.5t-24 -2.5q-11 0 -21.5 1t-22.5 4t-27 8t-35 14l-62 27q-27 12 -50.5 19t-45.5 7 q-29 0 -55.5 -15.5t-52.5 -53.5zM358 643h426l-131 385q-24 70 -39 118t-24 77q-11 34 -15 55q-7 -25 -17 -57q-8 -27 -21 -65.5t-29 -84.5z" />
<glyph unicode="&#xc4;" horiz-adv-x="1200" d="M-43 -4v41q32 7 59 19t45 44q11 19 18 36.5t15 39.5l453 1270h108l435 -1272q8 -22 15.5 -42.5t16.5 -37.5q13 -21 38.5 -34.5t62.5 -22.5v-41q-23 2 -51 4q-24 2 -57.5 3t-74.5 1q-50 0 -87.5 -1t-63.5 -3q-31 -2 -53 -4v41q10 1 24 3.5t28 6t26.5 8.5t19.5 11 q9 9 14.5 19t5.5 32q0 11 -3.5 27.5t-8.5 33t-10 31.5l-8 24l-113 334h-477l-121 -346q-4 -10 -8.5 -24t-8.5 -29t-7 -29.5t-3 -25.5q0 -27 13 -41q14 -17 43.5 -23t60.5 -12v-41q-23 2 -50 4q-23 2 -54.5 3t-69.5 1q-43 0 -74.5 -1t-53.5 -3q-26 -2 -44 -4zM350 1675 q0 41 24 64.5t64 23.5q35 0 59.5 -22.5t24.5 -63.5q0 -40 -24 -64t-64 -24q-35 0 -59.5 23t-24.5 63zM358 643h426l-131 385q-24 70 -39 118t-24 77q-11 34 -15 55q-7 -25 -17 -57q-8 -27 -21 -65.5t-29 -84.5zM679 1675q0 41 24 64.5t65 23.5q35 0 59 -22.5t24 -63.5 q0 -40 -23.5 -64t-64.5 -24q-35 0 -59.5 23t-24.5 63z" />
<glyph unicode="&#xc5;" horiz-adv-x="1200" d="M-43 -4v41q32 7 59 19t45 44q11 19 18 36.5t15 39.5l453 1270h108l435 -1272q8 -22 15.5 -42.5t16.5 -37.5q13 -21 38.5 -34.5t62.5 -22.5v-41q-23 2 -51 4q-24 2 -57.5 3t-74.5 1q-50 0 -87.5 -1t-63.5 -3q-31 -2 -53 -4v41q10 1 24 3.5t28 6t26.5 8.5t19.5 11 q9 9 14.5 19t5.5 32q0 11 -3.5 27.5t-8.5 33t-10 31.5l-8 24l-113 334h-477l-121 -346q-4 -10 -8.5 -24t-8.5 -29t-7 -29.5t-3 -25.5q0 -27 13 -41q14 -17 43.5 -23t60.5 -12v-41q-23 2 -50 4q-23 2 -54.5 3t-69.5 1q-43 0 -74.5 -1t-53.5 -3q-26 -2 -44 -4zM358 643h426 l-131 385q-24 70 -39 118t-24 77q-11 34 -15 55q-7 -25 -17 -57q-8 -27 -21 -65.5t-29 -84.5zM393 1696q0 42 15.5 78t42.5 63t64 42t81 15q43 0 80 -14t64.5 -40t43 -62.5t15.5 -81.5q0 -42 -15.5 -78.5t-42.5 -63.5t-64 -42t-81 -15q-43 0 -80 14.5t-64.5 40.5t-43 62.5 t-15.5 81.5zM479 1696q0 -26 8.5 -48t24 -39t37 -26.5t47.5 -9.5q54 0 85.5 35t31.5 88q0 25 -8.5 47.5t-24 39t-37 26.5t-47.5 10q-54 0 -85.5 -35.5t-31.5 -87.5z" />
<glyph unicode="&#xc6;" horiz-adv-x="1565" d="M-98 -4v41q32 8 56.5 20t47.5 41q14 19 26 38.5t23 39.5l627 1243h745q-1 -41 0 -82q1 -35 2 -76.5t5 -76.5h-52l-8 57q-4 25 -13 45.5t-29 34.5t-54 21.5t-88 7.5h-322v-605h238q54 0 90 5.5t58.5 18.5t33.5 32.5t15 48.5l8 55h51q-2 -27 -3 -59q-2 -27 -2.5 -62 t-0.5 -73q0 -91 3 -142q1 -30 3 -53h-51l-8 55q-4 28 -15 48t-33.5 33t-58.5 18.5t-90 5.5h-238v-510q0 -54 15 -75t55 -21h223q50 0 89 3.5t68 16.5t49 38t32 67l18 69h45q-4 -36 -7 -76q-3 -35 -5 -79.5t-2 -92.5v-16h-666q-40 0 -77 -0.5t-66 -1.5q-34 -1 -64 -2v39 l56 12q33 8 51.5 19.5t27.5 27.5t11 36t2 44v502h-313l-226 -457q-12 -26 -25.5 -55.5t-13.5 -52.5t13 -39q14 -17 44.5 -23t61.5 -12v-41q-26 2 -56 4q-26 2 -59 3t-71 1q-43 0 -75 -1t-55 -3q-26 -2 -46 -4zM442 745h281v590q-6 -16 -16 -41q-9 -21 -23 -54t-37 -79z" />
<glyph unicode="&#xc7;" horiz-adv-x="1233" d="M98 688q0 131 24 250.5t77 210.5q85 151 226 222t327 71q96 0 166 -14.5t118 -31.5q55 -20 94 -46q-1 -16 -2 -37q-1 -18 -1.5 -44t-0.5 -59q0 -32 0.5 -54.5t1.5 -36.5q1 -17 2 -27h-49l-10 59q-6 37 -20 74.5t-47.5 68.5t-93.5 50.5t-158 19.5q-122 0 -215.5 -46 t-157 -130.5t-96.5 -204t-33 -266.5q0 -75 8.5 -153t29 -151t55 -137.5t87 -112.5t125 -76t168.5 -28q84 0 144 12t101 38.5t65 68.5t36 101l12 59h49q-4 -37 -8 -78q-3 -35 -5.5 -80t-2.5 -92v-20q-40 -25 -96 -43q-48 -17 -120.5 -30t-170.5 -13q-3 -8 -5.5 -15.5 t-2.5 -13.5q0 -12 5 -21.5t13.5 -18t20 -16.5t24.5 -18q14 -11 29 -23t27 -27.5t20 -35.5t8 -45q0 -54 -31 -89.5t-85 -55.5q-32 -13 -68 -19t-64 -8l-8 39q26 4 51 13t44.5 23t31 33.5t11.5 45.5q0 34 -13 53.5t-28 36.5q-20 21 -38 43t-18 59q0 17 4.5 31.5t14.5 30.5 q-153 8 -261.5 64t-177.5 149t-101 218.5t-32 272.5z" />
<glyph unicode="&#xc8;" horiz-adv-x="1055" d="M66 -4v39l55 12q33 8 51.5 19.5t27.5 27.5t11 36t2 44v1106q0 24 -3.5 39.5t-11.5 25.5t-21.5 15.5t-33.5 9.5l-77 14v41q21 -2 50 -3q49 -3 150 -3h652v-82q0 -35 1 -76.5t5 -76.5h-52l-8 57q-4 25 -13 45.5t-29 34.5t-54 21.5t-88 7.5h-322v-582h238q54 0 90 5.5 t58.5 18t33.5 32.5t15 48l8 56h51q-2 -27 -3 -59q-2 -27 -2.5 -62.5t-0.5 -73.5q0 -91 3 -142q1 -30 3 -52h-51l-8 55q-4 28 -15 48t-33.5 32.5t-58.5 18t-90 5.5h-238v-532q0 -54 15 -75t55 -21h223q50 0 89 3.5t68 16.5t49 38t32 67l18 69h45q-4 -36 -7 -76 q-3 -35 -5 -79.5t-2 -92.5v-16h-666q-40 0 -77 -0.5t-66 -1.5q-33 -1 -63 -2zM276 1731q0 16 5.5 31t15.5 27t23.5 19t29.5 7q25 0 45.5 -11t38.5 -28l289 -252l-16 -29l-365 160q-29 12 -47.5 31t-18.5 45z" />
<glyph unicode="&#xc9;" horiz-adv-x="1055" d="M66 -4v39l55 12q33 8 51.5 19.5t27.5 27.5t11 36t2 44v1106q0 24 -3.5 39.5t-11.5 25.5t-21.5 15.5t-33.5 9.5l-77 14v41q21 -2 50 -3q49 -3 150 -3h652v-82q0 -35 1 -76.5t5 -76.5h-52l-8 57q-4 25 -13 45.5t-29 34.5t-54 21.5t-88 7.5h-322v-582h238q54 0 90 5.5 t58.5 18t33.5 32.5t15 48l8 56h51q-2 -27 -3 -59q-2 -27 -2.5 -62.5t-0.5 -73.5q0 -91 3 -142q1 -30 3 -52h-51l-8 55q-4 28 -15 48t-33.5 32.5t-58.5 18t-90 5.5h-238v-532q0 -54 15 -75t55 -21h223q50 0 89 3.5t68 16.5t49 38t32 67l18 69h45q-4 -36 -7 -76 q-3 -35 -5 -79.5t-2 -92.5v-16h-666q-40 0 -77 -0.5t-66 -1.5q-33 -1 -63 -2zM326 1524l288 252q19 17 39.5 28t44.5 11q16 0 29.5 -7t23.5 -19t15.5 -27t5.5 -31q0 -26 -18 -45t-47 -31l-365 -160z" />
<glyph unicode="&#xca;" horiz-adv-x="1055" d="M66 -4v39l55 12q33 8 51.5 19.5t27.5 27.5t11 36t2 44v1106q0 24 -3.5 39.5t-11.5 25.5t-21.5 15.5t-33.5 9.5l-77 14v41q21 -2 50 -3q49 -3 150 -3h652v-82q0 -35 1 -76.5t5 -76.5h-52l-8 57q-4 25 -13 45.5t-29 34.5t-54 21.5t-88 7.5h-322v-582h238q54 0 90 5.5 t58.5 18t33.5 32.5t15 48l8 56h51q-2 -27 -3 -59q-2 -27 -2.5 -62.5t-0.5 -73.5q0 -91 3 -142q1 -30 3 -52h-51l-8 55q-4 28 -15 48t-33.5 32.5t-58.5 18t-90 5.5h-238v-532q0 -54 15 -75t55 -21h223q50 0 89 3.5t68 16.5t49 38t32 67l18 69h45q-4 -36 -7 -76 q-3 -35 -5 -79.5t-2 -92.5v-16h-666q-40 0 -77 -0.5t-66 -1.5q-33 -1 -63 -2zM205 1520l268 313q9 11 19 19t24 8q12 0 22 -8t19 -19l266 -313l-22 -25l-287 197l-287 -197z" />
<glyph unicode="&#xcb;" horiz-adv-x="1055" d="M66 -4v39l55 12q33 8 51.5 19.5t27.5 27.5t11 36t2 44v1106q0 24 -3.5 39.5t-11.5 25.5t-21.5 15.5t-33.5 9.5l-77 14v41q21 -2 50 -3q49 -3 150 -3h652v-82q0 -35 1 -76.5t5 -76.5h-52l-8 57q-4 25 -13 45.5t-29 34.5t-54 21.5t-88 7.5h-322v-582h238q54 0 90 5.5 t58.5 18t33.5 32.5t15 48l8 56h51q-2 -27 -3 -59q-2 -27 -2.5 -62.5t-0.5 -73.5q0 -91 3 -142q1 -30 3 -52h-51l-8 55q-4 28 -15 48t-33.5 32.5t-58.5 18t-90 5.5h-238v-532q0 -54 15 -75t55 -21h223q50 0 89 3.5t68 16.5t49 38t32 67l18 69h45q-4 -36 -7 -76 q-3 -35 -5 -79.5t-2 -92.5v-16h-666q-40 0 -77 -0.5t-66 -1.5q-33 -1 -63 -2zM261 1675q0 41 24 64.5t64 23.5q35 0 59.5 -22.5t24.5 -63.5q0 -40 -24 -64t-64 -24q-35 0 -59.5 23t-24.5 63zM590 1675q0 41 24 64.5t65 23.5q35 0 59 -22.5t24 -63.5q0 -40 -23.5 -64 t-64.5 -24q-35 0 -59.5 23t-24.5 63z" />
<glyph unicode="&#xcc;" horiz-adv-x="571" d="M59 1731q0 16 5.5 31t15.5 27t23.5 19t29.5 7q25 0 45.5 -11t38.5 -28l289 -252l-17 -29l-364 160q-29 12 -47.5 31t-18.5 45zM66 -4v39l55 12q33 8 51.5 19.5t27.5 27.5t11 36t2 44v1106q0 24 -3.5 39.5t-11.5 25.5t-21.5 15.5t-33.5 9.5l-77 14v41q28 -2 61 -4 q29 -2 67 -3t82 -1q42 0 83 1t74 3q39 2 73 4v-39l-55 -12q-33 -8 -52 -19.5t-28 -27t-11 -35.5t-2 -45v-1106q0 -47 15 -65t55 -25l78 -14v-41q-29 2 -62 4q-29 2 -67 3t-82 1q-42 0 -83 -1t-73 -3q-38 -2 -73 -4z" />
<glyph unicode="&#xcd;" horiz-adv-x="571" d="M66 -4v39l55 12q33 8 51.5 19.5t27.5 27.5t11 36t2 44v1106q0 24 -3.5 39.5t-11.5 25.5t-21.5 15.5t-33.5 9.5l-77 14v41q28 -2 61 -4q29 -2 67 -3t82 -1q42 0 83 1t74 3q39 2 73 4v-39l-55 -12q-33 -8 -52 -19.5t-28 -27t-11 -35.5t-2 -45v-1106q0 -47 15 -65t55 -25 l78 -14v-41q-29 2 -62 4q-29 2 -67 3t-82 1q-42 0 -83 -1t-73 -3q-38 -2 -73 -4zM72 1524l288 252q19 17 39.5 28t44.5 11q16 0 29.5 -7t23.5 -19t15.5 -27t5.5 -31q0 -26 -18 -45t-47 -31l-365 -160z" />
<glyph unicode="&#xce;" horiz-adv-x="571" d="M-16 1520l268 313q9 11 19 19t24 8q12 0 22 -8t19 -19l266 -313l-22 -25l-287 197l-287 -197zM66 -4v39l55 12q33 8 51.5 19.5t27.5 27.5t11 36t2 44v1106q0 24 -3.5 39.5t-11.5 25.5t-21.5 15.5t-33.5 9.5l-77 14v41q28 -2 61 -4q29 -2 67 -3t82 -1q42 0 83 1t74 3 q39 2 73 4v-39l-55 -12q-33 -8 -52 -19.5t-28 -27t-11 -35.5t-2 -45v-1106q0 -47 15 -65t55 -25l78 -14v-41q-29 2 -62 4q-29 2 -67 3t-82 1q-42 0 -83 -1t-73 -3q-38 -2 -73 -4z" />
<glyph unicode="&#xcf;" horiz-adv-x="571" d="M41 1675q0 41 24 64.5t64 23.5q35 0 59.5 -22.5t24.5 -63.5q0 -40 -24 -64t-64 -24q-35 0 -59.5 23t-24.5 63zM66 -4v39l55 12q33 8 51.5 19.5t27.5 27.5t11 36t2 44v1106q0 24 -3.5 39.5t-11.5 25.5t-21.5 15.5t-33.5 9.5l-77 14v41q28 -2 61 -4q29 -2 67 -3t82 -1 q42 0 83 1t74 3q39 2 73 4v-39l-55 -12q-33 -8 -52 -19.5t-28 -27t-11 -35.5t-2 -45v-1106q0 -47 15 -65t55 -25l78 -14v-41q-29 2 -62 4q-29 2 -67 3t-82 1q-42 0 -83 -1t-73 -3q-38 -2 -73 -4zM371 1675q0 41 24 64.5t64 23.5q35 0 59.5 -22.5t24.5 -63.5q0 -40 -24 -64 t-64 -24q-35 0 -59.5 23t-24.5 63z" />
<glyph unicode="&#xd0;" horiz-adv-x="1350" d="M61 692v92h152v496q0 24 -3.5 39.5t-11.5 25.5t-21.5 15.5t-33.5 9.5l-77 14v41q21 -2 50 -4q25 -2 62 -3t88 -1q36 0 64 0.5t54.5 1.5t55 1.5t66.5 0.5q91 0 161 -3.5t126.5 -12.5t103 -26t90.5 -44q134 -83 199 -238t65 -364q0 -120 -18 -222.5t-56.5 -186.5 t-98 -147.5t-142.5 -104.5q-42 -22 -87.5 -36t-98.5 -22.5t-115.5 -12t-138.5 -3.5q-63 0 -119 2t-115 2q-40 0 -75.5 -1t-62.5 -2q-32 -2 -58 -3v39l55 12q33 8 51.5 19.5t27.5 27.5t11 36t2 44v518h-152zM358 170q0 -54 15 -75t55 -21h78q61 0 111 3.5t92 11t77.5 19.5 t67.5 29q60 33 106 87.5t77 128t47 164.5t16 196q0 216 -61.5 363t-180.5 212q-28 15 -58 26t-68 18t-87 10.5t-115 3.5h-172v-562h439v-92h-439v-522z" />
<glyph unicode="&#xd1;" horiz-adv-x="1356" d="M66 -4v39l55 12q33 8 51.5 19.5t27.5 27.5t11 36t2 44v1106q0 24 -3.5 39.5t-11.5 25.5t-21.5 15.5t-33.5 9.5l-77 14v41q22 -2 50 -4q24 -2 58.5 -3t79.5 -1q62 0 89 3q16 1 26 3l602 -993q23 -39 41.5 -72t31.5 -57q15 -28 25 -51v1030q0 24 -3.5 39.5t-11.5 25.5 t-21.5 15.5t-33.5 9.5l-77 14v41q22 -2 51 -4q25 -2 59.5 -3t79.5 -1q42 0 79 1t65 3q33 2 61 4v-39l-55 -12q-33 -8 -51.5 -19.5t-28 -27t-11.5 -35.5t-2 -45v-1251h-98l-649 1071q-30 49 -51 86.5t-34 62.5q-15 29 -24 50v-1125q0 -47 15 -65t55 -25l78 -14v-41 q-23 2 -52 4q-25 2 -60 3t-79 1q-42 0 -78.5 -1t-64.5 -3q-33 -2 -61 -4zM434 1573q24 60 51.5 92.5t52 47.5t43 17.5t23.5 2.5q12 0 22.5 -1t22.5 -4t27 -8t35 -14l61 -27q28 -12 51.5 -19t44.5 -7q29 0 56 15.5t53 53.5l22 -14q-24 -60 -51 -92.5t-52 -47.5t-43 -17.5 t-24 -2.5q-11 0 -21.5 1t-22.5 4t-27 8t-35 14l-62 27q-27 12 -50.5 19t-45.5 7q-29 0 -55.5 -15.5t-52.5 -53.5z" />
<glyph unicode="&#xd2;" horiz-adv-x="1343" d="M98 680q0 185 39 327.5t113 239t180 146t240 49.5q136 0 243 -46t181 -135t112.5 -219.5t38.5 -298.5q0 -185 -39 -327t-113 -238.5t-180 -146t-239 -49.5q-137 0 -244 46t-181 134.5t-112.5 219t-38.5 298.5zM250 705q0 -176 30.5 -299t86 -200t134 -112t173.5 -35 q35 0 79.5 7t91 30t91.5 66.5t80 117t56.5 181t21.5 258.5q0 176 -30.5 298.5t-86 199.5t-134 112t-173.5 35q-35 0 -79.5 -7t-91.5 -30t-91.5 -66t-79.5 -116.5t-56.5 -181t-21.5 -258.5zM460 1731q0 16 5.5 31t15.5 27t23.5 19t29.5 7q25 0 45.5 -11t38.5 -28l289 -252 l-16 -29l-365 160q-29 12 -47.5 31t-18.5 45z" />
<glyph unicode="&#xd3;" horiz-adv-x="1343" d="M98 680q0 185 39 327.5t113 239t180 146t240 49.5q136 0 243 -46t181 -135t112.5 -219.5t38.5 -298.5q0 -185 -39 -327t-113 -238.5t-180 -146t-239 -49.5q-137 0 -244 46t-181 134.5t-112.5 219t-38.5 298.5zM250 705q0 -176 30.5 -299t86 -200t134 -112t173.5 -35 q35 0 79.5 7t91 30t91.5 66.5t80 117t56.5 181t21.5 258.5q0 176 -30.5 298.5t-86 199.5t-134 112t-173.5 35q-35 0 -79.5 -7t-91.5 -30t-91.5 -66t-79.5 -116.5t-56.5 -181t-21.5 -258.5zM471 1524l288 252q19 17 39.5 28t44.5 11q16 0 29.5 -7t23.5 -19t15.5 -27t5.5 -31 q0 -26 -18 -45t-47 -31l-365 -160z" />
<glyph unicode="&#xd4;" horiz-adv-x="1343" d="M98 680q0 185 39 327.5t113 239t180 146t240 49.5q136 0 243 -46t181 -135t112.5 -219.5t38.5 -298.5q0 -185 -39 -327t-113 -238.5t-180 -146t-239 -49.5q-137 0 -244 46t-181 134.5t-112.5 219t-38.5 298.5zM250 705q0 -176 30.5 -299t86 -200t134 -112t173.5 -35 q35 0 79.5 7t91 30t91.5 66.5t80 117t56.5 181t21.5 258.5q0 176 -30.5 298.5t-86 199.5t-134 112t-173.5 35q-35 0 -79.5 -7t-91.5 -30t-91.5 -66t-79.5 -116.5t-56.5 -181t-21.5 -258.5zM383 1520l268 313q9 11 19 19t24 8q12 0 22 -8t19 -19l266 -313l-22 -25l-287 197 l-287 -197z" />
<glyph unicode="&#xd5;" horiz-adv-x="1343" d="M98 680q0 185 39 327.5t113 239t180 146t240 49.5q136 0 243 -46t181 -135t112.5 -219.5t38.5 -298.5q0 -185 -39 -327t-113 -238.5t-180 -146t-239 -49.5q-137 0 -244 46t-181 134.5t-112.5 219t-38.5 298.5zM250 705q0 -176 30.5 -299t86 -200t134 -112t173.5 -35 q35 0 79.5 7t91 30t91.5 66.5t80 117t56.5 181t21.5 258.5q0 176 -30.5 298.5t-86 199.5t-134 112t-173.5 35q-35 0 -79.5 -7t-91.5 -30t-91.5 -66t-79.5 -116.5t-56.5 -181t-21.5 -258.5zM408 1573q24 60 51.5 92.5t52 47.5t43 17.5t23.5 2.5q12 0 22.5 -1t22.5 -4t27 -8 t35 -14l61 -27q28 -12 51.5 -19t44.5 -7q29 0 56 15.5t53 53.5l22 -14q-24 -60 -51 -92.5t-52 -47.5t-43 -17.5t-24 -2.5q-11 0 -21.5 1t-22.5 4t-27 8t-35 14l-62 27q-27 12 -50.5 19t-45.5 7q-29 0 -55.5 -15.5t-52.5 -53.5z" />
<glyph unicode="&#xd6;" horiz-adv-x="1343" d="M98 680q0 185 39 327.5t113 239t180 146t240 49.5q136 0 243 -46t181 -135t112.5 -219.5t38.5 -298.5q0 -185 -39 -327t-113 -238.5t-180 -146t-239 -49.5q-137 0 -244 46t-181 134.5t-112.5 219t-38.5 298.5zM250 705q0 -176 30.5 -299t86 -200t134 -112t173.5 -35 q35 0 79.5 7t91 30t91.5 66.5t80 117t56.5 181t21.5 258.5q0 176 -30.5 298.5t-86 199.5t-134 112t-173.5 35q-35 0 -79.5 -7t-91.5 -30t-91.5 -66t-79.5 -116.5t-56.5 -181t-21.5 -258.5zM432 1675q0 41 24 64.5t64 23.5q35 0 59.5 -22.5t24.5 -63.5q0 -40 -24 -64t-64 -24 q-35 0 -59.5 23t-24.5 63zM761 1675q0 41 24 64.5t65 23.5q35 0 59 -22.5t24 -63.5q0 -40 -23.5 -64t-64.5 -24q-35 0 -59.5 23t-24.5 63z" />
<glyph unicode="&#xd7;" horiz-adv-x="1118" d="M55 285l420 426l-418 426l86 86l418 -426l416 424l84 -82l-416 -424l420 -428l-88 -82l-418 426l-418 -424z" />
<glyph unicode="&#xd8;" horiz-adv-x="1343" d="M98 680q0 185 39 327.5t113 239t180 146t240 49.5q100 0 182.5 -24t151.5 -72l81 135h103l-117 -195q85 -90 129.5 -225t44.5 -318q0 -185 -39 -327t-113 -238.5t-180 -146t-239 -49.5q-199 0 -334 96l-82 -135h-102l116 194q-85 90 -129.5 225t-44.5 318zM250 705 q0 -155 23.5 -267.5t66.5 -189.5l608 1005q-54 59 -124.5 85t-153.5 26q-35 0 -79.5 -7t-91.5 -30t-91.5 -66t-79.5 -116.5t-56.5 -181t-21.5 -258.5zM395 170q54 -59 124.5 -85t154.5 -26q35 0 79.5 7t91 30t91.5 66.5t80 117t56.5 181t21.5 258.5q0 155 -23.5 267 t-66.5 190z" />
<glyph unicode="&#xd9;" horiz-adv-x="1372" d="M53 1384v41q29 -2 62 -4q29 -2 66.5 -3t82.5 -1q42 0 83 1t74 3q39 2 73 4v-39l-56 -12q-33 -8 -51.5 -19.5t-27.5 -27t-11 -35.5t-2 -45v-772q0 -48 2.5 -97.5t13 -95.5t32.5 -87t60.5 -71t97 -47.5t142.5 -17.5q90 0 151.5 18t101.5 49t61.5 72.5t31.5 89.5t11.5 99 t1.5 102v791q0 24 -3.5 39.5t-11.5 25.5t-21.5 15.5t-33.5 9.5l-78 14v41q26 -2 58 -4q27 -2 63.5 -3t81.5 -1q42 0 79 1t66 3q33 2 62 4v-39l-55 -12q-33 -8 -52 -19.5t-28 -27t-11 -35.5t-2 -45v-639q0 -86 -1.5 -154.5t-10 -125.5t-26.5 -104.5t-50 -90.5 q-62 -83 -158 -117t-229 -34q-138 0 -235 30.5t-160 106.5q-32 37 -51 83t-29 101t-13 119t-3 139v719q0 24 -3.5 39.5t-11.5 25.5t-21.5 15.5t-33.5 9.5zM462 1731q0 16 5.5 31t15.5 27t23.5 19t29.5 7q25 0 45.5 -11t38.5 -28l289 -252l-16 -29l-365 160q-29 12 -47.5 31 t-18.5 45z" />
<glyph unicode="&#xda;" horiz-adv-x="1372" d="M53 1384v41q29 -2 62 -4q29 -2 66.5 -3t82.5 -1q42 0 83 1t74 3q39 2 73 4v-39l-56 -12q-33 -8 -51.5 -19.5t-27.5 -27t-11 -35.5t-2 -45v-772q0 -48 2.5 -97.5t13 -95.5t32.5 -87t60.5 -71t97 -47.5t142.5 -17.5q90 0 151.5 18t101.5 49t61.5 72.5t31.5 89.5t11.5 99 t1.5 102v791q0 24 -3.5 39.5t-11.5 25.5t-21.5 15.5t-33.5 9.5l-78 14v41q26 -2 58 -4q27 -2 63.5 -3t81.5 -1q42 0 79 1t66 3q33 2 62 4v-39l-55 -12q-33 -8 -52 -19.5t-28 -27t-11 -35.5t-2 -45v-639q0 -86 -1.5 -154.5t-10 -125.5t-26.5 -104.5t-50 -90.5 q-62 -83 -158 -117t-229 -34q-138 0 -235 30.5t-160 106.5q-32 37 -51 83t-29 101t-13 119t-3 139v719q0 24 -3.5 39.5t-11.5 25.5t-21.5 15.5t-33.5 9.5zM519 1524l288 252q19 17 39.5 28t44.5 11q16 0 29.5 -7t23.5 -19t15.5 -27t5.5 -31q0 -26 -18 -45t-47 -31l-365 -160 z" />
<glyph unicode="&#xdb;" horiz-adv-x="1372" d="M53 1384v41q29 -2 62 -4q29 -2 66.5 -3t82.5 -1q42 0 83 1t74 3q39 2 73 4v-39l-56 -12q-33 -8 -51.5 -19.5t-27.5 -27t-11 -35.5t-2 -45v-772q0 -48 2.5 -97.5t13 -95.5t32.5 -87t60.5 -71t97 -47.5t142.5 -17.5q90 0 151.5 18t101.5 49t61.5 72.5t31.5 89.5t11.5 99 t1.5 102v791q0 24 -3.5 39.5t-11.5 25.5t-21.5 15.5t-33.5 9.5l-78 14v41q26 -2 58 -4q27 -2 63.5 -3t81.5 -1q42 0 79 1t66 3q33 2 62 4v-39l-55 -12q-33 -8 -52 -19.5t-28 -27t-11 -35.5t-2 -45v-639q0 -86 -1.5 -154.5t-10 -125.5t-26.5 -104.5t-50 -90.5 q-62 -83 -158 -117t-229 -34q-138 0 -235 30.5t-160 106.5q-32 37 -51 83t-29 101t-13 119t-3 139v719q0 24 -3.5 39.5t-11.5 25.5t-21.5 15.5t-33.5 9.5zM406 1520l268 313q9 11 19 19t24 8q12 0 22 -8t19 -19l266 -313l-22 -25l-287 197l-287 -197z" />
<glyph unicode="&#xdc;" horiz-adv-x="1372" d="M53 1384v41q29 -2 62 -4q29 -2 66.5 -3t82.5 -1q42 0 83 1t74 3q39 2 73 4v-39l-56 -12q-33 -8 -51.5 -19.5t-27.5 -27t-11 -35.5t-2 -45v-772q0 -48 2.5 -97.5t13 -95.5t32.5 -87t60.5 -71t97 -47.5t142.5 -17.5q90 0 151.5 18t101.5 49t61.5 72.5t31.5 89.5t11.5 99 t1.5 102v791q0 24 -3.5 39.5t-11.5 25.5t-21.5 15.5t-33.5 9.5l-78 14v41q26 -2 58 -4q27 -2 63.5 -3t81.5 -1q42 0 79 1t66 3q33 2 62 4v-39l-55 -12q-33 -8 -52 -19.5t-28 -27t-11 -35.5t-2 -45v-639q0 -86 -1.5 -154.5t-10 -125.5t-26.5 -104.5t-50 -90.5 q-62 -83 -158 -117t-229 -34q-138 0 -235 30.5t-160 106.5q-32 37 -51 83t-29 101t-13 119t-3 139v719q0 24 -3.5 39.5t-11.5 25.5t-21.5 15.5t-33.5 9.5zM451 1675q0 41 24 64.5t64 23.5q35 0 59.5 -22.5t24.5 -63.5q0 -40 -24 -64t-64 -24q-35 0 -59.5 23t-24.5 63z M780 1675q0 41 24 64.5t65 23.5q35 0 59 -22.5t24 -63.5q0 -40 -23.5 -64t-64.5 -24q-35 0 -59.5 23t-24.5 63z" />
<glyph unicode="&#xdd;" horiz-adv-x="1104" d="M-12 1384v41q24 -2 54 -4q26 -2 61.5 -3t80.5 -1t82.5 1t65.5 3q33 2 59 4v-41q-5 0 -16 -1t-23.5 -4t-24.5 -7.5t-20 -11.5q-11 -11 -14.5 -21.5t-3.5 -21.5q0 -12 2 -23t6.5 -22t11 -24l15.5 -31l262 -523l262 516q15 32 26 56t11 49q0 11 -3 21.5t-14 21.5 q-8 7 -20 12t-25 8t-24 4t-17 2v41q27 -2 57 -4q26 -2 59 -3t69 -1q45 0 76.5 1t51.5 3q24 2 40 4v-41q-47 -8 -71 -22t-36 -27q-22 -21 -41 -54.5t-39 -74.5l-315 -602v-432q0 -36 5 -58t17.5 -34.5t35 -19t57.5 -11.5l75 -12v-41q-41 2 -85 4q-38 2 -83.5 3t-89.5 1 q-42 0 -88.5 -1t-86.5 -3q-47 -2 -93 -4v39l92 18q33 7 52.5 18t29.5 26t13 35t3 44v412l-335 661q-8 15 -14 26t-12 21t-13.5 19t-18.5 20q-12 13 -34.5 26.5t-71.5 22.5zM420 1524l288 252q19 17 39.5 28t44.5 11q16 0 29.5 -7t23.5 -19t15.5 -27t5.5 -31q0 -26 -18 -45 t-47 -31l-365 -160z" />
<glyph unicode="&#xde;" horiz-adv-x="1055" d="M66 -4v39l55 12q33 8 51.5 19.5t27.5 27.5t11 36t2 44v1106q0 24 -3.5 39.5t-11.5 25.5t-21.5 15.5t-33.5 9.5l-77 14v41q28 -2 61 -4q29 -2 67 -3t82 -1q42 0 83 1t74 3q39 2 73 4v-39l-55 -12q-29 -6 -48 -16t-30 -23t-15 -29.5t-4 -35.5v-51q20 0 45 1q21 0 50 0.5 t63 0.5q54 0 98.5 -3t82 -9.5t68.5 -17.5t60 -26q41 -21 71.5 -55t50.5 -76.5t30 -93t10 -104.5q0 -102 -25.5 -173.5t-66.5 -120t-91.5 -76t-100.5 -42t-93.5 -18t-70.5 -3.5q-42 0 -74.5 2t-55.5 5q-27 4 -49 8v-246q0 -36 6 -57.5t20.5 -34t39.5 -19t63 -12.5l80 -12v-41 q-37 2 -79 4q-36 2 -83.5 3t-99.5 1q-42 0 -84 -1t-76 -3q-40 -2 -77 -4zM356 483q18 -3 41 -5q20 -2 46.5 -3.5t58.5 -1.5q73 0 134.5 16t105 55.5t68 106.5t24.5 168q0 104 -27 168.5t-73 100.5t-106 48.5t-126 12.5h-146v-666z" />
<glyph unicode="&#xdf;" horiz-adv-x="1245" d="M74 -4v39l55 12q27 6 44.5 15t28 23t15 35.5t4.5 53.5v1010q0 34 2.5 73t12 78t29 77t54.5 71q22 21 51 38t66.5 29.5t84 19.5t104.5 7q37 0 80 -4t86.5 -14.5t84 -28.5t71.5 -47t50 -70t19 -96t-17.5 -96.5t-45.5 -75.5t-63.5 -63.5t-72.5 -59.5q-31 -26 -57.5 -48.5 t-46 -47t-30.5 -53.5t-11 -66q0 -41 11 -68.5t31 -48.5t48 -38.5t63 -37.5l133 -77q38 -23 71.5 -48t59 -57.5t40 -73.5t14.5 -96q0 -56 -15.5 -106.5t-53.5 -88.5t-102 -60.5t-161 -22.5q-76 0 -130.5 10.5t-89.5 24.5q-41 16 -69 36v17q0 42 -2.5 81.5t-4.5 71.5 q-4 37 -7 70h45q3 -12 6.5 -24t6.5 -22q4 -11 7 -22q26 -86 81.5 -132t156.5 -46q97 0 150 43.5t53 136.5q0 42 -10.5 71.5t-28.5 50.5t-42.5 37.5t-51.5 33.5l-140 84q-37 22 -72 45.5t-62.5 53.5t-44.5 69.5t-17 93.5q0 48 12.5 83.5t34.5 65.5t52 57t65 58q43 39 74 70 t50 61t28 62.5t9 74.5q0 60 -19 99t-52 62.5t-78.5 32.5t-99.5 9q-76 0 -127 -19.5t-82 -58.5q-32 -40 -41 -90.5t-9 -124.5v-1206h-59q-42 0 -83 -1t-73 -3q-39 -2 -73 -4z" />
<glyph unicode="&#xe0;" horiz-adv-x="1042" d="M111 260q0 74 20 125t54 85t78.5 52.5t95 28.5t103 13.5t101.5 6.5l129 9v206q0 36 -2.5 70t-17.5 62q-17 29 -53 49t-101 20q-48 0 -80 -9.5t-51.5 -27t-28 -41.5t-8.5 -53q0 -40 -16 -68t-62 -28q-43 0 -61 20.5t-18 59.5q0 59 31 99t78.5 64.5t105 35t110.5 10.5 q96 0 156 -21t94 -55q23 -23 36 -51t20 -58t8.5 -62t1.5 -63v-526q0 -65 14 -96t61 -31q18 0 32 3t23 7q11 4 19 10l18 -26q-19 -27 -45 -48q-23 -18 -55 -33t-74 -15q-47 0 -73 16t-38.5 40.5t-15 54t-2.5 57.5q-22 -47 -61 -84q-17 -16 -38.5 -31t-48.5 -27t-60 -19 t-72 -7q-68 0 -117.5 14.5t-83.5 38t-55 53.5t-32 60.5t-15 59t-4 50.5zM260 272q0 -25 6.5 -59t28.5 -64.5t62 -51.5t108 -21q46 0 87.5 13t72.5 39t49 64.5t18 88.5v239l-123 -10q-54 -5 -109 -13t-99.5 -31.5t-72.5 -69t-28 -124.5zM276 1393q0 16 5.5 31t15.5 27 t23.5 19t29.5 7q25 0 45.5 -11t38.5 -28l289 -252l-17 -29l-364 160q-29 12 -47.5 31t-18.5 45z" />
<glyph unicode="&#xe1;" horiz-adv-x="1042" d="M111 260q0 74 20 125t54 85t78.5 52.5t95 28.5t103 13.5t101.5 6.5l129 9v206q0 36 -2.5 70t-17.5 62q-17 29 -53 49t-101 20q-48 0 -80 -9.5t-51.5 -27t-28 -41.5t-8.5 -53q0 -40 -16 -68t-62 -28q-43 0 -61 20.5t-18 59.5q0 59 31 99t78.5 64.5t105 35t110.5 10.5 q96 0 156 -21t94 -55q23 -23 36 -51t20 -58t8.5 -62t1.5 -63v-526q0 -65 14 -96t61 -31q18 0 32 3t23 7q11 4 19 10l18 -26q-19 -27 -45 -48q-23 -18 -55 -33t-74 -15q-47 0 -73 16t-38.5 40.5t-15 54t-2.5 57.5q-22 -47 -61 -84q-17 -16 -38.5 -31t-48.5 -27t-60 -19 t-72 -7q-68 0 -117.5 14.5t-83.5 38t-55 53.5t-32 60.5t-15 59t-4 50.5zM260 272q0 -25 6.5 -59t28.5 -64.5t62 -51.5t108 -21q46 0 87.5 13t72.5 39t49 64.5t18 88.5v239l-123 -10q-54 -5 -109 -13t-99.5 -31.5t-72.5 -69t-28 -124.5zM313 1186l289 252q19 17 39 28t45 11 q16 0 29.5 -7t23.5 -19t15.5 -27t5.5 -31q0 -26 -18.5 -45t-47.5 -31l-364 -160z" />
<glyph unicode="&#xe2;" horiz-adv-x="1042" d="M111 260q0 74 20 125t54 85t78.5 52.5t95 28.5t103 13.5t101.5 6.5l129 9v206q0 36 -2.5 70t-17.5 62q-17 29 -53 49t-101 20q-48 0 -80 -9.5t-51.5 -27t-28 -41.5t-8.5 -53q0 -40 -16 -68t-62 -28q-43 0 -61 20.5t-18 59.5q0 59 31 99t78.5 64.5t105 35t110.5 10.5 q96 0 156 -21t94 -55q23 -23 36 -51t20 -58t8.5 -62t1.5 -63v-526q0 -65 14 -96t61 -31q18 0 32 3t23 7q11 4 19 10l18 -26q-19 -27 -45 -48q-23 -18 -55 -33t-74 -15q-47 0 -73 16t-38.5 40.5t-15 54t-2.5 57.5q-22 -47 -61 -84q-17 -16 -38.5 -31t-48.5 -27t-60 -19 t-72 -7q-68 0 -117.5 14.5t-83.5 38t-55 53.5t-32 60.5t-15 59t-4 50.5zM217 1182l269 313q9 11 19 19t24 8q12 0 21.5 -8t19.5 -19l266 -313l-23 -25l-286 197l-287 -197zM260 272q0 -25 6.5 -59t28.5 -64.5t62 -51.5t108 -21q46 0 87.5 13t72.5 39t49 64.5t18 88.5v239 l-123 -10q-54 -5 -109 -13t-99.5 -31.5t-72.5 -69t-28 -124.5z" />
<glyph unicode="&#xe3;" horiz-adv-x="1042" d="M111 260q0 74 20 125t54 85t78.5 52.5t95 28.5t103 13.5t101.5 6.5l129 9v206q0 36 -2.5 70t-17.5 62q-17 29 -53 49t-101 20q-48 0 -80 -9.5t-51.5 -27t-28 -41.5t-8.5 -53q0 -40 -16 -68t-62 -28q-43 0 -61 20.5t-18 59.5q0 59 31 99t78.5 64.5t105 35t110.5 10.5 q96 0 156 -21t94 -55q23 -23 36 -51t20 -58t8.5 -62t1.5 -63v-526q0 -65 14 -96t61 -31q18 0 32 3t23 7q11 4 19 10l18 -26q-19 -27 -45 -48q-23 -18 -55 -33t-74 -15q-47 0 -73 16t-38.5 40.5t-15 54t-2.5 57.5q-22 -47 -61 -84q-17 -16 -38.5 -31t-48.5 -27t-60 -19 t-72 -7q-68 0 -117.5 14.5t-83.5 38t-55 53.5t-32 60.5t-15 59t-4 50.5zM239 1236q24 59 51.5 91t52 47t43 17.5t23.5 2.5q12 0 22.5 -0.5t22.5 -3t27 -7.5t35 -14l63 -27q26 -11 49.5 -19.5t45.5 -8.5q29 0 55.5 15.5t52.5 55.5l23 -16q-24 -60 -51.5 -92.5t-52 -47.5 t-43 -17.5t-23.5 -2.5q-12 0 -22.5 1t-22.5 4t-27 8t-35 14l-61 27q-28 12 -51.5 19t-45.5 7q-29 0 -55.5 -15.5t-52.5 -53.5zM260 272q0 -25 6.5 -59t28.5 -64.5t62 -51.5t108 -21q46 0 87.5 13t72.5 39t49 64.5t18 88.5v239l-123 -10q-54 -5 -109 -13t-99.5 -31.5 t-72.5 -69t-28 -124.5z" />
<glyph unicode="&#xe4;" horiz-adv-x="1042" d="M111 260q0 74 20 125t54 85t78.5 52.5t95 28.5t103 13.5t101.5 6.5l129 9v206q0 36 -2.5 70t-17.5 62q-17 29 -53 49t-101 20q-48 0 -80 -9.5t-51.5 -27t-28 -41.5t-8.5 -53q0 -40 -16 -68t-62 -28q-43 0 -61 20.5t-18 59.5q0 59 31 99t78.5 64.5t105 35t110.5 10.5 q96 0 156 -21t94 -55q23 -23 36 -51t20 -58t8.5 -62t1.5 -63v-526q0 -65 14 -96t61 -31q18 0 32 3t23 7q11 4 19 10l18 -26q-19 -27 -45 -48q-23 -18 -55 -33t-74 -15q-47 0 -73 16t-38.5 40.5t-15 54t-2.5 57.5q-22 -47 -61 -84q-17 -16 -38.5 -31t-48.5 -27t-60 -19 t-72 -7q-68 0 -117.5 14.5t-83.5 38t-55 53.5t-32 60.5t-15 59t-4 50.5zM260 272q0 -25 6.5 -59t28.5 -64.5t62 -51.5t108 -21q46 0 87.5 13t72.5 39t49 64.5t18 88.5v239l-123 -10q-54 -5 -109 -13t-99.5 -31.5t-72.5 -69t-28 -124.5zM260 1337q0 41 24 64.5t64 23.5 q36 0 60 -22.5t24 -63.5q0 -40 -23.5 -64t-64.5 -24q-35 0 -59.5 23t-24.5 63zM590 1337q0 41 24 64.5t64 23.5q35 0 59.5 -22.5t24.5 -63.5q0 -40 -24 -64t-64 -24q-35 0 -59.5 23t-24.5 63z" />
<glyph unicode="&#xe5;" horiz-adv-x="1042" d="M111 260q0 74 20 125t54 85t78.5 52.5t95 28.5t103 13.5t101.5 6.5l129 9v206q0 36 -2.5 70t-17.5 62q-17 29 -53 49t-101 20q-48 0 -80 -9.5t-51.5 -27t-28 -41.5t-8.5 -53q0 -40 -16 -68t-62 -28q-43 0 -61 20.5t-18 59.5q0 59 31 99t78.5 64.5t105 35t110.5 10.5 q96 0 156 -21t94 -55q23 -23 36 -51t20 -58t8.5 -62t1.5 -63v-526q0 -65 14 -96t61 -31q18 0 32 3t23 7q11 4 19 10l18 -26q-19 -27 -45 -48q-23 -18 -55 -33t-74 -15q-47 0 -73 16t-38.5 40.5t-15 54t-2.5 57.5q-22 -47 -61 -84q-17 -16 -38.5 -31t-48.5 -27t-60 -19 t-72 -7q-68 0 -117.5 14.5t-83.5 38t-55 53.5t-32 60.5t-15 59t-4 50.5zM260 272q0 -25 6.5 -59t28.5 -64.5t62 -51.5t108 -21q46 0 87.5 13t72.5 39t49 64.5t18 88.5v239l-123 -10q-54 -5 -109 -13t-99.5 -31.5t-72.5 -69t-28 -124.5zM329 1321q0 42 15.5 78.5t42.5 63.5 t64 42t81 15q43 0 80 -14.5t64.5 -40.5t43 -62.5t15.5 -81.5q0 -42 -15.5 -78.5t-42.5 -63.5t-64 -42t-81 -15q-43 0 -80 14.5t-64.5 40.5t-43 62.5t-15.5 81.5zM415 1321q0 -26 8.5 -48t24 -39t37 -26.5t47.5 -9.5q54 0 85.5 35t31.5 88q0 25 -8.5 47.5t-24 39.5t-37 26.5 t-47.5 9.5q-54 0 -85.5 -35t-31.5 -88z" />
<glyph unicode="&#xe6;" horiz-adv-x="1563" d="M111 260q0 74 20 125t54 85t78.5 52.5t95 28.5t103 13.5t101.5 6.5l129 9v206q0 36 -2.5 70t-17.5 62q-17 29 -53 49t-101 20q-48 0 -80 -9.5t-51.5 -27t-28 -41.5t-8.5 -53q0 -40 -16 -68t-62 -28q-43 0 -61 20.5t-18 59.5q0 59 31 99t78.5 64.5t105 35t110.5 10.5 q125 0 195 -36.5t92 -113.5q48 69 121.5 109.5t175.5 40.5q77 0 146.5 -22t122 -78t83.5 -151t31 -241h-651q-1 -51 2 -106t13.5 -107.5t31 -99t55.5 -82t86.5 -56t124.5 -20.5q78 0 134 17.5t91 38.5q41 25 68 57l28 -27q-32 -53 -81 -94q-21 -18 -48 -34.5t-60.5 -30 t-73.5 -21.5t-87 -8q-53 0 -97 8t-79.5 21t-63 29.5t-48.5 34.5q-48 40 -74 93q-27 -53 -73 -93q-20 -18 -45 -34.5t-57.5 -29.5t-71.5 -21t-85 -8q-70 0 -120 14.5t-85 38t-56 53.5t-32.5 60.5t-15.5 59t-4 50.5zM260 270q0 -26 6.5 -60t28.5 -65t62 -52t108 -21 q49 0 90.5 12t72 36t47.5 61t17 87v252l-123 -10q-54 -5 -109 -12.5t-99.5 -31.5t-72.5 -69.5t-28 -126.5zM836 627h495q0 58 -5.5 120.5t-28.5 114t-71 84.5t-132 33q-76 0 -125.5 -29.5t-78.5 -78.5t-41 -112.5t-13 -131.5z" />
<glyph unicode="&#xe7;" horiz-adv-x="944" d="M98 504q0 127 30 228t86.5 171.5t138.5 108t186 37.5q85 0 147 -16t102 -44t59 -64.5t19 -76.5q0 -47 -21.5 -67.5t-62.5 -20.5q-24 0 -38.5 8.5t-22 22t-10 30.5t-2.5 35q0 37 -12 62t-34 39t-53 20t-69 6q-64 0 -110.5 -22.5t-79 -58.5t-52 -82t-30.5 -93t-15 -91 t-4 -77q0 -46 2 -99t11.5 -105.5t28.5 -101t53 -85.5t84.5 -59.5t123.5 -22.5q76 0 131 17.5t90 38.5q41 25 68 57l28 -27q-29 -50 -75 -90q-39 -35 -101 -64.5t-151 -33.5q-8 -15 -8 -31q0 -25 18.5 -39.5t44.5 -34.5q14 -11 29 -23t27 -27.5t20 -35.5t8 -45 q0 -54 -31.5 -89.5t-85.5 -55.5q-32 -13 -67.5 -19t-63.5 -8l-8 39q26 4 51 13t44 23t30.5 33.5t11.5 45.5q0 34 -12.5 53.5t-28.5 36.5q-10 10 -19.5 20.5t-17.5 22.5t-13 26.5t-5 32.5q0 17 4.5 31.5t13.5 30.5q-107 6 -181 49t-120 112.5t-66 161.5t-20 197z" />
<glyph unicode="&#xe8;" horiz-adv-x="977" d="M98 504q0 71 10.5 139t32 128.5t55 111.5t80 88t106.5 57.5t134 20.5q77 0 146.5 -22t122 -78t83.5 -151t31 -241h-651q-1 -51 2 -106t13.5 -107.5t31 -99t55.5 -82t86.5 -56t124.5 -20.5q78 0 134 17.5t91 38.5q41 25 68 57l29 -27q-32 -53 -81 -94q-21 -18 -48 -34.5 t-60.5 -30t-74 -21.5t-87.5 -8q-118 0 -200.5 39.5t-134.5 109t-75.5 165t-23.5 206.5zM250 627h495q0 58 -5.5 120.5t-28.5 114t-71 84.5t-132 33q-76 0 -125.5 -29.5t-78.5 -78.5t-41 -112.5t-13 -131.5zM282 1393q0 16 5.5 31t15.5 27t23.5 19t29.5 7q25 0 45.5 -11 t38.5 -28l289 -252l-17 -29l-364 160q-29 12 -47.5 31t-18.5 45z" />
<glyph unicode="&#xe9;" horiz-adv-x="977" d="M98 504q0 71 10.5 139t32 128.5t55 111.5t80 88t106.5 57.5t134 20.5q77 0 146.5 -22t122 -78t83.5 -151t31 -241h-651q-1 -51 2 -106t13.5 -107.5t31 -99t55.5 -82t86.5 -56t124.5 -20.5q78 0 134 17.5t91 38.5q41 25 68 57l29 -27q-32 -53 -81 -94q-21 -18 -48 -34.5 t-60.5 -30t-74 -21.5t-87.5 -8q-118 0 -200.5 39.5t-134.5 109t-75.5 165t-23.5 206.5zM250 627h495q0 58 -5.5 120.5t-28.5 114t-71 84.5t-132 33q-76 0 -125.5 -29.5t-78.5 -78.5t-41 -112.5t-13 -131.5zM317 1186l289 252q19 17 39 28t45 11q16 0 29.5 -7t23.5 -19 t15.5 -27t5.5 -31q0 -26 -18.5 -45t-47.5 -31l-364 -160z" />
<glyph unicode="&#xea;" horiz-adv-x="977" d="M98 504q0 71 10.5 139t32 128.5t55 111.5t80 88t106.5 57.5t134 20.5q77 0 146.5 -22t122 -78t83.5 -151t31 -241h-651q-1 -51 2 -106t13.5 -107.5t31 -99t55.5 -82t86.5 -56t124.5 -20.5q78 0 134 17.5t91 38.5q41 25 68 57l29 -27q-32 -53 -81 -94q-21 -18 -48 -34.5 t-60.5 -30t-74 -21.5t-87.5 -8q-118 0 -200.5 39.5t-134.5 109t-75.5 165t-23.5 206.5zM206 1182l269 313q9 11 19 19t24 8q12 0 21.5 -8t19.5 -19l266 -313l-23 -25l-286 197l-287 -197zM250 627h495q0 58 -5.5 120.5t-28.5 114t-71 84.5t-132 33q-76 0 -125.5 -29.5 t-78.5 -78.5t-41 -112.5t-13 -131.5z" />
<glyph unicode="&#xeb;" horiz-adv-x="977" d="M98 504q0 71 10.5 139t32 128.5t55 111.5t80 88t106.5 57.5t134 20.5q77 0 146.5 -22t122 -78t83.5 -151t31 -241h-651q-1 -51 2 -106t13.5 -107.5t31 -99t55.5 -82t86.5 -56t124.5 -20.5q78 0 134 17.5t91 38.5q41 25 68 57l29 -27q-32 -53 -81 -94q-21 -18 -48 -34.5 t-60.5 -30t-74 -21.5t-87.5 -8q-118 0 -200.5 39.5t-134.5 109t-75.5 165t-23.5 206.5zM250 627h495q0 58 -5.5 120.5t-28.5 114t-71 84.5t-132 33q-76 0 -125.5 -29.5t-78.5 -78.5t-41 -112.5t-13 -131.5zM254 1337q0 41 24 64.5t64 23.5q36 0 60 -22.5t24 -63.5 q0 -40 -23.5 -64t-64.5 -24q-35 0 -59.5 23t-24.5 63zM584 1337q0 41 24 64.5t64 23.5q35 0 59.5 -22.5t24.5 -63.5q0 -40 -24 -64t-64 -24q-35 0 -59.5 23t-24.5 63z" />
<glyph unicode="&#xec;" horiz-adv-x="571" d="M-6 1393q0 16 5.5 31t15.5 27t23.5 19t29.5 7q24 0 44.5 -11t39.5 -28l288 -252l-16 -29l-365 160q-29 12 -47 31t-18 45zM74 -4v39l55 12q27 6 44.5 15t28 23t15 35.5t4.5 53.5v635q0 30 -3.5 52.5t-15.5 38t-34 26t-59 16.5l-35 6v37l37 6q69 11 116.5 21.5t77.5 18.5 q35 9 57 16v-908q0 -37 9.5 -58.5t44.5 -27.5l92 -16v-41q-27 2 -60 4q-28 2 -65.5 3t-81.5 1q-42 0 -82.5 -1t-72.5 -3q-38 -2 -72 -4z" />
<glyph unicode="&#xed;" horiz-adv-x="571" d="M57 1186l289 252q19 17 39 28t45 11q16 0 29.5 -7t23.5 -19t15.5 -27t5.5 -31q0 -26 -18.5 -45t-47.5 -31l-364 -160zM74 -4v39l55 12q27 6 44.5 15t28 23t15 35.5t4.5 53.5v635q0 30 -3.5 52.5t-15.5 38t-34 26t-59 16.5l-35 6v37l37 6q69 11 116.5 21.5t77.5 18.5 q35 9 57 16v-908q0 -37 9.5 -58.5t44.5 -27.5l92 -16v-41q-27 2 -60 4q-28 2 -65.5 3t-81.5 1q-42 0 -82.5 -1t-72.5 -3q-38 -2 -72 -4z" />
<glyph unicode="&#xee;" horiz-adv-x="571" d="M-33 1182l269 313q9 11 19 19t24 8q12 0 21.5 -8t18.5 -19l267 -313l-23 -25l-287 197l-286 -197zM74 -4v39l55 12q27 6 44.5 15t28 23t15 35.5t4.5 53.5v635q0 30 -3.5 52.5t-15.5 38t-34 26t-59 16.5l-35 6v37l37 6q69 11 116.5 21.5t77.5 18.5q35 9 57 16v-908 q0 -37 9.5 -58.5t44.5 -27.5l92 -16v-41q-27 2 -60 4q-28 2 -65.5 3t-81.5 1q-42 0 -82.5 -1t-72.5 -3q-38 -2 -72 -4z" />
<glyph unicode="&#xef;" horiz-adv-x="571" d="M-8 1337q0 41 24 64.5t64 23.5q35 0 59.5 -22.5t24.5 -63.5q0 -40 -24 -64t-64 -24q-35 0 -59.5 23t-24.5 63zM74 -4v39l55 12q27 6 44.5 15t28 23t15 35.5t4.5 53.5v635q0 30 -3.5 52.5t-15.5 38t-34 26t-59 16.5l-35 6v37l37 6q69 11 116.5 21.5t77.5 18.5q35 9 57 16 v-908q0 -37 9.5 -58.5t44.5 -27.5l92 -16v-41q-27 2 -60 4q-28 2 -65.5 3t-81.5 1q-42 0 -82.5 -1t-72.5 -3q-38 -2 -72 -4zM322 1337q0 41 23.5 64.5t64.5 23.5q35 0 59.5 -22.5t24.5 -63.5q0 -40 -24 -64t-64 -24q-36 0 -60 23t-24 63z" />
<glyph unicode="&#xf0;" horiz-adv-x="1047" d="M98 510q0 106 18 187t49 141t73 100.5t90.5 65t101.5 35t105 10.5q77 0 127.5 -12.5t81.5 -27.5q36 -18 57 -40q-2 52 -6 102.5t-12.5 97t-21.5 88.5t-34 78l-154 -102l-45 65l152 101q-47 46 -118 73t-177 27q-52 0 -90 -6t-64 -14q-30 -9 -51 -19l-16 39q29 21 70 39 q35 14 89.5 26.5t129.5 12.5q111 0 191.5 -28.5t135.5 -82.5l166 111l45 -66l-160 -106q36 -54 59.5 -122.5t37 -151t19 -178t5.5 -203.5q0 -157 -14 -274.5t-41 -202.5t-65.5 -141t-87.5 -89t-108 -46t-126 -13q-97 0 -173.5 30t-129.5 94t-81 163.5t-28 238.5zM248 520 q0 -241 67 -352t205 -111q85 0 140 37t87 118.5t44 211t12 313.5q0 22 -0.5 49.5t-0.5 51.5q-1 28 -1 57q-18 20 -50 36q-27 14 -72 25t-112 11q-68 0 -126.5 -20t-101.5 -70.5t-67 -137t-24 -219.5z" />
<glyph unicode="&#xf1;" horiz-adv-x="1192" d="M74 -4v39l55 12q27 6 44.5 15t28 23t15 35.5t4.5 53.5v635q0 30 -3.5 52.5t-15.5 38t-34 26t-59 16.5l-35 6v37l37 6q69 11 115 21.5t75 18.5q33 9 53 16v-173q24 48 67 87q18 16 42.5 32t55.5 28.5t69 20t84 7.5q81 0 136.5 -21t91 -55t54 -77.5t27 -87.5t9.5 -85.5 t1 -71.5v-512q0 -37 10 -58.5t46 -27.5l92 -16v-41q-28 2 -61 4q-29 2 -66.5 3t-81.5 1q-42 0 -81.5 -1t-70.5 -3q-36 -2 -69 -4v39l47 12q27 7 45 16t29 23t15.5 35t4.5 53v481q0 46 -4 99t-26.5 98t-72.5 74.5t-141 29.5q-34 0 -76 -8.5t-79.5 -32.5t-63 -66t-25.5 -108 v-602q0 -37 9 -58.5t43 -27.5l86 -16v-41q-24 2 -55 4q-26 2 -62 3t-80 1q-42 0 -83 -1t-73 -3q-39 -2 -73 -4zM342 1237q24 59 51.5 91t52 47t43 17.5t23.5 2.5q12 0 22.5 -0.5t22.5 -3t27 -7.5t35 -14l63 -27q26 -11 49.5 -19.5t45.5 -8.5q29 0 55.5 15.5t52.5 55.5 l23 -16q-24 -60 -51.5 -92.5t-52 -47.5t-43 -17.5t-23.5 -2.5q-12 0 -22.5 1t-22.5 4t-27 8t-35 14l-61 27q-28 12 -51.5 19t-45.5 7q-29 0 -55.5 -15.5t-52.5 -53.5z" />
<glyph unicode="&#xf2;" horiz-adv-x="1073" d="M98 502q0 120 27 220t83 173t141 113.5t202 40.5q97 0 175.5 -32.5t134 -98t85 -162.5t29.5 -226q0 -120 -27 -220t-82.5 -172.5t-141 -113t-202.5 -40.5q-98 0 -176 32.5t-133.5 97.5t-85 162t-29.5 226zM248 516q0 -226 70.5 -342.5t218.5 -116.5q151 0 219.5 117.5 t68.5 341.5q0 227 -70 343t-218 116q-152 0 -220.5 -117.5t-68.5 -341.5zM325 1393q0 16 5.5 31t15.5 27t23.5 19t29.5 7q25 0 45.5 -11t38.5 -28l289 -252l-17 -29l-364 160q-29 12 -47.5 31t-18.5 45z" />
<glyph unicode="&#xf3;" horiz-adv-x="1073" d="M98 502q0 120 27 220t83 173t141 113.5t202 40.5q97 0 175.5 -32.5t134 -98t85 -162.5t29.5 -226q0 -120 -27 -220t-82.5 -172.5t-141 -113t-202.5 -40.5q-98 0 -176 32.5t-133.5 97.5t-85 162t-29.5 226zM248 516q0 -226 70.5 -342.5t218.5 -116.5q151 0 219.5 117.5 t68.5 341.5q0 227 -70 343t-218 116q-152 0 -220.5 -117.5t-68.5 -341.5zM333 1186l289 252q19 17 39 28t45 11q16 0 29.5 -7t23.5 -19t15.5 -27t5.5 -31q0 -26 -18.5 -45t-47.5 -31l-364 -160z" />
<glyph unicode="&#xf4;" horiz-adv-x="1073" d="M98 502q0 120 27 220t83 173t141 113.5t202 40.5q97 0 175.5 -32.5t134 -98t85 -162.5t29.5 -226q0 -120 -27 -220t-82.5 -172.5t-141 -113t-202.5 -40.5q-98 0 -176 32.5t-133.5 97.5t-85 162t-29.5 226zM237 1182l269 313q9 11 19 19t24 8q12 0 21.5 -8t19.5 -19 l266 -313l-23 -25l-286 197l-287 -197zM248 516q0 -226 70.5 -342.5t218.5 -116.5q151 0 219.5 117.5t68.5 341.5q0 227 -70 343t-218 116q-152 0 -220.5 -117.5t-68.5 -341.5z" />
<glyph unicode="&#xf5;" horiz-adv-x="1073" d="M98 502q0 120 27 220t83 173t141 113.5t202 40.5q97 0 175.5 -32.5t134 -98t85 -162.5t29.5 -226q0 -120 -27 -220t-82.5 -172.5t-141 -113t-202.5 -40.5q-98 0 -176 32.5t-133.5 97.5t-85 162t-29.5 226zM248 516q0 -226 70.5 -342.5t218.5 -116.5q151 0 219.5 117.5 t68.5 341.5q0 227 -70 343t-218 116q-152 0 -220.5 -117.5t-68.5 -341.5zM276 1237q24 59 51.5 91t52 47t43 17.5t23.5 2.5q12 0 22.5 -0.5t22.5 -3t27 -7.5t35 -14l63 -27q26 -11 49.5 -19.5t45.5 -8.5q29 0 55.5 15.5t52.5 55.5l23 -16q-24 -60 -51.5 -92.5t-52 -47.5 t-43 -17.5t-23.5 -2.5q-12 0 -22.5 1t-22.5 4t-27 8t-35 14l-61 27q-28 12 -51.5 19t-45.5 7q-29 0 -55.5 -15.5t-52.5 -53.5z" />
<glyph unicode="&#xf6;" horiz-adv-x="1073" d="M98 502q0 120 27 220t83 173t141 113.5t202 40.5q97 0 175.5 -32.5t134 -98t85 -162.5t29.5 -226q0 -120 -27 -220t-82.5 -172.5t-141 -113t-202.5 -40.5q-98 0 -176 32.5t-133.5 97.5t-85 162t-29.5 226zM248 516q0 -226 70.5 -342.5t218.5 -116.5q151 0 219.5 117.5 t68.5 341.5q0 227 -70 343t-218 116q-152 0 -220.5 -117.5t-68.5 -341.5zM288 1337q0 41 24 64.5t64 23.5q36 0 60 -22.5t24 -63.5q0 -40 -23.5 -64t-64.5 -24q-35 0 -59.5 23t-24.5 63zM618 1337q0 41 24 64.5t64 23.5q35 0 59.5 -22.5t24.5 -63.5q0 -40 -24 -64t-64 -24 q-35 0 -59.5 23t-24.5 63z" />
<glyph unicode="&#xf7;" horiz-adv-x="1311" d="M47 655v121h1217v-121h-1217zM532 299q0 27 9 49.5t25.5 38t39 24.5t49.5 9q51 0 86 -32t35 -89t-35 -90t-86 -33q-25 0 -47.5 8.5t-39 24.5t-26.5 38.5t-10 51.5zM532 1147q0 57 34.5 90t88.5 33q51 0 86 -33t35 -90q0 -27 -9.5 -49.5t-25.5 -38t-38.5 -24.5t-47.5 -9 t-47.5 9t-39 24.5t-26.5 38t-10 49.5z" />
<glyph unicode="&#xf8;" horiz-adv-x="1073" d="M98 502q0 120 27 220t83 173t141 113.5t202 40.5q62 0 115.5 -14t99.5 -40l59 103h93l-87 -150q70 -65 107 -168.5t37 -249.5q0 -120 -27 -220t-82.5 -172.5t-141 -113t-202.5 -40.5q-121 0 -215 53l-59 -103h-92l86 150q-69 65 -106.5 168.5t-37.5 249.5zM248 516 q0 -103 14 -182.5t43 -136.5l412 710q-68 68 -180 68q-152 0 -220.5 -117.5t-68.5 -341.5zM356 125q68 -68 181 -68q151 0 219.5 117.5t68.5 341.5q0 103 -14 183t-43 137z" />
<glyph unicode="&#xf9;" horiz-adv-x="1180" d="M53 948v37l37 6q69 11 117 21.5t78 18.5q35 9 57 16v-674q0 -56 5.5 -109t29.5 -94t73 -66.5t136 -25.5q34 0 76 9t79 32.5t62.5 65.5t25.5 108v514q0 30 -3.5 52.5t-15 38.5t-34 26.5t-59.5 17.5l-35 6v37l37 6q69 11 116.5 21.5t77.5 18.5q35 9 58 16v-865 q0 -29 3.5 -49.5t14.5 -35t32.5 -23.5t57.5 -13l37 -4v-37l-94 -6q-65 -4 -102 -8t-55 -7q-22 -4 -27 -7v170q-24 -50 -66 -89q-18 -17 -42.5 -33t-55.5 -28.5t-69.5 -20t-84.5 -7.5q-78 0 -131.5 18.5t-89 49.5t-55.5 70.5t-29.5 81.5t-11.5 83t-2 75v447q0 30 -4 52.5 t-16 38t-34 26t-59 16.5zM327 1393q0 16 5.5 31t15.5 27t23.5 19t29.5 7q25 0 45.5 -11t38.5 -28l289 -252l-17 -29l-364 160q-29 12 -47.5 31t-18.5 45z" />
<glyph unicode="&#xfa;" horiz-adv-x="1180" d="M53 948v37l37 6q69 11 117 21.5t78 18.5q35 9 57 16v-674q0 -56 5.5 -109t29.5 -94t73 -66.5t136 -25.5q34 0 76 9t79 32.5t62.5 65.5t25.5 108v514q0 30 -3.5 52.5t-15 38.5t-34 26.5t-59.5 17.5l-35 6v37l37 6q69 11 116.5 21.5t77.5 18.5q35 9 58 16v-865 q0 -29 3.5 -49.5t14.5 -35t32.5 -23.5t57.5 -13l37 -4v-37l-94 -6q-65 -4 -102 -8t-55 -7q-22 -4 -27 -7v170q-24 -50 -66 -89q-18 -17 -42.5 -33t-55.5 -28.5t-69.5 -20t-84.5 -7.5q-78 0 -131.5 18.5t-89 49.5t-55.5 70.5t-29.5 81.5t-11.5 83t-2 75v447q0 30 -4 52.5 t-16 38t-34 26t-59 16.5zM381 1186l289 252q19 17 39 28t45 11q16 0 29.5 -7t23.5 -19t15.5 -27t5.5 -31q0 -26 -18.5 -45t-47.5 -31l-364 -160z" />
<glyph unicode="&#xfb;" horiz-adv-x="1180" d="M53 948v37l37 6q69 11 117 21.5t78 18.5q35 9 57 16v-674q0 -56 5.5 -109t29.5 -94t73 -66.5t136 -25.5q34 0 76 9t79 32.5t62.5 65.5t25.5 108v514q0 30 -3.5 52.5t-15 38.5t-34 26.5t-59.5 17.5l-35 6v37l37 6q69 11 116.5 21.5t77.5 18.5q35 9 58 16v-865 q0 -29 3.5 -49.5t14.5 -35t32.5 -23.5t57.5 -13l37 -4v-37l-94 -6q-65 -4 -102 -8t-55 -7q-22 -4 -27 -7v170q-24 -50 -66 -89q-18 -17 -42.5 -33t-55.5 -28.5t-69.5 -20t-84.5 -7.5q-78 0 -131.5 18.5t-89 49.5t-55.5 70.5t-29.5 81.5t-11.5 83t-2 75v447q0 30 -4 52.5 t-16 38t-34 26t-59 16.5zM264 1182l269 313q9 11 19 19t24 8q12 0 21.5 -8t19.5 -19l266 -313l-23 -25l-286 197l-287 -197z" />
<glyph unicode="&#xfc;" horiz-adv-x="1180" d="M53 948v37l37 6q69 11 117 21.5t78 18.5q35 9 57 16v-674q0 -56 5.5 -109t29.5 -94t73 -66.5t136 -25.5q34 0 76 9t79 32.5t62.5 65.5t25.5 108v514q0 30 -3.5 52.5t-15 38.5t-34 26.5t-59.5 17.5l-35 6v37l37 6q69 11 116.5 21.5t77.5 18.5q35 9 58 16v-865 q0 -29 3.5 -49.5t14.5 -35t32.5 -23.5t57.5 -13l37 -4v-37l-94 -6q-65 -4 -102 -8t-55 -7q-22 -4 -27 -7v170q-24 -50 -66 -89q-18 -17 -42.5 -33t-55.5 -28.5t-69.5 -20t-84.5 -7.5q-78 0 -131.5 18.5t-89 49.5t-55.5 70.5t-29.5 81.5t-11.5 83t-2 75v447q0 30 -4 52.5 t-16 38t-34 26t-59 16.5zM319 1337q0 41 24 64.5t64 23.5q36 0 60 -22.5t24 -63.5q0 -40 -23.5 -64t-64.5 -24q-35 0 -59.5 23t-24.5 63zM649 1337q0 41 24 64.5t64 23.5q35 0 59.5 -22.5t24.5 -63.5q0 -40 -24 -64t-64 -24q-35 0 -59.5 23t-24.5 63z" />
<glyph unicode="&#xfd;" horiz-adv-x="922" d="M-111 -360q0 10 2.5 23.5t10 26.5t22.5 22t39 9q25 0 40 -6t23.5 -16.5t11.5 -24.5t3 -30q0 -31 21.5 -41.5t50.5 -10.5q51 0 89.5 22.5t69.5 64.5t57.5 103t55.5 138l33 88l-307 850q-8 22 -16 42.5t-17 37.5q-6 11 -12.5 19t-15 14.5t-21 12t-31.5 11.5v41q19 -2 45 -4 q22 -2 53.5 -3t73.5 -1q49 0 82.5 1t54.5 3q25 2 39 4v-41q-22 -3 -45 -9.5t-37 -18.5q-9 -10 -14.5 -20t-5.5 -32q0 -11 3.5 -27.5t8.5 -33t10 -31.5l8 -24l136 -377q25 -70 41 -118.5t24 -78.5q10 -35 14 -57q7 25 17 57q8 27 21 65t30 85l158 436q4 10 8.5 24t8.5 29 t6.5 29.5t2.5 26.5q0 24 -12 41q-8 10 -23 16.5t-29 10.5q-18 4 -36 7v41q17 -2 40 -4q20 -2 49 -3t67 -1q42 0 71 1t48 3q22 2 36 4v-41q-16 -4 -29.5 -8t-24.5 -10.5t-21 -16.5t-19 -26q-11 -19 -18 -38.5t-15 -39.5l-381 -1024q-29 -78 -61.5 -135t-74.5 -95t-96.5 -56.5 t-127.5 -18.5q-32 0 -66.5 4t-63 16t-47 34.5t-18.5 58.5zM342 1186l289 252q19 17 39 28t45 11q16 0 29.5 -7t23.5 -19t15.5 -27t5.5 -31q0 -26 -18.5 -45t-47.5 -31l-364 -160z" />
<glyph unicode="&#xfe;" horiz-adv-x="1137" d="M61 1477v36l35 7q69 12 116.5 22.5t76.5 18.5q34 10 55 18v-709q26 49 67 89q18 17 40.5 33t51 29t63 20.5t75.5 7.5q108 0 183.5 -41.5t123 -111t69 -160.5t21.5 -191q0 -122 -22.5 -211.5t-59.5 -152t-85 -101t-98.5 -60t-100 -29t-90.5 -7.5q-59 0 -101 11t-70 25 t-42.5 26.5t-16.5 14.5v-385q0 -40 15.5 -61t58.5 -29l98 -16v-41q-34 2 -72 4q-32 2 -73.5 3t-85.5 1q-42 0 -83 -1t-74 -3q-39 -2 -73 -4v39l56 12q27 6 44.5 15t28 23.5t15 35.5t4.5 53v1630q0 30 -4 51t-16.5 36t-35 25.5t-59.5 18.5zM352 139q15 -21 43 -37 q24 -14 64.5 -25t103.5 -11q76 0 136.5 30t102.5 87t64.5 140.5t22.5 190.5q0 117 -20.5 200t-58.5 136.5t-94 78.5t-126 25q-38 0 -80 -11.5t-77 -37t-58 -65.5t-23 -97v-604z" />
<glyph unicode="&#xff;" horiz-adv-x="922" d="M-111 -360q0 10 2.5 23.5t10 26.5t22.5 22t39 9q25 0 40 -6t23.5 -16.5t11.5 -24.5t3 -30q0 -31 21.5 -41.5t50.5 -10.5q51 0 89.5 22.5t69.5 64.5t57.5 103t55.5 138l33 88l-307 850q-8 22 -16 42.5t-17 37.5q-6 11 -12.5 19t-15 14.5t-21 12t-31.5 11.5v41q19 -2 45 -4 q22 -2 53.5 -3t73.5 -1q49 0 82.5 1t54.5 3q25 2 39 4v-41q-22 -3 -45 -9.5t-37 -18.5q-9 -10 -14.5 -20t-5.5 -32q0 -11 3.5 -27.5t8.5 -33t10 -31.5l8 -24l136 -377q25 -70 41 -118.5t24 -78.5q10 -35 14 -57q7 25 17 57q8 27 21 65t30 85l158 436q4 10 8.5 24t8.5 29 t6.5 29.5t2.5 26.5q0 24 -12 41q-8 10 -23 16.5t-29 10.5q-18 4 -36 7v41q17 -2 40 -4q20 -2 49 -3t67 -1q42 0 71 1t48 3q22 2 36 4v-41q-16 -4 -29.5 -8t-24.5 -10.5t-21 -16.5t-19 -26q-11 -19 -18 -38.5t-15 -39.5l-381 -1024q-29 -78 -61.5 -135t-74.5 -95t-96.5 -56.5 t-127.5 -18.5q-32 0 -66.5 4t-63 16t-47 34.5t-18.5 58.5zM243 1337q0 41 24 64.5t64 23.5q36 0 60 -22.5t24 -63.5q0 -40 -23.5 -64t-64.5 -24q-35 0 -59.5 23t-24.5 63zM573 1337q0 41 24 64.5t64 23.5q35 0 59.5 -22.5t24.5 -63.5q0 -40 -24 -64t-64 -24q-35 0 -59.5 23 t-24.5 63z" />
<glyph unicode="&#x152;" horiz-adv-x="1821" d="M98 684q0 185 40 326.5t119 237.5t194.5 145t267.5 49q54 0 95 -3.5t70 -8.5q33 -5 58 -11h741q-1 -41 0 -82q1 -35 2 -76.5t5 -76.5h-52l-8 57q-4 25 -13 45.5t-29 34.5t-54 21.5t-88 7.5h-322v-582h238q54 0 90 5.5t58.5 18t33.5 32.5t15 48l8 56h51q-2 -27 -3 -59 q-2 -27 -2.5 -62.5t-0.5 -73.5q0 -91 3 -142q1 -30 3 -52h-51l-8 55q-4 28 -15 48t-33.5 32.5t-58.5 18t-90 5.5h-238v-532q0 -54 15 -75t55 -21h223q50 0 89 3.5t68 16.5t49 38t32 67l18 69h45q-4 -36 -7 -76q-3 -35 -5 -79.5t-2 -92.5v-16h-760q-28 -5 -62 -9 q-29 -4 -70 -6.5t-91 -2.5q-158 0 -275.5 49t-194.5 140.5t-115 221.5t-38 291zM250 705q0 -173 31 -295.5t91 -200.5t147.5 -114t199.5 -36q72 0 121.5 7t81.5 15q36 10 59 23v1201q-26 16 -63 29q-32 11 -80.5 20.5t-116.5 9.5q-47 0 -100.5 -7t-105.5 -30t-100 -66 t-84.5 -116.5t-58.5 -181t-22 -258.5z" />
<glyph unicode="&#x153;" horiz-adv-x="1698" d="M98 502q0 120 27 220t83 173t141 113.5t202 40.5q127 0 214.5 -54.5t135.5 -163.5q21 49 52 89t72.5 68.5t94 44.5t117.5 16q77 0 146.5 -22t122 -78t83.5 -151t31 -241h-651q-1 -51 2 -106t13.5 -107.5t31 -99t55.5 -82t86.5 -56t124.5 -20.5q78 0 134 17.5t91 38.5 q41 25 68 57l29 -27q-32 -53 -81 -94q-21 -18 -48 -34.5t-60.5 -30t-74 -21.5t-87.5 -8q-73 0 -130.5 15t-102 43.5t-76.5 68.5t-53 90q-48 -101 -138.5 -159t-230.5 -58q-98 0 -176 32.5t-133.5 97.5t-85 162t-29.5 226zM248 516q0 -226 70.5 -342.5t218.5 -116.5 q151 0 219.5 117.5t68.5 341.5q0 227 -70 343t-218 116q-152 0 -220.5 -117.5t-68.5 -341.5zM971 627h495q0 58 -5.5 120.5t-28.5 114t-71 84.5t-132 33q-76 0 -125.5 -29.5t-78.5 -78.5t-41 -112.5t-13 -131.5z" />
<glyph unicode="&#x178;" horiz-adv-x="1104" d="M-12 1384v41q24 -2 54 -4q26 -2 61.5 -3t80.5 -1t82.5 1t65.5 3q33 2 59 4v-41q-5 0 -16 -1t-23.5 -4t-24.5 -7.5t-20 -11.5q-11 -11 -14.5 -21.5t-3.5 -21.5q0 -12 2 -23t6.5 -22t11 -24l15.5 -31l262 -523l262 516q15 32 26 56t11 49q0 11 -3 21.5t-14 21.5 q-8 7 -20 12t-25 8t-24 4t-17 2v41q27 -2 57 -4q26 -2 59 -3t69 -1q45 0 76.5 1t51.5 3q24 2 40 4v-41q-47 -8 -71 -22t-36 -27q-22 -21 -41 -54.5t-39 -74.5l-315 -602v-432q0 -36 5 -58t17.5 -34.5t35 -19t57.5 -11.5l75 -12v-41q-41 2 -85 4q-38 2 -83.5 3t-89.5 1 q-42 0 -88.5 -1t-86.5 -3q-47 -2 -93 -4v39l92 18q33 7 52.5 18t29.5 26t13 35t3 44v412l-335 661q-8 15 -14 26t-12 21t-13.5 19t-18.5 20q-12 13 -34.5 26.5t-71.5 22.5zM330 1675q0 41 24 64.5t64 23.5q35 0 59.5 -22.5t24.5 -63.5q0 -40 -24 -64t-64 -24q-35 0 -59.5 23 t-24.5 63zM659 1675q0 41 24 64.5t65 23.5q35 0 59 -22.5t24 -63.5q0 -40 -23.5 -64t-64.5 -24q-35 0 -59.5 23t-24.5 63z" />
<glyph unicode="&#x2c6;" horiz-adv-x="823" d="M102 1182l269 313q9 11 19 19t24 8q12 0 21.5 -8t19.5 -19l266 -313l-23 -25l-286 197l-287 -197z" />
<glyph unicode="&#x2dc;" horiz-adv-x="770" d="M102 1237q24 59 51.5 91t52 47t43 17.5t23.5 2.5q12 0 22.5 -0.5t22.5 -3t27 -7.5t35 -14l63 -27q26 -11 49.5 -19.5t45.5 -8.5q29 0 55.5 15.5t52.5 55.5l23 -16q-24 -60 -51.5 -92.5t-52 -47.5t-43 -17.5t-23.5 -2.5q-12 0 -22.5 1t-22.5 4t-27 8t-35 14l-61 27 q-28 12 -51.5 19t-45.5 7q-29 0 -55.5 -15.5t-52.5 -53.5z" />
<glyph unicode="&#x2000;" horiz-adv-x="947" />
<glyph unicode="&#x2001;" horiz-adv-x="1894" />
<glyph unicode="&#x2002;" horiz-adv-x="947" />
<glyph unicode="&#x2003;" horiz-adv-x="1894" />
<glyph unicode="&#x2004;" horiz-adv-x="631" />
<glyph unicode="&#x2005;" horiz-adv-x="473" />
<glyph unicode="&#x2006;" horiz-adv-x="315" />
<glyph unicode="&#x2007;" horiz-adv-x="315" />
<glyph unicode="&#x2008;" horiz-adv-x="236" />
<glyph unicode="&#x2009;" horiz-adv-x="378" />
<glyph unicode="&#x200a;" horiz-adv-x="105" />
<glyph unicode="&#x2010;" horiz-adv-x="666" d="M84 479v129h498v-129h-498z" />
<glyph unicode="&#x2011;" horiz-adv-x="666" d="M84 479v129h498v-129h-498z" />
<glyph unicode="&#x2012;" horiz-adv-x="666" d="M84 479v129h498v-129h-498z" />
<glyph unicode="&#x2013;" horiz-adv-x="1024" d="M0 494v102h1024v-102h-1024z" />
<glyph unicode="&#x2014;" horiz-adv-x="2048" d="M0 494v102h2048v-102h-2048z" />
<glyph unicode="&#x2018;" horiz-adv-x="446" d="M109 1255q0 48 13.5 96t37.5 92.5t57.5 83t73.5 68.5l24 -26q-25 -30 -41 -60.5t-25 -60.5t-12.5 -59.5t-3.5 -57.5q41 -6 67 -33t26 -73q0 -51 -29.5 -82t-77.5 -31q-27 0 -47.5 11t-34.5 30.5t-21 45.5t-7 56z" />
<glyph unicode="&#x2019;" horiz-adv-x="428" d="M102 1483q0 51 29.5 81.5t77.5 30.5q27 0 47.5 -11t34.5 -30.5t21 -45.5t7 -56q0 -48 -13.5 -96t-37.5 -92.5t-57.5 -83t-73.5 -68.5l-24 27q50 60 66 121t16 116q-41 6 -67 33t-26 74z" />
<glyph unicode="&#x201a;" horiz-adv-x="420" d="M113 88q0 51 29 82t77 31q27 0 47.5 -11.5t35 -31t21.5 -45.5t7 -56q0 -48 -13.5 -96t-38 -92.5t-58 -83t-73.5 -68.5l-24 27q50 60 66 121t16 117q-40 6 -66 33t-26 73z" />
<glyph unicode="&#x201c;" horiz-adv-x="784" d="M109 1255q0 48 13.5 96t37.5 92.5t57.5 83t73.5 68.5l24 -26q-25 -30 -41 -60.5t-25 -60.5t-12.5 -59.5t-3.5 -57.5q41 -6 67 -33t26 -73q0 -51 -29.5 -82t-77.5 -31q-27 0 -47.5 11t-34.5 30.5t-21 45.5t-7 56zM446 1255q0 48 13.5 96t38 92.5t58 83t73.5 68.5l24 -26 q-25 -30 -41 -60.5t-25 -60.5t-12.5 -59.5t-3.5 -57.5q41 -6 67 -33t26 -73q0 -51 -29.5 -82t-77.5 -31q-27 0 -47.5 11t-35 30.5t-21.5 45.5t-7 56z" />
<glyph unicode="&#x201d;" horiz-adv-x="766" d="M102 1483q0 51 29.5 81.5t77.5 30.5q27 0 47.5 -11t34.5 -30.5t21 -45.5t7 -56q0 -48 -13.5 -96t-37.5 -92.5t-57.5 -83t-73.5 -68.5l-24 27q50 60 66 121t16 116q-41 6 -67 33t-26 74zM440 1483q0 51 29.5 81.5t77.5 30.5q27 0 47.5 -11t34.5 -30.5t21 -45.5t7 -56 q0 -48 -13.5 -96t-37.5 -92.5t-57.5 -83t-73.5 -68.5l-24 27q50 60 65.5 121t15.5 116q-40 6 -66 33t-26 74z" />
<glyph unicode="&#x201e;" horiz-adv-x="758" d="M113 88q0 51 29 82t77 31q27 0 47.5 -11.5t35 -31t21.5 -45.5t7 -56q0 -48 -13.5 -96t-38 -92.5t-58 -83t-73.5 -68.5l-24 27q50 60 66 121t16 117q-40 6 -66 33t-26 73zM451 88q0 51 29 82t77 31q27 0 47.5 -11.5t35 -31t21.5 -45.5t7 -56q0 -48 -13.5 -96t-38 -92.5 t-58 -83t-73.5 -68.5l-24 27q50 60 66 121t16 117q-41 6 -66.5 33t-25.5 73z" />
<glyph unicode="&#x2022;" horiz-adv-x="1061" d="M215 598q0 65 24.5 123t67 101t100 68t123.5 25q64 0 121 -25t100.5 -68t69 -101t25.5 -123q0 -66 -25.5 -124t-69 -101.5t-100.5 -68.5t-121 -25q-66 0 -123.5 25t-100 68.5t-67 101.5t-24.5 124z" />
<glyph unicode="&#x2026;" horiz-adv-x="1630" d="M111 92q0 51 29 83t77 32q47 0 78 -31t31 -82q0 -52 -28.5 -85.5t-78.5 -33.5q-49 0 -78.5 30.5t-29.5 86.5zM725 92q0 51 29 83t77 32q47 0 78 -31t31 -82q0 -52 -28.5 -85.5t-77.5 -33.5q-50 0 -79.5 30.5t-29.5 86.5zM1321 92q0 51 29 83t77 32q47 0 78 -31t31 -82 q0 -52 -28.5 -85.5t-77.5 -33.5q-50 0 -79.5 30.5t-29.5 86.5z" />
<glyph unicode="&#x202f;" horiz-adv-x="378" />
<glyph unicode="&#x2039;" horiz-adv-x="537" d="M100 516q0 19 13 39t34 49l238 320h59l-176 -400l176 -413h-63l-242 327q-17 23 -28 41.5t-11 36.5z" />
<glyph unicode="&#x203a;" horiz-adv-x="537" d="M92 121l176 399l-176 414h64l241 -328q17 -23 28 -41t11 -37q0 -18 -12.5 -38.5t-34.5 -49.5l-237 -319h-60z" />
<glyph unicode="&#x205f;" horiz-adv-x="473" />
<glyph unicode="&#x20ac;" d="M-14 502l16 82h141q-2 24 -3 50t-1 54q0 64 6 129h-131l17 82h123q9 68 24.5 128.5t40.5 113.5q68 148 182.5 224.5t288.5 76.5q81 0 142.5 -16t102 -43t61 -62t20.5 -72q0 -40 -21 -63t-61 -23q-24 0 -39.5 8t-24.5 20t-12.5 27t-3.5 29q0 30 -7.5 53.5t-26 39t-51 24 t-83.5 8.5q-88 0 -154 -34t-112.5 -96t-75.5 -149t-43 -194h539l-17 -82h-530q-2 -25 -3 -49.5t-1 -50.5q0 -69 6 -133h481l-16 -82h-457q10 -84 36 -164.5t71 -144.5t110.5 -103t155.5 -39q98 0 137 31.5t39 91.5q0 13 4 28t13 28t25 21.5t40 8.5q40 0 60 -21t20 -67 q0 -41 -23 -75.5t-67 -60t-107 -40t-143 -14.5q-127 0 -219 38.5t-155 107.5t-99 164.5t-49 209.5h-166z" />
<glyph unicode="&#x2122;" horiz-adv-x="1812" d="M41 1276q0 7 1 18q0 9 0.5 23.5t0.5 34.5t-0.5 37.5t-0.5 31.5q-1 16 -1 29h668q-1 -13 -1 -29q-1 -14 -1 -31.5v-37.5v-34.5t1 -23.5q0 -11 1 -18h-39l-6 41q-3 19 -8.5 33.5t-17 24t-31.5 14t-52 4.5h-123v-676q0 -21 2 -34.5t9.5 -22t21.5 -13.5t37 -8l47 -6v-37 q-29 1 -59 2q-26 1 -55.5 1.5t-55.5 0.5q-25 0 -54.5 -0.5t-55.5 -1.5l-60 -2v35l43 10q40 9 52.5 27t12.5 47v678h-122q-32 0 -52 -4.5t-31.5 -14t-17 -24t-8.5 -33.5l-6 -41h-39zM813 592v37l33 8q20 4 31 11t16.5 16.5t6.5 21.5t1 27v635q0 29 -8 39.5t-33 15.5l-47 8v39 q21 -2 45 -3q20 -2 45 -2.5t51 -0.5q20 0 39.5 0.5t36.5 1.5q19 1 37 2l186 -586q7 -21 12 -38t8 -30q4 -15 5 -26q4 14 8 30q4 14 9 30.5t12 35.5l204 584q15 -1 33 -1q15 -1 33 -1h37q25 0 48.5 0.5t41.5 1.5q21 1 39 2v-39l-33 -6q-20 -4 -31 -10.5t-16.5 -16.5t-6.5 -22 t-1 -27v-637q0 -28 9 -38t32 -15l47 -8v-39q-24 1 -50 2q-23 1 -50 1.5t-54 0.5q-25 0 -48.5 -0.5t-43.5 -1.5q-23 -1 -43 -2v37l35 8q19 4 30 11t16.5 16.5t7 21.5t1.5 27v624q-3 -14 -7 -32q-4 -15 -10 -35t-14 -43l-225 -633h-55l-219 635q-9 23 -15 44.5t-11 37.5 q-5 18 -9 35v-654q0 -28 8 -38t33 -15l47 -8v-39q-12 1 -29 2q-14 1 -35 1.5t-47 0.5q-25 0 -50 -0.5t-46 -1.5q-25 -1 -47 -2z" />
<glyph unicode="&#x25fc;" horiz-adv-x="1035" d="M0 0v1035h1035v-1035h-1035z" />
<glyph unicode="&#xfb01;" horiz-adv-x="1157" d="M74 -4v39l55 12q27 6 44.5 15t28 23t15 35.5t4.5 53.5v780h-129v72h129v115v26t1 35.5t2.5 40.5t4.5 41q3 18 9.5 46.5t22.5 61.5t43.5 65.5t71 59.5t106 43.5t149.5 16.5q83 0 145 -13.5t103.5 -37t62.5 -55t21 -66.5q0 -43 -22 -66.5t-60 -23.5q-24 0 -40 6.5t-25 17.5 t-13 25.5t-4 30.5q0 30 -8 52.5t-28.5 38t-56 23t-90.5 7.5q-85 0 -135 -24t-78 -69q-24 -40 -32.5 -97.5t-8.5 -143.5v-156h459q33 0 57.5 3t41.5 7q19 4 34 11v-908q0 -37 9.5 -58.5t44.5 -27.5l92 -16v-41q-27 2 -60 4q-28 2 -65.5 3t-81.5 1q-42 0 -81.5 -1t-70.5 -3 q-36 -2 -69 -4v39l47 12q27 7 45 16t29 23t15.5 35t4.5 53v645q0 47 -10.5 74t-27.5 40.5t-39.5 17t-47.5 3.5h-326v-815q0 -37 10 -58.5t44 -27.5l90 -16v-41q-26 2 -58 4q-27 2 -64 3t-81 1q-42 0 -83 -1t-73 -3q-39 -2 -73 -4z" />
<glyph unicode="&#xfb02;" horiz-adv-x="1165" d="M74 -4v39l55 12q27 6 44.5 15t28 23t15 35.5t4.5 53.5v780h-129v72h129v115v26t1 35.5t2.5 40.5t4.5 41q3 18 9.5 46.5t22.5 61.5t43.5 65.5t71 59.5t106 43.5t149.5 16.5q42 0 77 -6t61 -13q31 -8 56 -18l129 39v-1440q0 -37 9.5 -58.5t44.5 -27.5l92 -16v-41 q-27 2 -60 4q-28 2 -65.5 3t-81.5 1q-42 0 -81.5 -1t-70.5 -3q-36 -2 -69 -4v39l47 12q27 7 45 16t29 23t15.5 35t4.5 53v1176q0 27 -4 56t-23.5 53.5t-59 40.5t-110.5 16q-85 0 -135 -24t-78 -69q-24 -40 -32.5 -97t-8.5 -144v-156h230v-72h-230v-815q0 -37 9.5 -58.5 t44.5 -27.5l90 -16v-41q-26 2 -58 4q-27 2 -64 3t-81 1q-42 0 -83 -1t-73 -3q-39 -2 -73 -4z" />
</font>
</defs>
</svg>
